{
.appVersion = "895";
DisplayStrings = (
"\U00A2$/euro O12%o&!/eogonek g/aogonek gg/dagger/daggerdbl \012/orn.001 G/eogonek ga/cacute  &s?I/orn.001/orn.001 to /lslash atwoW",
"multilingual \012po/g_g.liga o bangers",
"/orn.005/orn.005/orn.005 Olympic/orn.005/orn.005/orn.005 \012",
"%/perthousand/perthousand @&I\U00B6\U00B6js\U00A9\U00AE\U00B0\012ATOLI\U00AE/trademark olympic/trademark/trademark \U00AE\012ATOLI\U00A9olympic\U00A9\012nieludka@gmail@@a\012nieludka@gmail/trademark \012Olympic & Me\012Olympic Me\U00A9\012",
"/orn.006/dagger/dagger 2011*/orn.006/orn.006/hypen2 19/orn.006/hypen2 98\012/orn.006 1906/hypen2/dagger 2012\012\012"
);
classes = (
{
automatic = 1;
code = "A Aacute Abreve Acircumflex Adieresis Agrave Amacron Aogonek Aring Atilde AE B C Cacute Ccaron Ccedilla Cdotaccent D Eth Dcaron Dcroat E Eacute Ecaron Ecircumflex Edieresis Edotaccent Egrave Emacron Eogonek F G Gbreve Gcommaaccent Gdotaccent H Hbar I Iacute Icircumflex Idieresis Idotaccent Igrave Imacron Iogonek J K Kcommaaccent L Lacute Lcaron Lcommaaccent Lslash M N Nacute Ncaron Ncommaaccent Eng Ntilde O Oacute Ocircumflex Odieresis Ograve Ohungarumlaut Omacron Oslash Otilde OE P Thorn Q R Racute Rcaron Rcommaaccent S Sacute Scaron Scedilla Scommaaccent T Tbar Tcaron Tcedilla Tcommaaccent U Uacute Ucircumflex Udieresis Ugrave Uhungarumlaut Umacron Uogonek Uring V W Wacute Wcircumflex Wdieresis Wgrave X Y Yacute Ycircumflex Ydieresis Ygrave Z Zacute Zcaron Zdotaccent";
name = Uppercase;
}
);
copyright = "Copyright © 2016 by Ludka Niezgoda. All rights reserved.";
date = "2016-11-05 17:22:27 +0000";
designer = "Ludka Niezgoda";
familyName = Olympic;
featurePrefixes = (
{
automatic = 1;
code = "languagesystem DFLT dflt;\012languagesystem latn dflt;\012languagesystem latn ROM;\012languagesystem latn MOL;\012languagesystem latn KAZ;\012languagesystem latn TAT;\012languagesystem latn TRK;\012languagesystem latn CRT;\012languagesystem latn AZE;\012";
name = Languagesystems;
}
);
features = (
{

glyphs = (
{
glyphname = A;
lastChange = "2016-11-11 17:29:21 +0000";
layers = (
{
anchors = (
{
name = bottom;
position = "{291, 0}";
},
{
name = ogonek;
position = "{544, 9}";
},
{
name = top;
position = "{393, 665}";
}
);
background = {
anchors = (
{
name = bottom;
position = "{291, 0}";
},
{
name = ogonek;
position = "{544, 10}";
},
{
name = top;
position = "{389, 665}";
}
);
paths = (
{
closed = 1;
nodes = (
"442 254 LINE",
"442 278 LINE",
"189 285 LINE",
"188 251 LINE"
);
},
{
closed = 1;
nodes = (
"30 0 LINE",
"174 -2 LINE",
"176 13 LINE",
"93 40 LINE"
);
},
{
closed = 1;
nodes = (
"488 0 LINE",
"540 0 LINE",
"551 14 LINE",
"418 689 LINE",
"362 652 LINE"
);
},
{
closed = 1;
nodes = (
"-9 13 LINE",
"-6 -2 LINE",
"93 0 LINE",
"95 22 LINE",
"109 56 LINE"
);
},
{
closed = 1;
nodes = (
"382 662 LINE",
"378 658 LINE",
"37 0 LINE",
"90 0 LINE",
"402 648 LINE",
"418 689 LINE"
);
},
{
closed = 1;
nodes = (
"492 22 LINE",
"488 0 LINE",
"540 0 LINE",
"610 -2 LINE",
"613 13 LINE",
"489 56 LINE"
);
},
{
closed = 1;
nodes = (
"428 13 LINE",
"431 -2 LINE",
"516 0 LINE",
"518 22 LINE",
"532 56 LINE"
);
}
);
};
layerId = "97AFB7C9-FE9A-4B33-96EF-7CD144DFB325";
paths = (
{
closed = 1;
nodes = (
"442 254 LINE",
"442 278 LINE",
"189 285 LINE",
"188 251 LINE"
);
},
{
closed = 1;
nodes = (
"30 0 LINE",
"174 -2 LINE",
"176 13 LINE",
"93 40 LINE"
);
},
{
closed = 1;
nodes = (
"488 0 LINE",
"540 0 LINE",
"551 14 LINE",
"418 689 LINE",
"362 652 LINE"
);
},
{
closed = 1;
nodes = (
"-9 13 LINE",
"-6 -2 LINE",
"93 0 LINE",
"95 22 LINE",
"109 56 LINE"
);
},
{
closed = 1;
nodes = (
"382 662 LINE",
"378 658 LINE",
"37 0 LINE",
"90 0 LINE",
"402 648 LINE",
"418 689 LINE"
);
},
{
closed = 1;
nodes = (
"492 22 LINE",
"488 0 LINE",
"540 0 LINE",
"610 -2 LINE",
"613 13 LINE",
"489 56 LINE"
);
},
{
closed = 1;
nodes = (
"428 13 LINE",
"431 -2 LINE",
"516 0 LINE",
"518 22 LINE",
"532 56 LINE"
);
}
);
width = 652;
}
);
unicode = 0041;
},
{
glyphname = AE;
lastChange = "2016-11-11 17:29:21 +0000";
layers = (
{
background = {
paths = (
{
closed = 1;
nodes = (
"439 1 LINE",
"505 1 LINE",
"615 665 LINE",
"549 665 LINE"
);
},
{
closed = 1;
nodes = (
"782 307 LINE",
"772 313 LINE",
"786 221 LINE",
"805 221 LINE",
"840 422 LINE",
"821 422 LINE",
"772 337 LINE",
"783 343 LINE",
"546 335 LINE",
"546 315 LINE"
);
},
{
closed = 1;
nodes = (
"371 13 LINE",
"373 -2 LINE",
"445 1 LINE",
"494 29 LINE",
"494 58 LINE"
);
},
{
closed = 1;
nodes = (
"476 636 LINE",
"438 665 LINE",
"357 667 LINE",
"355 652 LINE",
"476 608 LINE"
);
},
{
closed = 1;
nodes = (
"382 0 LINE",
"544 0 LINE SMOOTH",
"660 0 OFFCURVE",
"803 0 OFFCURVE",
"834 0 CURVE",
"847 31 LINE",
"818 30 OFFCURVE",
"574 30 OFFCURVE",
"459 30 CURVE",
"457 30 LINE"
);
},
{
closed = 1;
nodes = (
"845 -2 LINE",
"874 134 LINE",
"857 134 LINE",
"776 13 LINE",
"790 5 LINE",
"802 0 LINE"
);
},
{
closed = 1;
nodes = (
"450 635 LINE",
"558 635 OFFCURVE",
"889 635 OFFCURVE",
"918 634 CURVE",
"905 665 LINE",
"874 665 OFFCURVE",
"759 665 OFFCURVE",
"643 665 CURVE SMOOTH",
"366 665 LINE",
"441 635 LINE"
);
},
{
closed = 1;
nodes = (
"858 660 LINE",
"864 652 LINE",
"886 531 LINE",
"903 531 LINE",
"932 667 LINE",
"886 665 LINE"
);
},
{
closed = 1;
nodes = (
"510 315 LINE",
"506 335 LINE",
"263 343 LINE",
"249 307 LINE"
);
},
{
closed = 1;
nodes = (
"8 0 LINE",
"152 -2 LINE",
"154 13 LINE",
"71 40 LINE"
);
},
{
closed = 1;
nodes = (
"-31 13 LINE",
"-28 -2 LINE",
"71 0 LINE",
"73 22 LINE",
"87 56 LINE"
);
},
{
closed = 1;
nodes = (
"479 662 LINE",
"476 658 LINE",
"12 0 LINE",
"71 0 LINE",
"506 648 LINE"
);
}
);
};
layerId = "97AFB7C9-FE9A-4B33-96EF-7CD144DFB325";
paths = (
{
closed = 1;
nodes = (
"439 1 LINE",
"505 1 LINE",
"615 665 LINE",
"549 665 LINE"
);
},
{
closed = 1;
nodes = (
"784 307 LINE",
"774 313 LINE",
"788 221 LINE",
"807 221 LINE",
"842 422 LINE",
"823 422 LINE",
"774 337 LINE",
"785 343 LINE",
"546 335 LINE",
"546 315 LINE"
);
},
{
closed = 1;
nodes = (
"371 13 LINE",
"373 -2 LINE",
"445 1 LINE",
"494 29 LINE",
"494 58 LINE"
);
},
{
closed = 1;
nodes = (
"476 636 LINE",
"438 665 LINE",
"357 667 LINE",
"355 652 LINE",
"476 608 LINE"
);
},
{
closed = 1;
nodes = (
"382 0 LINE",
"544 0 LINE SMOOTH",
"660 0 OFFCURVE",
"803 0 OFFCURVE",
"834 0 CURVE",
"847 31 LINE",
"818 30 OFFCURVE",
"574 30 OFFCURVE",
"459 30 CURVE",
"457 30 LINE"
);
},
{
closed = 1;
nodes = (
"845 -2 LINE",
"874 134 LINE",
"857 134 LINE",
"776 13 LINE",
"790 5 LINE",
"802 0 LINE"
);
},
{
closed = 1;
nodes = (
"450 635 LINE",
"558 635 OFFCURVE",
"891 635 OFFCURVE",
"920 634 CURVE",
"907 665 LINE",
"876 665 OFFCURVE",
"761 665 OFFCURVE",
"643 665 CURVE SMOOTH",
"366 665 LINE",
"441 635 LINE"
);
},
{
closed = 1;
nodes = (
"860 660 LINE",
"866 652 LINE",
"888 531 LINE",
"905 531 LINE",
"934 667 LINE",
"888 665 LINE"
);
},
{
closed = 1;
nodes = (
"510 315 LINE",
"506 335 LINE",
"263 343 LINE",
"249 307 LINE"
);
},
{
closed = 1;
nodes = (
"8 0 LINE",
"159 -2 LINE",
"161 13 LINE",
"71 40 LINE"
);
},
{
closed = 1;
nodes = (
"-31 13 LINE",
"-28 -2 LINE",
"71 0 LINE",
"73 22 LINE",
"87 56 LINE"
);
},
{
closed = 1;
nodes = (
"479 662 LINE",
"476 658 LINE",
"12 0 LINE",
"71 0 LINE",
"506 648 LINE"
);
}
);
width = 926;
}
);
rightMetricsKey = E;
unicode = 00C6;
},
{
glyphname = B;
lastChange = "2016-11-11 17:29:21 +0000";
layers = (
{
background = {
paths = (
{
closed = 1;
nodes = (
"181 319 LINE",
"199 321 LINE",
"202 327 LINE",
"282 324 LINE SMOOTH",
"403 319 OFFCURVE",
"477 282 OFFCURVE",
"477 184 CURVE SMOOTH",
"477 71 OFFCURVE",
"373 27 OFFCURVE",
"330 14 CURVE",
"404 29 LINE",
"182 29 OFFCURVE",
"156 31 OFFCURVE",
"141 31 CURVE",
"19 -1 LINE",
"108 0 OFFCURVE",
"203 -3 OFFCURVE",
"317 -3 CURVE SMOOTH",
"426 -3 OFFCURVE",
"545 77 OFFCURVE",
"545 203 CURVE SMOOTH",
"545 321 OFFCURVE",
"412 352 OFFCURVE",
"310 349 CURVE",
"390 339 LINE",
"437 354 OFFCURVE",
"536 426 OFFCURVE",
"536 522 CURVE SMOOTH",
"536 633 OFFCURVE",
"431 668 OFFCURVE",
"286 668 CURVE SMOOTH",
"206 668 OFFCURVE",
"112 665 OFFCURVE",
"112 665 CURVE",
"116 659 LINE",
"228 641 LINE",
"232 642 LINE",
"364 642 OFFCURVE",
"468 622 OFFCURVE",
"468 520 CURVE SMOOTH",
"468 419 OFFCURVE",
"403 363 OFFCURVE",
"362 352 CURVE",
"396 354 LINE",
"205 347 LINE",
"209 372 LINE",
"181 372 LINE"
);
},
{
closed = 1;
nodes = (
"82 0 LINE",
"148 0 LINE",
"258 665 LINE",
"192 665 LINE"
);
},
{
closed = 1;
nodes = (
"226 638 LINE",
"196 665 LINE",
"112 665 LINE",
"110 651 LINE",
"226 611 LINE"
);
},
{
closed = 1;
nodes = (
"17 13 LINE",
"19 -1 LINE",
"97 0 LINE",
"124 27 LINE",
"124 52 LINE"
);
}
);
};
guideLines = (
{
angle = 80.594;
position = "{258, 665}";
},
{
angle = 80.594;
position = "{192, 665}";
}
);
layerId = "97AFB7C9-FE9A-4B33-96EF-7CD144DFB325";
paths = (
{
closed = 1;
nodes = (
"181 319 LINE",
"199 321 LINE",
"202 327 LINE",
"282 324 LINE SMOOTH",
"403 319 OFFCURVE",
"477 282 OFFCURVE",
"477 184 CURVE SMOOTH",
"477 71 OFFCURVE",
"373 27 OFFCURVE",
"330 14 CURVE",
"404 29 LINE",
"182 29 OFFCURVE",
"156 31 OFFCURVE",
"141 31 CURVE",
"19 -1 LINE",
"108 0 OFFCURVE",
"203 -3 OFFCURVE",
"317 -3 CURVE SMOOTH",
"426 -3 OFFCURVE",
"545 77 OFFCURVE",
"545 203 CURVE SMOOTH",
"545 321 OFFCURVE",
"412 352 OFFCURVE",
"310 349 CURVE",
"390 339 LINE",
"437 354 OFFCURVE",
"536 426 OFFCURVE",
"536 522 CURVE SMOOTH",
"536 633 OFFCURVE",
"431 668 OFFCURVE",
"286 668 CURVE SMOOTH",
"206 668 OFFCURVE",
"112 665 OFFCURVE",
"112 665 CURVE",
"116 659 LINE",
"228 641 LINE",
"232 642 LINE",
"364 642 OFFCURVE",
"468 622 OFFCURVE",
"468 520 CURVE SMOOTH",
"468 419 OFFCURVE",
"403 363 OFFCURVE",
"362 352 CURVE",
"396 354 LINE",
"205 347 LINE",
"209 372 LINE",
"181 372 LINE"
);
},
{
closed = 1;
nodes = (
"82 0 LINE",
"148 0 LINE",
"258 665 LINE",
"192 665 LINE"
);
},
{
closed = 1;
nodes = (
"226 638 LINE",
"196 665 LINE",
"112 665 LINE",
"110 651 LINE",
"226 611 LINE"
);
},
{
closed = 1;
nodes = (
"17 13 LINE",
"19 -1 LINE",
"97 0 LINE",
"124 27 LINE",
"124 52 LINE"
);
}
);
width = 587;
}
);
leftMetricsKey = E;
unicode = 0042;
},
{
glyphname = C;
lastChange = "2016-11-11 17:31:39 +0000";
layers = (
{
anchors = (
{
name = bottom;
position = "{358, 0}";
},
{
name = top;
position = "{438, 665}";
}
);
background = {
paths = (
{
closed = 1;
nodes = (
"228 675 OFFCURVE",
"104 538 OFFCURVE",
"72 362 CURVE SMOOTH",
"36 159 OFFCURVE",
"149 -10 OFFCURVE",
"375 -10 CURVE SMOOTH",
"457 -10 OFFCURVE",
"530 11 OFFCURVE",
"554 20 CURVE",
"604 165 LINE",
"582 167 LINE",
"472 15 LINE",
"545 46 LINE",
"494 30 OFFCURVE",
"458 26 OFFCURVE",
"422 26 CURVE SMOOTH",
"192 26 OFFCURVE",
"109 206 OFFCURVE",
"142 387 CURVE SMOOTH",
"171 551 OFFCURVE",
"301 651 OFFCURVE",
"388 651 CURVE",
"331 657 LINE",
"298 645 LINE",
"500 645 OFFCURVE",
"586 595 OFFCURVE",
"622 576 CURVE",
"570 635 LINE",
"598 500 LINE",
"614 500 LINE",
"645 635 LINE",
"601 634 LINE",
"594 597 LINE",
"645 635 LINE",
"605 652 OFFCURVE",
"514 675 OFFCURVE",
"412 675 CURVE SMOOTH"
);
}
);
};
guideLines = (
{
angle = 80.594;
position = "{533, 42}";
}
);
layerId = "97AFB7C9-FE9A-4B33-96EF-7CD144DFB325";
paths = (
{
closed = 1;
nodes = (
"228 675 OFFCURVE",
"104 538 OFFCURVE",
"72 362 CURVE SMOOTH",
"36 159 OFFCURVE",
"149 -10 OFFCURVE",
"375 -10 CURVE SMOOTH",
"457 -10 OFFCURVE",
"530 11 OFFCURVE",
"554 20 CURVE",
"607 165 LINE",
"585 167 LINE",
"472 15 LINE",
"545 46 LINE",
"494 30 OFFCURVE",
"458 26 OFFCURVE",
"422 26 CURVE SMOOTH",
"192 26 OFFCURVE",
"109 206 OFFCURVE",
"142 387 CURVE SMOOTH",
"171 551 OFFCURVE",
"301 651 OFFCURVE",
"388 651 CURVE",
"331 657 LINE",
"298 645 LINE",
"500 645 OFFCURVE",
"602 587 OFFCURVE",
"622 576 CURVE",
"570 635 LINE",
"598 500 LINE",
"614 500 LINE",
"645 635 LINE",
"601 634 LINE",
"594 597 LINE",
"645 635 LINE",
"613 648 OFFCURVE",
"524 675 OFFCURVE",
"412 675 CURVE SMOOTH"
);
}
);
width = 645;
}
);
leftMetricsKey = O;
unicode = 0043;
},
{
glyphname = D;
lastChange = "2016-11-11 17:29:21 +0000";
layers = (
{
anchors = (
{
name = bottom;
position = "{295, 0}";
},
{
name = center;
position = "{190, 334}";
},
{
name = top;
position = "{375, 665}";
}
);
background = {
paths = (
{
closed = 1;
nodes = (
"84 0 LINE",
"149 0 LINE",
"258 658 LINE",
"193 658 LINE"
);
},
{
closed = 1;
nodes = (
"227 632 LINE",
"189 658 LINE",
"112 665 LINE",
"110 651 LINE",
"216 614 LINE"
);
},
{
closed = 1;
nodes = (
"18 13 LINE",
"20 -1 LINE",
"78 0 LINE",
"131 30 LINE",
"131 55 LINE"
);
},
{
closed = 1;
nodes = (
"172 668 OFFCURVE",
"112 665 OFFCURVE",
"112 665 CURVE",
"110 651 LINE",
"186 642 LINE",
"191 639 LINE",
"216 644 OFFCURVE",
"206 642 OFFCURVE",
"249 642 CURVE SMOOTH",
"464 642 OFFCURVE",
"578 559 OFFCURVE",
"578 371 CURVE SMOOTH",
"578 147 OFFCURVE",
"447 19 OFFCURVE",
"377 18 CURVE",
"406 10 LINE",
"436 29 LINE",
"318 29 OFFCURVE",
"140 32 OFFCURVE",
"107 34 CURVE",
"26 9 LINE",
"20 -1 LINE",
"50 -1 OFFCURVE",
"207 -4 OFFCURVE",
"349 -4 CURVE SMOOTH",
"527 -4 OFFCURVE",
"648 178 OFFCURVE",
"648 383 CURVE SMOOTH",
"648 581 OFFCURVE",
"519 668 OFFCURVE",
"291 668 CURVE SMOOTH"
);
}
);
};
guideLines = (
{
angle = 80.594;
position = "{580, 284}";
},
{
angle = 80.594;
position = "{259, 665}";
},
{
angle = 80.594;
position = "{194, 665}";
}
);
layerId = "97AFB7C9-FE9A-4B33-96EF-7CD144DFB325";
paths = (
{
closed = 1;
nodes = (
"84 0 LINE",
"149 0 LINE",
"258 658 LINE",
"193 658 LINE"
);
},
{
closed = 1;
nodes = (
"227 632 LINE",
"189 658 LINE",
"112 665 LINE",
"110 652 LINE",
"216 615 LINE"
);
},
{
closed = 1;
nodes = (
"18 13 LINE",
"20 -1 LINE",
"78 0 LINE",
"131 30 LINE",
"131 55 LINE"
);
},
{
closed = 1;
nodes = (
"172 668 OFFCURVE",
"112 665 OFFCURVE",
"112 665 CURVE",
"110 651 LINE",
"186 642 LINE",
"191 639 LINE",
"216 644 OFFCURVE",
"206 642 OFFCURVE",
"249 642 CURVE SMOOTH",
"464 642 OFFCURVE",
"578 559 OFFCURVE",
"578 371 CURVE SMOOTH",
"578 147 OFFCURVE",
"447 19 OFFCURVE",
"377 18 CURVE",
"406 10 LINE",
"436 29 LINE",
"318 29 OFFCURVE",
"140 32 OFFCURVE",
"107 34 CURVE",
"26 9 LINE",
"20 -1 LINE",
"50 -1 OFFCURVE",
"207 -4 OFFCURVE",
"349 -4 CURVE SMOOTH",
"527 -4 OFFCURVE",
"648 178 OFFCURVE",
"648 383 CURVE SMOOTH",
"648 581 OFFCURVE",
"519 668 OFFCURVE",
"291 668 CURVE SMOOTH"
);
}
);
width = 677;
},
{
associatedMasterId = "97AFB7C9-FE9A-4B33-96EF-7CD144DFB325";
background = {
paths = (
{
closed = 1;
nodes = (
"84 0 LINE",
"149 0 LINE",
"258 658 LINE",
"193 658 LINE"
);
},
{
closed = 1;
nodes = (
"227 632 LINE",
"189 658 LINE",
"112 665 LINE",
"110 652 LINE",
"216 615 LINE"
);
},
{
closed = 1;
nodes = (
"18 13 LINE",
"20 -1 LINE",
"78 0 LINE",
"131 30 LINE",
"131 55 LINE"
);
},
{
closed = 1;
nodes = (
"172 668 OFFCURVE",
"112 665 OFFCURVE",
"112 665 CURVE",
"110 651 LINE",
"186 642 LINE",
"191 639 LINE",
"216 644 OFFCURVE",
"206 642 OFFCURVE",
"249 642 CURVE SMOOTH",
"464 642 OFFCURVE",
"578 559 OFFCURVE",
"578 371 CURVE SMOOTH",
"578 147 OFFCURVE",
"447 19 OFFCURVE",
"377 18 CURVE",
"406 10 LINE",
"436 29 LINE",
"318 29 OFFCURVE",
"140 32 OFFCURVE",
"107 34 CURVE",
"26 9 LINE",
"20 -1 LINE",
"50 -1 OFFCURVE",
"207 -4 OFFCURVE",
"349 -4 CURVE SMOOTH",
"527 -4 OFFCURVE",
"648 178 OFFCURVE",
"648 383 CURVE SMOOTH",
"648 581 OFFCURVE",
"519 668 OFFCURVE",
"291 668 CURVE SMOOTH"
);
}
);
};
layerId = "CCA5E9FB-6E1D-49FC-8986-621246D1CDE0";
name = "SemiBold Italic Oct 13 16, 12:38";
paths = (
{
closed = 1;
nodes = (
"84 0 LINE",
"149 0 LINE",
"258 658 LINE",
"193 658 LINE"
);
},
{
closed = 1;
nodes = (
"227 632 LINE",
"189 658 LINE",
"112 665 LINE",
"110 652 LINE",
"216 615 LINE"
);
},
{
closed = 1;
nodes = (
"18 13 LINE",
"20 -1 LINE",
"78 0 LINE",
"131 30 LINE",
"131 55 LINE"
);
},
{
closed = 1;
nodes = (
"172 668 OFFCURVE",
"112 665 OFFCURVE",
"112 665 CURVE",
"110 651 LINE",
"186 642 LINE",
"191 639 LINE",
"216 644 OFFCURVE",
"206 642 OFFCURVE",
"249 642 CURVE SMOOTH",
"464 642 OFFCURVE",
"578 559 OFFCURVE",
"578 371 CURVE SMOOTH",
"578 147 OFFCURVE",
"447 19 OFFCURVE",
"377 18 CURVE",
"406 10 LINE",
"436 29 LINE",
"318 29 OFFCURVE",
"140 32 OFFCURVE",
"107 34 CURVE",
"26 9 LINE",
"20 -1 LINE",
"50 -1 OFFCURVE",
"207 -4 OFFCURVE",
"349 -4 CURVE SMOOTH",
"527 -4 OFFCURVE",
"648 178 OFFCURVE",
"648 383 CURVE SMOOTH",
"648 581 OFFCURVE",
"519 668 OFFCURVE",
"291 668 CURVE SMOOTH"
);
}
);
width = 679;
}
);
leftMetricsKey = E;
unicode = 0044;
},
{
glyphname = E;
lastChange = "2016-11-11 17:29:21 +0000";
layers = (
{
anchors = (
{
name = bottom;
position = "{315, 0}";
},
{
name = ogonek;
position = "{471, 9}";
},
{
name = top;
position = "{367, 665}";
},
{
name = topleft;
position = "{96, 665}";
}
);
background = {
paths = (
{
closed = 1;
nodes = (
"83 1 LINE",
"149 1 LINE",
"259 665 LINE",
"193 665 LINE"
);
},
{
closed = 1;
nodes = (
"430 317 LINE",
"420 323 LINE",
"434 231 LINE",
"453 231 LINE",
"488 432 LINE",
"469 432 LINE",
"420 347 LINE",
"431 353 LINE",
"190 345 LINE",
"190 325 LINE"
);
},
{
closed = 1;
nodes = (
"18 13 LINE",
"20 -2 LINE",
"89 1 LINE",
"138 29 LINE",
"138 58 LINE"
);
},
{
closed = 1;
nodes = (
"235 636 LINE",
"197 665 LINE",
"112 667 LINE",
"110 652 LINE",
"235 608 LINE"
);
},
{
closed = 1;
nodes = (
"29 0 LINE",
"188 0 LINE SMOOTH",
"304 0 OFFCURVE",
"451 0 OFFCURVE",
"482 0 CURVE",
"495 31 LINE",
"466 30 OFFCURVE",
"218 30 OFFCURVE",
"103 30 CURVE",
"101 30 LINE"
);
},
{
closed = 1;
nodes = (
"494 0 LINE",
"522 134 LINE",
"505 134 LINE",
"424 13 LINE",
"438 5 LINE",
"449 0 LINE"
);
},
{
closed = 1;
nodes = (
"209 635 LINE",
"317 635 OFFCURVE",
"537 635 OFFCURVE",
"566 634 CURVE",
"555 665 LINE",
"524 665 OFFCURVE",
"407 665 OFFCURVE",
"287 665 CURVE SMOOTH",
"121 665 LINE",
"200 635 LINE"
);
},
{
closed = 1;
nodes = (
"508 660 LINE",
"514 652 LINE",
"534 531 LINE",
"551 531 LINE",
"581 667 LINE",
"536 665 LINE"
);
}
);
};
guideLines = (
{
angle = 80.594;
position = "{259, 665}";
},
{
angle = 80.594;
position = "{193, 665}";
}
);
layerId = "97AFB7C9-FE9A-4B33-96EF-7CD144DFB325";
paths = (
{
closed = 1;
nodes = (
"83 1 LINE",
"149 1 LINE",
"259 665 LINE",
"193 665 LINE"
);
},
{
closed = 1;
nodes = (
"432 317 LINE",
"422 323 LINE",
"436 231 LINE",
"455 231 LINE",
"490 432 LINE",
"471 432 LINE",
"422 347 LINE",
"433 353 LINE",
"190 345 LINE",
"190 325 LINE"
);
},
{
closed = 1;
nodes = (
"18 13 LINE",
"20 -2 LINE",
"89 1 LINE",
"138 29 LINE",
"138 58 LINE"
);
},
{
closed = 1;
nodes = (
"235 636 LINE",
"197 665 LINE",
"112 667 LINE",
"110 652 LINE",
"235 608 LINE"
);
},
{
closed = 1;
nodes = (
"29 0 LINE",
"188 0 LINE SMOOTH",
"304 0 OFFCURVE",
"451 0 OFFCURVE",
"482 0 CURVE",
"495 31 LINE",
"466 30 OFFCURVE",
"218 30 OFFCURVE",
"103 30 CURVE",
"101 30 LINE"
);
},
{
closed = 1;
nodes = (
"494 0 LINE",
"522 134 LINE",
"505 134 LINE",
"424 13 LINE",
"438 5 LINE",
"449 0 LINE"
);
},
{
closed = 1;
nodes = (
"209 635 LINE",
"317 635 OFFCURVE",
"539 635 OFFCURVE",
"568 634 CURVE",
"557 665 LINE",
"526 665 OFFCURVE",
"409 665 OFFCURVE",
"287 665 CURVE SMOOTH",
"121 665 LINE",
"200 635 LINE"
);
},
{
closed = 1;
nodes = (
"510 660 LINE",
"516 652 LINE",
"536 531 LINE",
"553 531 LINE",
"583 667 LINE",
"538 665 LINE"
);
}
);
width = 574;
}
);
unicode = 0045;
},
{
glyphname = F;
lastChange = "2016-11-11 17:29:21 +0000";
layers = (
{
background = {
paths = (
{
closed = 1;
nodes = (
"112 27 LINE",
"145 0 LINE",
"253 -2 LINE",
"257 13 LINE",
"112 53 LINE"
);
},
{
closed = 1;
nodes = (
"84 0 LINE",
"133 27 LINE",
"133 55 LINE",
"18 13 LINE",
"20 -2 LINE"
);
},
{
closed = 1;
nodes = (
"83 0 LINE",
"149 0 LINE",
"259 665 LINE",
"193 665 LINE"
);
},
{
closed = 1;
nodes = (
"235 636 LINE",
"197 665 LINE",
"112 667 LINE",
"110 652 LINE",
"235 608 LINE"
);
},
{
closed = 1;
nodes = (
"420 304 LINE",
"411 311 LINE",
"424 219 LINE",
"443 219 LINE",
"478 420 LINE",
"459 420 LINE",
"411 335 LINE",
"421 341 LINE",
"186 333 LINE",
"186 313 LINE"
);
},
{
closed = 1;
nodes = (
"209 635 LINE",
"317 635 OFFCURVE",
"527 635 OFFCURVE",
"556 634 CURVE",
"545 665 LINE",
"514 665 OFFCURVE",
"397 665 OFFCURVE",
"277 665 CURVE SMOOTH",
"121 665 LINE",
"200 635 LINE"
);
},
{
closed = 1;
nodes = (
"498 660 LINE",
"504 652 LINE",
"524 531 LINE",
"541 531 LINE",
"571 665 LINE",
"526 665 LINE"
);
}
);
};
guideLines = (
{
angle = 80.594;
position = "{259, 665}";
},
{
angle = 80.594;
position = "{193, 665}";
}
);
layerId = "97AFB7C9-FE9A-4B33-96EF-7CD144DFB325";
paths = (
{
closed = 1;
nodes = (
"112 27 LINE",
"145 0 LINE",
"253 -2 LINE",
"257 13 LINE",
"112 53 LINE"
);
},
{
closed = 1;
nodes = (
"84 0 LINE",
"133 27 LINE",
"133 56 LINE",
"18 13 LINE",
"20 -2 LINE"
);
},
{
closed = 1;
nodes = (
"83 0 LINE",
"149 0 LINE",
"259 665 LINE",
"193 665 LINE"
);
},
{
closed = 1;
nodes = (
"235 636 LINE",
"197 665 LINE",
"112 667 LINE",
"110 652 LINE",
"235 608 LINE"
);
},
{
closed = 1;
nodes = (
"426 304 LINE",
"417 311 LINE",
"430 219 LINE",
"449 219 LINE",
"484 420 LINE",
"465 420 LINE",
"417 335 LINE",
"427 341 LINE",
"186 333 LINE",
"186 313 LINE"
);
},
{
closed = 1;
nodes = (
"209 635 LINE",
"317 635 OFFCURVE",
"533 635 OFFCURVE",
"562 634 CURVE",
"551 665 LINE",
"520 665 OFFCURVE",
"403 665 OFFCURVE",
"277 665 CURVE SMOOTH",
"121 665 LINE",
"200 635 LINE"
);
},
{
closed = 1;
nodes = (
"504 660 LINE",
"510 652 LINE",
"530 531 LINE",
"547 531 LINE",
"577 665 LINE",
"532 665 LINE"
);
}
);
width = 541;
}
);
leftMetricsKey = E;
rightMetricsKey = E;
unicode = 0046;
},
{
glyphname = G;
lastChange = "2016-11-11 17:31:47 +0000";
layers = (
{
anchors = (
{
name = bottom;
position = "{365, 0}";
},
{
name = top;
position = "{435, 665}";
}
);
background = {
paths = (
{
closed = 1;
nodes = (
"533 294 LINE",
"488 27 LINE",
"557 34 LINE",
"600 294 LINE"
);
},
{
closed = 1;
nodes = (
"568 267 LINE",
"538 294 LINE",
"413 296 LINE",
"411 280 LINE",
"560 244 LINE"
);
},
{
closed = 1;
nodes = (
"654 280 LINE",
"651 296 LINE",
"600 294 LINE",
"550 267 LINE",
"555 239 LINE"
);
},
{
closed = 1;
nodes = (
"228 675 OFFCURVE",
"101 538 OFFCURVE",
"72 362 CURVE SMOOTH",
"38 159 OFFCURVE",
"149 -10 OFFCURVE",
"378 -10 CURVE SMOOTH",
"497 -10 OFFCURVE",
"584 30 OFFCURVE",
"608 40 CURVE",
"604 59 LINE",
"554 43 OFFCURVE",
"478 26 OFFCURVE",
"414 26 CURVE SMOOTH",
"198 26 OFFCURVE",
"111 204 OFFCURVE",
"142 387 CURVE SMOOTH",
"169 552 OFFCURVE",
"302 651 OFFCURVE",
"388 651 CURVE",
"331 657 LINE",
"298 645 LINE",
"511 645 OFFCURVE",
"604 588 OFFCURVE",
"621 573 CURVE",
"580 632 LINE",
"608 498 LINE",
"624 498 LINE",
"655 632 LINE",
"611 631 LINE",
"595 595 LINE",
"655 632 LINE",
"615 650 OFFCURVE",
"527 675 OFFCURVE",
"411 675 CURVE SMOOTH"
);
}
);
};
guideLines = (
{
angle = 80.594;
position = "{75, 362}";
}
);
layerId = "97AFB7C9-FE9A-4B33-96EF-7CD144DFB325";
paths = (
{
closed = 1;
nodes = (
"533 294 LINE",
"488 27 LINE",
"557 34 LINE",
"600 294 LINE"
);
},
{
closed = 1;
nodes = (
"568 267 LINE",
"538 294 LINE",
"413 296 LINE",
"411 280 LINE",
"560 244 LINE"
);
},
{
closed = 1;
nodes = (
"654 280 LINE",
"651 296 LINE",
"600 294 LINE",
"550 267 LINE",
"555 239 LINE"
);
},
{
closed = 1;
nodes = (
"228 675 OFFCURVE",
"101 538 OFFCURVE",
"72 362 CURVE SMOOTH",
"38 159 OFFCURVE",
"149 -10 OFFCURVE",
"378 -10 CURVE SMOOTH",
"497 -10 OFFCURVE",
"584 30 OFFCURVE",
"608 40 CURVE",
"604 59 LINE",
"554 43 OFFCURVE",
"478 26 OFFCURVE",
"414 26 CURVE SMOOTH",
"198 26 OFFCURVE",
"111 204 OFFCURVE",
"142 387 CURVE SMOOTH",
"169 552 OFFCURVE",
"302 651 OFFCURVE",
"388 651 CURVE",
"331 657 LINE",
"298 645 LINE",
"511 645 OFFCURVE",
"604 588 OFFCURVE",
"621 573 CURVE",
"580 632 LINE",
"608 498 LINE",
"624 498 LINE",
"655 632 LINE",
"611 631 LINE",
"595 595 LINE",
"655 632 LINE",
"615 650 OFFCURVE",
"527 675 OFFCURVE",
"411 675 CURVE SMOOTH"
);
}
);
width = 687;
}
);
leftMetricsKey = C;
unicode = 0047;
},
{
glyphname = H;
lastChange = "2016-11-11 17:29:21 +0000";
layers = (
{
anchors = (
{
name = bottom;
position = "{332, 0}";
},
{
name = center;
position = "{418, 516}";
},
{
name = top;
position = "{442, 665}";
},
{
name = topleft;
position = "{99, 665}";
}
);
background = {
paths = (
{
closed = 1;
nodes = (
"608 327 LINE",
"614 353 LINE",
"165 353 LINE",
"159 327 LINE"
);
},
{
closed = 1;
nodes = (
"231 638 LINE",
"199 665 LINE",
"116 667 LINE",
"114 652 LINE",
"229 611 LINE"
);
},
{
closed = 1;
nodes = (
"330 652 LINE",
"328 667 LINE",
"261 665 LINE",
"212 638 LINE",
"227 619 LINE"
);
},
{
closed = 1;
nodes = (
"130 27 LINE",
"148 0 LINE",
"228 -2 LINE",
"230 13 LINE",
"130 48 LINE"
);
},
{
closed = 1;
nodes = (
"14 13 LINE",
"16 -2 LINE",
"86 0 LINE",
"149 27 LINE",
"149 54 LINE"
);
},
{
closed = 1;
nodes = (
"83 0 LINE",
"149 0 LINE",
"260 665 LINE",
"193 665 LINE"
);
},
{
closed = 1;
nodes = (
"667 638 LINE",
"635 665 LINE",
"552 667 LINE",
"550 652 LINE",
"665 611 LINE"
);
},
{
closed = 1;
nodes = (
"766 652 LINE",
"764 667 LINE",
"697 665 LINE",
"648 638 LINE",
"663 619 LINE"
);
},
{
closed = 1;
nodes = (
"566 27 LINE",
"584 0 LINE",
"664 -2 LINE",
"666 13 LINE",
"566 48 LINE"
);
},
{
closed = 1;
nodes = (
"450 13 LINE",
"452 -2 LINE",
"522 0 LINE",
"585 27 LINE",
"585 54 LINE"
);
},
{
closed = 1;
nodes = (
"521 0 LINE",
"587 0 LINE",
"696 665 LINE",
"629 665 LINE"
);
}
);
};
guideLines = (
{
angle = 80.594;
position = "{259, 665}";
},
{
angle = 80.594;
position = "{193, 665}";
},
{
angle = 80.594;
position = "{696, 665}";
},
{
angle = 80.594;
position = "{630, 665}";
}
);
layerId = "97AFB7C9-FE9A-4B33-96EF-7CD144DFB325";
paths = (
{
closed = 1;
nodes = (
"608 327 LINE",
"614 353 LINE",
"165 353 LINE",
"159 327 LINE"
);
},
{
closed = 1;
nodes = (
"231 638 LINE",
"199 665 LINE",
"116 667 LINE",
"114 652 LINE",
"229 611 LINE"
);
},
{
closed = 1;
nodes = (
"330 652 LINE",
"328 667 LINE",
"256 665 LINE",
"212 638 LINE",
"227 619 LINE"
);
},
{
closed = 1;
nodes = (
"130 27 LINE",
"148 0 LINE",
"228 -2 LINE",
"230 13 LINE",
"130 48 LINE"
);
},
{
closed = 1;
nodes = (
"14 13 LINE",
"16 -2 LINE",
"86 0 LINE",
"149 27 LINE",
"149 54 LINE"
);
},
{
closed = 1;
nodes = (
"83 0 LINE",
"149 0 LINE",
"259 665 LINE",
"193 665 LINE"
);
},
{
closed = 1;
nodes = (
"667 638 LINE",
"635 665 LINE",
"552 667 LINE",
"550 652 LINE",
"665 611 LINE"
);
},
{
closed = 1;
nodes = (
"766 652 LINE",
"764 667 LINE",
"693 665 LINE",
"648 638 LINE",
"663 619 LINE"
);
},
{
closed = 1;
nodes = (
"566 27 LINE",
"584 0 LINE",
"664 -2 LINE",
"666 13 LINE",
"566 48 LINE"
);
},
{
closed = 1;
nodes = (
"450 13 LINE",
"452 -2 LINE",
"522 0 LINE",
"585 27 LINE",
"585 54 LINE"
);
},
{
closed = 1;
nodes = (
"520 0 LINE",
"586 0 LINE",
"696 665 LINE",
"630 665 LINE"
);
}
);
width = 745;
}
);
unicode = 0048;
},
{
glyphname = I;
lastChange = "2016-11-11 17:29:21 +0000";
layers = (
{
anchors = (
{
name = bottom;
position = "{115, 0}";
},
{
name = ogonek;
position = "{143, 9}";
},
{
name = top;
position = "{225, 665}";
},
{
name = topleft;
position = "{98, 665}";
}
);
background = {
paths = (
{
closed = 1;
nodes = (
"231 638 LINE",
"199 665 LINE",
"116 667 LINE",
"114 652 LINE",
"229 611 LINE"
);
},
{
closed = 1;
nodes = (
"330 652 LINE",
"328 667 LINE",
"255 665 LINE",
"212 638 LINE",
"227 619 LINE"
);
},
{
closed = 1;
nodes = (
"130 27 LINE",
"148 0 LINE",
"228 -2 LINE",
"230 13 LINE",
"130 48 LINE"
);
},
{
closed = 1;
nodes = (
"14 13 LINE",
"16 -2 LINE",
"86 0 LINE",
"149 27 LINE",
"149 54 LINE"
);
},
{
closed = 1;
nodes = (
"84 0 LINE",
"150 0 LINE",
"260 665 LINE",
"194 665 LINE"
);
}
);
};
guideLines = (
{
angle = 80.594;
position = "{194, 665}";
},
{
angle = 80.594;
position = "{260, 665}";
}
);
layerId = "97AFB7C9-FE9A-4B33-96EF-7CD144DFB325";
paths = (
{
closed = 1;
nodes = (
"231 638 LINE",
"199 665 LINE",
"116 667 LINE",
"114 652 LINE",
"229 611 LINE"
);
},
{
closed = 1;
nodes = (
"330 652 LINE",
"328 667 LINE",
"255 665 LINE",
"212 638 LINE",
"227 619 LINE"
);
},
{
closed = 1;
nodes = (
"130 27 LINE",
"148 0 LINE",
"228 -2 LINE",
"230 13 LINE",
"130 48 LINE"
);
},
{
closed = 1;
nodes = (
"14 13 LINE",
"16 -2 LINE",
"86 0 LINE",
"149 27 LINE",
"149 54 LINE"
);
},
{
closed = 1;
nodes = (
"84 0 LINE",
"150 0 LINE",
"260 665 LINE",
"194 665 LINE"
);
}
);
width = 309;
}
);
leftMetricsKey = H;
rightMetricsKey = H;
unicode = 0049;
},
{
glyphname = J;
lastChange = "2016-11-11 17:29:21 +0000";
layers = (
{
background = {
paths = (
{
closed = 1;
nodes = (
"196 665 LINE",
"103 104 LINE SMOOTH",
"79 -42 OFFCURVE",
"41 -80 OFFCURVE",
"-46 -150 CURVE",
"-33 -168 LINE",
"51 -121 OFFCURVE",
"140 -65 OFFCURVE",
"163 72 CURVE SMOOTH",
"262 665 LINE"
);
},
{
closed = 1;
nodes = (
"231 633 LINE",
"198 665 LINE",
"118 667 LINE",
"116 652 LINE",
"231 611 LINE"
);
},
{
closed = 1;
nodes = (
"332 652 LINE",
"330 667 LINE",
"260 665 LINE",
"212 633 LINE",
"212 614 LINE"
);
}
);
};
guideLines = (
{
angle = 80.594;
position = "{262, 665}";
},
{
angle = 80.594;
position = "{196, 665}";
}
);
layerId = "97AFB7C9-FE9A-4B33-96EF-7CD144DFB325";
paths = (
{
closed = 1;
nodes = (
"196 665 LINE",
"103 104 LINE SMOOTH",
"79 -42 OFFCURVE",
"41 -80 OFFCURVE",
"-46 -150 CURVE",
"-33 -168 LINE",
"51 -121 OFFCURVE",
"140 -65 OFFCURVE",
"163 72 CURVE SMOOTH",
"262 665 LINE"
);
},
{
closed = 1;
nodes = (
"231 633 LINE",
"198 665 LINE",
"118 667 LINE",
"116 652 LINE",
"231 611 LINE"
);
},
{
closed = 1;
nodes = (
"332 652 LINE",
"330 667 LINE",
"260 665 LINE",
"212 633 LINE",
"212 614 LINE"
);
}
);
width = 299;
}
);
unicode = 004A;
},
{
glyphname = K;
lastChange = "2016-11-11 17:29:21 +0000";
layers = (
{
anchors = (
{
name = bottom;
position = "{304, 0}";
},
{
name = top;
position = "{394, 665}";
}
);
background = {
anchors = (
{
name = bottom;
position = "{304, 0}";
},
{
name = top;
position = "{394, 665}";
}
);
paths = (
{
closed = 1;
nodes = (
"224 638 LINE",
"192 665 LINE",
"110 667 LINE",
"108 652 LINE",
"222 611 LINE"
);
},
{
closed = 1;
nodes = (
"324 652 LINE",
"322 667 LINE",
"254 665 LINE",
"205 638 LINE",
"220 619 LINE"
);
},
{
closed = 1;
nodes = (
"123 27 LINE",
"141 0 LINE",
"222 -2 LINE",
"224 13 LINE",
"123 48 LINE"
);
},
{
closed = 1;
nodes = (
"8 13 LINE",
"10 -2 LINE",
"79 0 LINE",
"142 27 LINE",
"142 54 LINE"
);
},
{
closed = 1;
nodes = (
"287 339 LINE",
"622 665 LINE",
"571 657 LINE",
"545 662 LINE",
"251 332 LINE"
);
},
{
closed = 1;
nodes = (
"78 0 LINE",
"144 0 LINE",
"254 665 LINE",
"188 665 LINE"
);
},
{
closed = 1;
nodes = (
"440 -2 LINE",
"507 17 LINE",
"305 369 LINE",
"251 332 LINE"
);
},
{
closed = 1;
nodes = (
"443 34 LINE",
"440 -2 LINE",
"440 -2 OFFCURVE",
"481 0 OFFCURVE",
"504 0 CURVE SMOOTH",
"536 0 OFFCURVE",
"586 -2 OFFCURVE",
"586 -2 CURVE",
"588 14 LINE",
"456 57 LINE"
);
},
{
closed = 1;
nodes = (
"685 652 LINE",
"683 667 LINE",
"683 667 OFFCURVE",
"641 665 OFFCURVE",
"578 665 CURVE SMOOTH",
"545 665 OFFCURVE",
"484 668 OFFCURVE",
"471 668 CURVE",
"469 653 LINE",
"542 619 LINE",
"539 609 LINE"
);
}
);
};
layerId = "97AFB7C9-FE9A-4B33-96EF-7CD144DFB325";
paths = (
{
closed = 1;
nodes = (
"224 638 LINE",
"192 665 LINE",
"107 667 LINE",
"105 652 LINE",
"222 611 LINE"
);
},
{
closed = 1;
nodes = (
"324 652 LINE",
"322 667 LINE",
"254 665 LINE",
"205 638 LINE",
"220 619 LINE"
);
},
{
closed = 1;
nodes = (
"123 27 LINE",
"141 0 LINE",
"222 -2 LINE",
"224 13 LINE",
"123 48 LINE"
);
},
{
closed = 1;
nodes = (
"8 13 LINE",
"10 -2 LINE",
"79 0 LINE",
"142 27 LINE",
"142 56 LINE"
);
},
{
closed = 1;
nodes = (
"287 339 LINE",
"622 665 LINE",
"571 657 LINE",
"545 662 LINE",
"251 332 LINE"
);
},
{
closed = 1;
nodes = (
"78 0 LINE",
"144 0 LINE",
"254 665 LINE",
"188 665 LINE"
);
},
{
closed = 1;
nodes = (
"440 -2 LINE",
"507 17 LINE",
"305 369 LINE",
"251 332 LINE"
);
},
{
closed = 1;
nodes = (
"443 34 LINE",
"440 -2 LINE",
"440 -2 OFFCURVE",
"481 0 OFFCURVE",
"504 0 CURVE SMOOTH",
"536 0 OFFCURVE",
"586 -2 OFFCURVE",
"586 -2 CURVE",
"588 14 LINE",
"456 57 LINE"
);
},
{
closed = 1;
nodes = (
"672 652 LINE",
"670 667 LINE",
"670 667 OFFCURVE",
"641 665 OFFCURVE",
"578 665 CURVE SMOOTH",
"545 665 OFFCURVE",
"484 668 OFFCURVE",
"471 668 CURVE",
"469 653 LINE",
"542 619 LINE",
"539 609 LINE"
);
}
);
width = 632;
}
);
unicode = 004B;
},
{
glyphname = L;
lastChange = "2016-11-11 17:29:21 +0000";
layers = (
{
anchors = (
{
name = bottom;
position = "{275, 0}";
},
{
name = center;
position = "{190, 333}";
},
{
name = top;
position = "{232, 665}";
},
{
name = topright;
position = "{442, 665}";
}
);
background = {
paths = (
{
closed = 1;
nodes = (
"227 638 LINE",
"195 665 LINE",
"115 667 LINE",
"113 652 LINE",
"227 611 LINE"
);
},
{
closed = 1;
nodes = (
"329 652 LINE",
"327 667 LINE",
"257 665 LINE",
"208 638 LINE",
"237 619 LINE"
);
},
{
closed = 1;
nodes = (
"83 0 LINE",
"149 1 LINE",
"259 665 LINE",
"193 665 LINE"
);
},
{
closed = 1;
nodes = (
"13 13 LINE",
"15 -1 LINE",
"89 0 LINE",
"138 27 LINE",
"138 52 LINE"
);
},
{
closed = 1;
nodes = (
"476 -2 LINE",
"516 150 LINE",
"499 150 LINE",
"405 13 LINE",
"417 5 LINE",
"432 0 LINE"
);
},
{
closed = 1;
nodes = (
"26 0 LINE",
"188 0 LINE SMOOTH",
"304 0 OFFCURVE",
"437 0 OFFCURVE",
"468 0 CURVE",
"481 31 LINE",
"452 30 OFFCURVE",
"218 30 OFFCURVE",
"103 30 CURVE",
"101 30 LINE"
);
}
);
};
guideLines = (
{
angle = 80.594;
position = "{259, 665}";
},
{
angle = 80.594;
position = "{193, 665}";
}
);
layerId = "97AFB7C9-FE9A-4B33-96EF-7CD144DFB325";
paths = (
{
closed = 1;
nodes = (
"227 638 LINE",
"195 665 LINE",
"112 667 LINE",
"110 652 LINE",
"227 611 LINE"
);
},
{
closed = 1;
nodes = (
"329 652 LINE",
"327 667 LINE",
"257 665 LINE",
"208 638 LINE",
"237 619 LINE"
);
},
{
closed = 1;
nodes = (
"83 0 LINE",
"149 1 LINE",
"259 665 LINE",
"193 665 LINE"
);
},
{
closed = 1;
nodes = (
"18 13 LINE",
"20 -2 LINE",
"89 0 LINE",
"138 27 LINE",
"138 58 LINE"
);
},
{
closed = 1;
nodes = (
"476 -2 LINE",
"516 150 LINE",
"499 150 LINE",
"405 13 LINE",
"417 5 LINE",
"432 0 LINE"
);
},
{
closed = 1;
nodes = (
"31 0 LINE",
"188 0 LINE SMOOTH",
"304 0 OFFCURVE",
"437 0 OFFCURVE",
"468 0 CURVE",
"481 31 LINE",
"452 30 OFFCURVE",
"218 30 OFFCURVE",
"103 30 CURVE",
"101 30 LINE"
);
}
);
width = 555;
}
);
leftMetricsKey = E;
unicode = 004C;
},
{
glyphname = Lslash;
lastChange = "2016-11-11 17:29:21 +0000";
layers = (
{
anchors = (
{
name = _center;
position = "{196, 333}";
}
);
components = (
{
name = L;
transform = "{1, 0, 0, 1, 6, 0}";
}
);
layerId = "97AFB7C9-FE9A-4B33-96EF-7CD144DFB325";
paths = (
{
closed = 1;
nodes = (
"18 190 LINE",
"363 434 LINE",
"373 478 LINE",
"28 235 LINE"
);
}
);
width = 561;
}
);
rightMetricsKey = L;
unicode = 0141;
},
{
glyphname = M;
lastChange = "2016-11-11 17:30:48 +0000";
layers = (
{
background = {
paths = (
{
closed = 1;
nodes = (
"123 0 LINE",
"254 610 LINE",
"247 607 LINE",
"368 -10 LINE",
"391 3 OFFCURVE",
"408 24 OFFCURVE",
"425 59 CURVE SMOOTH",
"699 613 LINE",
"690 616 LINE",
"645 0 LINE",
"708 0 LINE",
"761 665 LINE",
"738 665 LINE",
"674 665 LINE",
"406 83 LINE",
"414 84 LINE",
"301 665 LINE",
"234 665 LINE",
"72 0 LINE"
);
},
{
closed = 1;
nodes = (
"670 27 LINE",
"703 0 LINE",
"772 -2 LINE",
"774 13 LINE",
"670 46 LINE"
);
},
{
closed = 1;
nodes = (
"584 13 LINE",
"586 -2 LINE",
"651 0 LINE",
"689 27 LINE",
"689 46 LINE"
);
},
{
closed = 1;
nodes = (
"96 27 LINE",
"97 0 LINE",
"187 -2 LINE",
"189 13 LINE",
"96 46 LINE"
);
},
{
closed = 1;
nodes = (
"12 13 LINE",
"14 -2 LINE",
"108 0 LINE",
"115 27 LINE",
"115 46 LINE"
);
},
{
closed = 1;
nodes = (
"831 652 LINE",
"829 667 LINE",
"829 667 OFFCURVE",
"797 665 OFFCURVE",
"758 665 CURVE",
"697 665 LINE",
"693 636 LINE",
"699 609 LINE"
);
},
{
closed = 1;
nodes = (
"300 638 LINE",
"302 665 LINE",
"229 665 LINE",
"197 665 OFFCURVE",
"154 667 OFFCURVE",
"154 667 CURVE",
"152 652 LINE",
"287 608 LINE"
);
}
);
};
guideLines = (
{
position = "{462, 590}";
}
);
layerId = "97AFB7C9-FE9A-4B33-96EF-7CD144DFB325";
paths = (
{
closed = 1;
nodes = (
"123 0 LINE",
"254 610 LINE",
"247 607 LINE",
"368 -10 LINE",
"391 3 OFFCURVE",
"408 24 OFFCURVE",
"425 59 CURVE SMOOTH",
"699 613 LINE",
"690 616 LINE",
"645 0 LINE",
"708 0 LINE",
"761 665 LINE",
"738 665 LINE",
"674 665 LINE",
"406 83 LINE",
"414 84 LINE",
"301 665 LINE",
"234 665 LINE",
"72 0 LINE"
);
},
{
closed = 1;
nodes = (
"831 652 LINE",
"829 667 LINE",
"829 667 OFFCURVE",
"797 665 OFFCURVE",
"758 665 CURVE",
"697 665 LINE",
"693 636 LINE",
"699 609 LINE"
);
},
{
closed = 1;
nodes = (
"300 638 LINE",
"302 665 LINE",
"229 665 LINE",
"197 665 OFFCURVE",
"154 667 OFFCURVE",
"154 667 CURVE",
"152 652 LINE",
"287 608 LINE"
);
},
{
closed = 1;
nodes = (
"686 27 LINE",
"704 0 LINE",
"787 -2 LINE",
"789 13 LINE",
"686 48 LINE"
);
},
{
closed = 1;
nodes = (
"573 13 LINE",
"575 -2 LINE",
"652 0 LINE",
"705 27 LINE",
"705 54 LINE"
);
},
{
closed = 1;
nodes = (
"106 27 LINE",
"124 0 LINE",
"214 -2 LINE",
"216 13 LINE",
"106 48 LINE"
);
},
{
closed = 1;
nodes = (
"0 13 LINE",
"2 -2 LINE",
"72 0 LINE",
"125 27 LINE",
"125 54 LINE"
);
}
);
width = 849;
},
{
associatedMasterId = "97AFB7C9-FE9A-4B33-96EF-7CD144DFB325";
layerId = "D72DBC4A-53A1-4216-985B-D24DF1B1131A";
name = "SemiBold Italic Oct 13 16, 15:58";
paths = (
{
closed = 1;
nodes = (
"121 0 LINE",
"252 610 LINE",
"245 607 LINE",
"366 -10 LINE",
"389 3 OFFCURVE",
"406 24 OFFCURVE",
"423 59 CURVE SMOOTH",
"697 613 LINE",
"688 616 LINE",
"643 0 LINE",
"706 0 LINE",
"759 665 LINE",
"736 665 LINE",
"672 665 LINE",
"404 83 LINE",
"412 84 LINE",
"299 665 LINE",
"232 665 LINE",
"70 0 LINE"
);
},
{
closed = 1;
nodes = (
"829 652 LINE",
"827 667 LINE",
"827 667 OFFCURVE",
"795 665 OFFCURVE",
"756 665 CURVE",
"695 665 LINE",
"691 636 LINE",
"697 609 LINE"
);
},
{
closed = 1;
nodes = (
"298 638 LINE",
"300 665 LINE",
"227 665 LINE",
"195 665 OFFCURVE",
"152 667 OFFCURVE",
"152 667 CURVE",
"150 652 LINE",
"285 608 LINE"
);
},
{
closed = 1;
nodes = (
"684 27 LINE",
"702 0 LINE",
"785 -2 LINE",
"787 13 LINE",
"684 48 LINE"
);
},
{
closed = 1;
nodes = (
"571 13 LINE",
"573 -2 LINE",
"650 0 LINE",
"703 27 LINE",
"703 54 LINE"
);
},
{
closed = 1;
nodes = (
"104 27 LINE",
"122 0 LINE",
"212 -2 LINE",
"214 13 LINE",
"104 48 LINE"
);
},
{
closed = 1;
nodes = (
"-2 13 LINE",
"0 -2 LINE",
"70 0 LINE",
"123 27 LINE",
"123 54 LINE"
);
}
);
width = 848;
}
);
unicode = 004D;
},
{
glyphname = N;
lastChange = "2016-11-11 17:29:21 +0000";
layers = (
{
anchors = (
{
name = bottom;
position = "{325, 0}";
},
{
name = top;
position = "{425, 665}";
}
);
background = {
paths = (
{
closed = 1;
nodes = (
"194 658 LINE",
"80 0 LINE",
"131 0 LINE",
"221 633 LINE"
);
},
{
closed = 1;
nodes = (
"658 633 LINE",
"656 665 LINE",
"539 667 LINE",
"537 652 LINE",
"658 609 LINE"
);
},
{
closed = 1;
nodes = (
"753 652 LINE",
"751 667 LINE",
"665 665 LINE",
"639 633 LINE",
"639 614 LINE"
);
},
{
closed = 1;
nodes = (
"103 27 LINE",
"114 0 LINE",
"223 -2 LINE",
"225 13 LINE",
"114 51 LINE"
);
},
{
closed = 1;
nodes = (
"9 13 LINE",
"11 -2 LINE",
"94 0 LINE",
"122 27 LINE",
"125 48 LINE"
);
},
{
closed = 1;
nodes = (
"569 -1 LINE",
"683 665 LINE",
"632 665 LINE",
"542 -1 LINE"
);
},
{
closed = 1;
nodes = (
"147 657 LINE",
"545 -10 LINE",
"569 -1 LINE",
"574 72 LINE",
"219 665 LINE",
"190 665 LINE"
);
},
{
closed = 1;
nodes = (
"218 638 LINE",
"217 665 LINE",
"204 664 OFFCURVE",
"185 665 OFFCURVE",
"162 665 CURVE SMOOTH",
"141 665 OFFCURVE",
"109 667 OFFCURVE",
"109 667 CURVE",
"103 652 LINE",
"218 608 LINE"
);
}
);
};
layerId = "97AFB7C9-FE9A-4B33-96EF-7CD144DFB325";
paths = (
{
closed = 1;
nodes = (
"194 658 LINE",
"80 0 LINE",
"131 0 LINE",
"221 633 LINE"
);
},
{
closed = 1;
nodes = (
"658 633 LINE",
"656 665 LINE",
"539 667 LINE",
"537 652 LINE",
"658 609 LINE"
);
},
{
closed = 1;
nodes = (
"753 652 LINE",
"751 667 LINE",
"665 665 LINE",
"639 633 LINE",
"639 614 LINE"
);
},
{
closed = 1;
nodes = (
"103 27 LINE",
"114 0 LINE",
"223 -2 LINE",
"225 13 LINE",
"114 51 LINE"
);
},
{
closed = 1;
nodes = (
"9 13 LINE",
"11 -2 LINE",
"94 0 LINE",
"122 27 LINE",
"125 48 LINE"
);
},
{
closed = 1;
nodes = (
"569 -1 LINE",
"683 665 LINE",
"632 665 LINE",
"542 -1 LINE"
);
},
{
closed = 1;
nodes = (
"147 657 LINE",
"545 -10 LINE",
"569 -1 LINE",
"574 72 LINE",
"219 665 LINE",
"190 665 LINE"
);
},
{
closed = 1;
nodes = (
"218 638 LINE",
"217 665 LINE",
"204 664 OFFCURVE",
"185 665 OFFCURVE",
"162 665 CURVE SMOOTH",
"141 665 OFFCURVE",
"109 667 OFFCURVE",
"109 667 CURVE",
"103 652 LINE",
"218 605 LINE"
);
}
);
width = 706;
}
);
unicode = 004E;
},
{
glyphname = Eng;
lastChange = "2016-11-11 17:29:21 +0000";
layers = (
{
background = {
paths = (
{
closed = 1;
nodes = (
"194 658 LINE",
"80 0 LINE",
"131 0 LINE",
"221 633 LINE"
);
},
{
closed = 1;
nodes = (
"658 633 LINE",
"656 665 LINE",
"539 667 LINE",
"537 652 LINE",
"658 609 LINE"
);
},
{
closed = 1;
nodes = (
"753 652 LINE",
"751 667 LINE",
"665 665 LINE",
"639 633 LINE",
"639 614 LINE"
);
},
{
closed = 1;
nodes = (
"103 27 LINE",
"114 0 LINE",
"223 -2 LINE",
"225 13 LINE",
"114 51 LINE"
);
},
{
closed = 1;
nodes = (
"9 13 LINE",
"11 -2 LINE",
"94 0 LINE",
"122 27 LINE",
"125 48 LINE"
);
},
{
closed = 1;
nodes = (
"569 -1 LINE",
"683 665 LINE",
"632 665 LINE",
"542 -1 LINE"
);
},
{
closed = 1;
nodes = (
"147 657 LINE",
"545 -10 LINE",
"569 -1 LINE",
"574 72 LINE",
"219 665 LINE",
"190 665 LINE"
);
},
{
closed = 1;
nodes = (
"218 638 LINE",
"217 665 LINE",
"204 664 OFFCURVE",
"185 665 OFFCURVE",
"162 665 CURVE SMOOTH",
"141 665 OFFCURVE",
"109 667 OFFCURVE",
"109 667 CURVE",
"103 652 LINE",
"218 608 LINE"
);
}
);
};
layerId = "97AFB7C9-FE9A-4B33-96EF-7CD144DFB325";
paths = (
{
closed = 1;
nodes = (
"632 665 LINE",
"555 93 LINE SMOOTH",
"538 -32 OFFCURVE",
"460 -101 OFFCURVE",
"391 -152 CURVE",
"407 -168 LINE",
"481 -128 OFFCURVE",
"560 -55 OFFCURVE",
"580 61 CURVE SMOOTH",
"683 665 LINE"
);
},
{
closed = 1;
nodes = (
"194 658 LINE",
"80 0 LINE",
"131 0 LINE",
"221 633 LINE"
);
},
{
closed = 1;
nodes = (
"664 638 LINE",
"662 665 LINE",
"539 667 LINE",
"537 652 LINE",
"664 606 LINE"
);
},
{
closed = 1;
nodes = (
"753 652 LINE",
"751 667 LINE",
"671 665 LINE",
"645 638 LINE",
"645 616 LINE"
);
},
{
closed = 1;
nodes = (
"101 27 LINE",
"112 0 LINE",
"223 -2 LINE",
"225 13 LINE",
"101 55 LINE"
);
},
{
closed = 1;
nodes = (
"9 13 LINE",
"11 -2 LINE",
"92 0 LINE",
"120 27 LINE",
"120 47 LINE"
);
},
{
closed = 1;
nodes = (
"580 61 LINE",
"683 665 LINE",
"632 665 LINE",
"542 -1 LINE"
);
},
{
closed = 1;
nodes = (
"147 657 LINE",
"538 3 LINE",
"562 27 LINE",
"573 75 LINE",
"219 665 LINE",
"190 665 LINE"
);
},
{
closed = 1;
nodes = (
"226 638 LINE",
"213 665 LINE",
"200 665 OFFCURVE",
"183 665 OFFCURVE",
"160 665 CURVE SMOOTH",
"139 665 OFFCURVE",
"109 667 OFFCURVE",
"109 667 CURVE",
"103 652 LINE",
"219 608 LINE"
);
}
);
width = 706;
}
);
leftMetricsKey = N;
rightMetricsKey = N;
unicode = 014A;
},
{
glyphname = O;
lastChange = "2016-11-11 17:29:21 +0000";
layers = (
{
anchors = (
{
name = bottom;
position = "{321, 0}";
},
{
name = center;
position = "{376, 333}";
},
{
name = ogonek;
position = "{472, 10}";
},
{
name = top;
position = "{424, 665}";
},
{
name = topleft;
position = "{99, 665}";
},
{
name = topright;
position = "{762, 665}";
}
);
background = {
paths = (
{
closed = 1;
nodes = (
"540 -10 OFFCURVE",
"649 126 OFFCURVE",
"682 302 CURVE SMOOTH",
"722 519 OFFCURVE",
"603 675 OFFCURVE",
"400 675 CURVE SMOOTH",
"216 675 OFFCURVE",
"102 538 OFFCURVE",
"71 362 CURVE SMOOTH",
"34 155 OFFCURVE",
"146 -10 OFFCURVE",
"354 -10 CURVE SMOOTH"
);
},
{
closed = 1;
nodes = (
"171 552 OFFCURVE",
"289 650 OFFCURVE",
"370 650 CURVE",
"327 659 LINE",
"288 644 LINE",
"542 655 OFFCURVE",
"651 495 OFFCURVE",
"612 284 CURVE SMOOTH",
"581 113 OFFCURVE",
"465 15 OFFCURVE",
"384 15 CURVE",
"426 6 LINE",
"465 21 LINE",
"177 11 OFFCURVE",
"107 206 OFFCURVE",
"141 387 CURVE SMOOTH"
);
}
);
};
guideLines = (
{
position = "{165, 341}";
},
{
angle = 80.594;
position = "{368, 333}";
},
{
angle = 97.9517;
position = "{377, 332}";
}
);
layerId = "97AFB7C9-FE9A-4B33-96EF-7CD144DFB325";
paths = (
{
closed = 1;
nodes = (
"585 -10 OFFCURVE",
"690 203 OFFCURVE",
"690 382 CURVE SMOOTH",
"690 544 OFFCURVE",
"589 675 OFFCURVE",
"400 675 CURVE SMOOTH",
"170 675 OFFCURVE",
"65 462 OFFCURVE",
"65 283 CURVE SMOOTH",
"65 121 OFFCURVE",
"166 -10 OFFCURVE",
"354 -10 CURVE SMOOTH"
);
},
{
closed = 1;
nodes = (
"135 489 OFFCURVE",
"259 650 OFFCURVE",
"370 650 CURVE",
"327 659 LINE",
"288 644 LINE",
"536 655 OFFCURVE",
"620 505 OFFCURVE",
"620 365 CURVE SMOOTH",
"620 176 OFFCURVE",
"496 15 OFFCURVE",
"384 15 CURVE",
"426 6 LINE",
"465 21 LINE",
"219 10 OFFCURVE",
"135 160 OFFCURVE",
"135 300 CURVE SMOOTH"
);
}
);
width = 717;
}
);
unicode = 004F;
},
{
glyphname = Oslash;
lastChange = "2016-11-11 17:29:21 +0000";
layers = (
{
background = {
paths = (
{
closed = 1;
nodes = (
"649 638 LINE",
"631 656 LINE",
"99 21 LINE",
"117 3 LINE"
);
}
);
};
components = (
{
name = O;
}
);
layerId = "97AFB7C9-FE9A-4B33-96EF-7CD144DFB325";
paths = (
{
closed = 1;
nodes = (
"655 644 LINE",
"636 663 LINE",
"93 15 LINE",
"112 -4 LINE"
);
}
);
width = 717;
}
);
unicode = 00D8;
},
{
glyphname = OE;
lastChange = "2016-11-11 17:29:21 +0000";
layers = (
{
background = {
paths = (
{
closed = 1;
nodes = (
"452 1 LINE",
"518 1 LINE",
"628 665 LINE",
"562 665 LINE"
);
},
{
closed = 1;
nodes = (
"797 317 LINE",
"787 323 LINE",
"801 231 LINE",
"820 231 LINE",
"855 432 LINE",
"836 432 LINE",
"787 347 LINE",
"798 353 LINE",
"559 345 LINE",
"559 325 LINE"
);
},
{
closed = 1;
nodes = (
"604 636 LINE",
"566 665 LINE",
"475 667 LINE",
"483 652 LINE",
"604 608 LINE"
);
},
{
closed = 1;
nodes = (
"395 0 LINE",
"557 0 LINE SMOOTH",
"673 0 OFFCURVE",
"816 0 OFFCURVE",
"847 0 CURVE",
"860 31 LINE",
"831 30 OFFCURVE",
"587 30 OFFCURVE",
"472 30 CURVE",
"470 30 LINE"
);
},
{
closed = 1;
nodes = (
"578 635 LINE",
"686 635 OFFCURVE",
"904 635 OFFCURVE",
"933 634 CURVE",
"920 665 LINE",
"889 665 OFFCURVE",
"774 665 OFFCURVE",
"656 665 CURVE SMOOTH",
"494 665 LINE",
"569 635 LINE"
);
},
{
closed = 1;
nodes = (
"610 628 LINE",
"562 656 OFFCURVE",
"497 671 OFFCURVE",
"408 671 CURVE SMOOTH",
"210 671 OFFCURVE",
"103 536 OFFCURVE",
"72 362 CURVE SMOOTH",
"35 157 OFFCURVE",
"146 -4 OFFCURVE",
"392 -4 CURVE SMOOTH",
"427 -4 OFFCURVE",
"500 -2 OFFCURVE",
"518 1 CURVE",
"513 39 LINE",
"512 55 LINE",
"501 51 LINE",
"472 27 LINE",
"172 17 OFFCURVE",
"108 207 OFFCURVE",
"141 386 CURVE SMOOTH",
"171 550 OFFCURVE",
"288 646 OFFCURVE",
"368 646 CURVE",
"325 655 LINE",
"287 640 LINE",
"430 645 OFFCURVE",
"518 624 OFFCURVE",
"574 614 CURVE",
"610 619 LINE"
);
},
{
closed = 1;
nodes = (
"858 -2 LINE",
"887 134 LINE",
"870 134 LINE",
"789 13 LINE",
"803 5 LINE",
"815 0 LINE"
);
},
{
closed = 1;
nodes = (
"873 660 LINE",
"879 652 LINE",
"901 531 LINE",
"918 531 LINE",
"947 667 LINE",
"901 665 LINE"
);
}
);
};
layerId = "97AFB7C9-FE9A-4B33-96EF-7CD144DFB325";
paths = (
{
closed = 1;
nodes = (
"452 1 LINE",
"518 1 LINE",
"628 665 LINE",
"562 665 LINE"
);
},
{
closed = 1;
nodes = (
"797 317 LINE",
"787 323 LINE",
"801 231 LINE",
"820 231 LINE",
"855 432 LINE",
"836 432 LINE",
"787 347 LINE",
"798 353 LINE",
"559 345 LINE",
"559 325 LINE"
);
},
{
closed = 1;
nodes = (
"604 636 LINE",
"566 665 LINE",
"475 667 LINE",
"483 652 LINE",
"604 608 LINE"
);
},
{
closed = 1;
nodes = (
"395 0 LINE",
"557 0 LINE SMOOTH",
"673 0 OFFCURVE",
"816 0 OFFCURVE",
"847 0 CURVE",
"860 31 LINE",
"831 30 OFFCURVE",
"587 30 OFFCURVE",
"472 30 CURVE",
"470 30 LINE"
);
},
{
closed = 1;
nodes = (
"578 635 LINE",
"686 635 OFFCURVE",
"904 635 OFFCURVE",
"933 634 CURVE",
"920 665 LINE",
"889 665 OFFCURVE",
"774 665 OFFCURVE",
"656 665 CURVE SMOOTH",
"494 665 LINE",
"569 635 LINE"
);
},
{
closed = 1;
nodes = (
"858 -2 LINE",
"887 134 LINE",
"870 134 LINE",
"789 13 LINE",
"803 5 LINE",
"815 0 LINE"
);
},
{
closed = 1;
nodes = (
"873 660 LINE",
"879 652 LINE",
"901 531 LINE",
"918 531 LINE",
"947 667 LINE",
"901 665 LINE"
);
},
{
closed = 1;
nodes = (
"610 628 LINE",
"562 656 OFFCURVE",
"497 671 OFFCURVE",
"408 671 CURVE SMOOTH",
"175 671 OFFCURVE",
"65 478 OFFCURVE",
"65 282 CURVE SMOOTH",
"65 114 OFFCURVE",
"184 -4 OFFCURVE",
"392 -4 CURVE SMOOTH",
"427 -4 OFFCURVE",
"500 -2 OFFCURVE",
"518 1 CURVE",
"513 39 LINE",
"512 55 LINE",
"501 51 LINE",
"472 27 LINE",
"214 18 OFFCURVE",
"133 156 OFFCURVE",
"133 310 CURVE SMOOTH",
"133 515 OFFCURVE",
"277 646 OFFCURVE",
"368 646 CURVE",
"325 655 LINE",
"287 640 LINE",
"430 645 OFFCURVE",
"518 624 OFFCURVE",
"574 614 CURVE",
"610 619 LINE"
);
}
);
width = 939;
}
);
leftMetricsKey = O;
rightMetricsKey = E;
unicode = 0152;
},
{
glyphname = P;
lastChange = "2016-11-11 17:29:21 +0000";
layers = (
{
background = {
paths = (
{
closed = 1;
nodes = (
"148 0 LINE",
"255 650 LINE",
"192 637 LINE",
"222 644 OFFCURVE",
"233 642 OFFCURVE",
"241 642 CURVE SMOOTH",
"387 642 OFFCURVE",
"470 593 OFFCURVE",
"470 486 CURVE SMOOTH",
"470 345 OFFCURVE",
"380 299 OFFCURVE",
"346 285 CURVE",
"399 305 LINE",
"183 297 LINE",
"176 300 LINE",
"170 277 LINE",
"187 274 OFFCURVE",
"274 267 OFFCURVE",
"320 267 CURVE SMOOTH",
"463 267 OFFCURVE",
"537 390 OFFCURVE",
"537 501 CURVE SMOOTH",
"537 626 OFFCURVE",
"438 668 OFFCURVE",
"263 668 CURVE SMOOTH",
"187 668 OFFCURVE",
"112 665 OFFCURVE",
"112 665 CURVE",
"188 642 LINE",
"82 0 LINE"
);
},
{
closed = 1;
nodes = (
"112 27 LINE",
"123 0 LINE",
"251 -2 LINE",
"254 13 LINE",
"125 49 LINE"
);
},
{
closed = 1;
nodes = (
"17 13 LINE",
"19 -1 LINE",
"103 0 LINE",
"131 27 LINE",
"131 54 LINE"
);
},
{
closed = 1;
nodes = (
"221 637 LINE",
"188 662 LINE",
"112 665 LINE",
"110 651 LINE",
"221 613 LINE"
);
}
);
};
guideLines = (
{
angle = 80.594;
position = "{467, 444}";
}
);
layerId = "97AFB7C9-FE9A-4B33-96EF-7CD144DFB325";
paths = (
{
closed = 1;
nodes = (
"148 0 LINE",
"255 650 LINE",
"192 637 LINE",
"241 642 LINE",
"387 642 OFFCURVE",
"470 593 OFFCURVE",
"470 486 CURVE SMOOTH",
"470 345 OFFCURVE",
"380 299 OFFCURVE",
"346 285 CURVE",
"399 305 LINE",
"183 297 LINE",
"176 300 LINE",
"170 277 LINE",
"187 274 OFFCURVE",
"274 267 OFFCURVE",
"320 267 CURVE SMOOTH",
"463 267 OFFCURVE",
"537 390 OFFCURVE",
"537 501 CURVE SMOOTH",
"537 626 OFFCURVE",
"438 668 OFFCURVE",
"263 668 CURVE SMOOTH",
"187 668 OFFCURVE",
"112 665 OFFCURVE",
"112 665 CURVE",
"188 642 LINE",
"82 0 LINE"
);
},
{
closed = 1;
nodes = (
"112 27 LINE",
"123 0 LINE",
"251 -2 LINE",
"254 13 LINE",
"125 49 LINE"
);
},
{
closed = 1;
nodes = (
"17 13 LINE",
"19 -1 LINE",
"103 0 LINE",
"131 27 LINE",
"131 54 LINE"
);
},
{
closed = 1;
nodes = (
"221 637 LINE",
"188 662 LINE",
"112 665 LINE",
"110 651 LINE",
"221 613 LINE"
);
}
);
width = 535;
}
);
leftMetricsKey = E;
unicode = 0050;
},
{
glyphname = Thorn;
lastChange = "2016-11-11 17:29:21 +0000";
layers = (
{
background = {
paths = (
{
closed = 1;
nodes = (
"328 652 LINE",
"325 667 LINE",
"224 665 LINE",
"207 638 LINE",
"207 619 LINE"
);
},
{
closed = 1;
nodes = (
"148 0 LINE",
"257 665 LINE",
"192 665 LINE",
"82 0 LINE"
);
},
{
closed = 1;
nodes = (
"112 27 LINE",
"124 0 LINE",
"236 -2 LINE",
"238 13 LINE",
"129 46 LINE"
);
},
{
closed = 1;
nodes = (
"17 13 LINE",
"19 -2 LINE",
"103 0 LINE",
"131 27 LINE",
"131 54 LINE"
);
},
{
closed = 1;
nodes = (
"221 637 LINE",
"224 665 LINE",
"112 667 LINE",
"110 652 LINE",
"221 613 LINE"
);
},
{
closed = 1;
nodes = (
"188 528 LINE",
"222 528 LINE SMOOTH",
"381 528 OFFCURVE",
"451 469 OFFCURVE",
"451 372 CURVE SMOOTH",
"451 231 OFFCURVE",
"361 185 OFFCURVE",
"327 171 CURVE",
"380 191 LINE",
"164 183 LINE",
"157 186 LINE",
"151 163 LINE",
"168 160 OFFCURVE",
"245 153 OFFCURVE",
"301 153 CURVE SMOOTH",
"434 153 OFFCURVE",
"518 264 OFFCURVE",
"518 387 CURVE SMOOTH",
"518 502 OFFCURVE",
"435 554 OFFCURVE",
"244 554 CURVE SMOOTH",
"222 554 LINE"
);
}
);
};
layerId = "97AFB7C9-FE9A-4B33-96EF-7CD144DFB325";
paths = (
{
closed = 1;
nodes = (
"328 652 LINE",
"325 667 LINE",
"224 665 LINE",
"207 638 LINE",
"227 619 LINE"
);
},
{
closed = 1;
nodes = (
"148 0 LINE",
"257 665 LINE",
"192 665 LINE",
"82 0 LINE"
);
},
{
closed = 1;
nodes = (
"112 27 LINE",
"124 0 LINE",
"236 -2 LINE",
"238 13 LINE",
"129 46 LINE"
);
},
{
closed = 1;
nodes = (
"17 13 LINE",
"19 -2 LINE",
"103 0 LINE",
"131 27 LINE",
"131 54 LINE"
);
},
{
closed = 1;
nodes = (
"221 637 LINE",
"224 665 LINE",
"112 667 LINE",
"110 652 LINE",
"221 613 LINE"
);
},
{
closed = 1;
nodes = (
"187 522 LINE",
"221 522 LINE SMOOTH",
"380 522 OFFCURVE",
"450 463 OFFCURVE",
"450 366 CURVE SMOOTH",
"450 225 OFFCURVE",
"360 179 OFFCURVE",
"326 165 CURVE",
"379 185 LINE",
"163 177 LINE",
"156 180 LINE",
"150 157 LINE",
"167 154 OFFCURVE",
"244 147 OFFCURVE",
"300 147 CURVE SMOOTH",
"433 147 OFFCURVE",
"517 258 OFFCURVE",
"517 381 CURVE SMOOTH",
"517 496 OFFCURVE",
"434 548 OFFCURVE",
"243 548 CURVE SMOOTH",
"221 548 LINE"
);
}
);
width = 535;
}
);
leftMetricsKey = P;
rightMetricsKey = P;
unicode = 00DE;
},
{
glyphname = Q;
lastChange = "2016-11-11 17:29:21 +0000";
layers = (
{
background = {
paths = (
{
closed = 1;
nodes = (
"715 -216 LINE",
"848 -160 LINE",
"846 -146 LINE",
"666 -167 LINE",
"759 -174 LINE",
"599 -93 OFFCURVE",
"425 12 OFFCURVE",
"369 27 CURVE",
"328 10 OFFCURVE",
"282 -10 OFFCURVE",
"241 -35 CURVE",
"246 -53 LINE",
"391 4 LINE",
"340 14 LINE",
"334 -1 LINE",
"364 -10 OFFCURVE",
"570 -142 OFFCURVE",
"707 -216 CURVE"
);
}
);
};
components = (
{
name = O;
}
);
guideLines = (
{
angle = 80.594;
position = "{725, 280}";
}
);
layerId = "97AFB7C9-FE9A-4B33-96EF-7CD144DFB325";
paths = (
{
closed = 1;
nodes = (
"665 -196 LINE",
"798 -140 LINE",
"796 -126 LINE",
"616 -147 LINE",
"709 -154 LINE",
"389 24 LINE",
"348 7 OFFCURVE",
"282 -10 OFFCURVE",
"241 -35 CURVE",
"246 -53 LINE",
"411 4 LINE",
"360 14 LINE",
"355 -3 LINE",
"657 -196 LINE"
);
}
);
width = 717;
}
);
leftMetricsKey = O;
unicode = 0051;
},
{
glyphname = R;
lastChange = "2016-11-11 17:29:21 +0000";
layers = (
{
anchors = (
{
name = bottom;
position = "{270, 0}";
},
{
name = top;
position = "{340, 665}";
}
);
background = {
paths = (
{
closed = 1;
nodes = (
"294 316 LINE",
"401 3 LINE",
"467 14 LINE",
"359 325 LINE"
);
},
{
closed = 1;
nodes = (
"391 34 LINE",
"402 -2 LINE",
"402 -2 OFFCURVE",
"430 0 OFFCURVE",
"453 0 CURVE SMOOTH",
"489 0 OFFCURVE",
"531 -2 OFFCURVE",
"531 -2 CURVE",
"533 13 LINE",
"416 57 LINE"
);
},
{
closed = 1;
nodes = (
"148 0 LINE",
"255 650 LINE",
"191 637 LINE",
"221 644 OFFCURVE",
"219 642 OFFCURVE",
"227 642 CURVE SMOOTH",
"337 642 OFFCURVE",
"456 631 OFFCURVE",
"456 498 CURVE SMOOTH",
"456 351 OFFCURVE",
"337 330 OFFCURVE",
"314 306 CURVE",
"373 334 LINE",
"372 334 OFFCURVE",
"187 326 OFFCURVE",
"168 325 CURVE",
"161 308 LINE",
"181 306 OFFCURVE",
"246 297 OFFCURVE",
"296 297 CURVE SMOOTH",
"404 297 OFFCURVE",
"523 402 OFFCURVE",
"523 506 CURVE SMOOTH",
"523 645 OFFCURVE",
"395 668 OFFCURVE",
"254 668 CURVE SMOOTH",
"186 668 OFFCURVE",
"113 665 OFFCURVE",
"113 665 CURVE",
"188 642 LINE",
"82 0 LINE"
);
},
{
closed = 1;
nodes = (
"113 27 LINE",
"124 0 LINE",
"226 -2 LINE",
"229 13 LINE",
"126 49 LINE"
);
},
{
closed = 1;
nodes = (
"12 13 LINE",
"15 -2 LINE",
"104 0 LINE",
"132 27 LINE",
"132 54 LINE"
);
},
{
closed = 1;
nodes = (
"220 637 LINE",
"187 662 LINE",
"113 665 LINE",
"111 652 LINE",
"220 614 LINE"
);
}
);
};
layerId = "97AFB7C9-FE9A-4B33-96EF-7CD144DFB325";
paths = (
{
closed = 1;
nodes = (
"294 316 LINE",
"401 3 LINE",
"467 14 LINE",
"359 325 LINE"
);
},
{
closed = 1;
nodes = (
"391 34 LINE",
"402 -2 LINE",
"402 -2 OFFCURVE",
"430 0 OFFCURVE",
"453 0 CURVE SMOOTH",
"489 0 OFFCURVE",
"531 -2 OFFCURVE",
"531 -2 CURVE",
"533 13 LINE",
"416 57 LINE"
);
},
{
closed = 1;
nodes = (
"148 0 LINE",
"255 650 LINE",
"191 637 LINE",
"227 642 LINE",
"339 642 OFFCURVE",
"458 631 OFFCURVE",
"458 498 CURVE SMOOTH",
"458 351 OFFCURVE",
"339 330 OFFCURVE",
"316 306 CURVE",
"375 334 LINE",
"374 334 OFFCURVE",
"187 326 OFFCURVE",
"168 325 CURVE",
"161 308 LINE",
"181 306 OFFCURVE",
"246 297 OFFCURVE",
"298 297 CURVE SMOOTH",
"406 297 OFFCURVE",
"525 402 OFFCURVE",
"525 506 CURVE SMOOTH",
"525 645 OFFCURVE",
"397 668 OFFCURVE",
"254 668 CURVE SMOOTH",
"186 668 OFFCURVE",
"112 665 OFFCURVE",
"112 665 CURVE",
"188 642 LINE",
"82 0 LINE"
);
},
{
closed = 1;
nodes = (
"113 27 LINE",
"124 0 LINE",
"226 -2 LINE",
"229 13 LINE",
"126 49 LINE"
);
},
{
closed = 1;
nodes = (
"17 13 LINE",
"19 -1 LINE",
"104 0 LINE",
"132 27 LINE",
"132 55 LINE"
);
},
{
closed = 1;
nodes = (
"220 637 LINE",
"187 662 LINE",
"112 665 LINE",
"110 651 LINE",
"220 613 LINE"
);
}
);
width = 580;
}
);
leftMetricsKey = E;
unicode = 0052;
},
{
glyphname = S;
lastChange = "2016-11-11 17:29:21 +0000";
layers = (
{
anchors = (
{
name = bottom;
position = "{234, 0}";
},
{
name = top;
position = "{320, 665}";
}
);
background = {
anchors = (
{
name = bottom;
position = "{220, 0}";
},
{
name = top;
position = "{320, 665}";
}
);
paths = (
{
closed = 1;
nodes = (
"163 17 OFFCURVE",
"112 54 OFFCURVE",
"78 85 CURVE",
"111 38 LINE",
"91 164 LINE",
"75 164 LINE",
"42 24 LINE",
"80 39 LINE",
"98 90 LINE",
"42 24 LINE",
"74 12 OFFCURVE",
"133 -10 OFFCURVE",
"221 -10 CURVE SMOOTH",
"377 -10 OFFCURVE",
"428 81 OFFCURVE",
"439 156 CURVE SMOOTH",
"465 331 OFFCURVE",
"139 387 OFFCURVE",
"166 549 CURVE SMOOTH",
"172 588 OFFCURVE",
"204 651 OFFCURVE",
"289 653 CURVE",
"239 655 LINE",
"214 644 LINE",
"352 648 OFFCURVE",
"436 603 OFFCURVE",
"452 593 CURVE",
"421 636 LINE",
"439 513 LINE",
"454 513 LINE",
"484 643 LINE",
"450 635 LINE",
"432 584 LINE",
"484 643 LINE",
"480 645 OFFCURVE",
"406 675 OFFCURVE",
"322 675 CURVE SMOOTH",
"164 675 OFFCURVE",
"114 569 OFFCURVE",
"106 516 CURVE SMOOTH",
"79 349 OFFCURVE",
"404 291 OFFCURVE",
"379 125 CURVE SMOOTH",
"370 63 OFFCURVE",
"322 24 OFFCURVE",
"269 13 CURVE",
"295 7 LINE",
"327 21 LINE"
);
}
);
};
guideLines = (
{
angle = 80.594;
position = "{151, 537}";
}
);
layerId = "97AFB7C9-FE9A-4B33-96EF-7CD144DFB325";
paths = (
{
closed = 1;
nodes = (
"163 17 OFFCURVE",
"109 56 OFFCURVE",
"75 87 CURVE",
"108 40 LINE",
"88 166 LINE",
"72 166 LINE",
"39 26 LINE",
"77 41 LINE",
"95 92 LINE",
"39 26 LINE",
"71 14 OFFCURVE",
"133 -10 OFFCURVE",
"231 -10 CURVE SMOOTH",
"387 -10 OFFCURVE",
"429 91 OFFCURVE",
"439 156 CURVE SMOOTH",
"465 331 OFFCURVE",
"139 387 OFFCURVE",
"166 549 CURVE SMOOTH",
"172 588 OFFCURVE",
"204 651 OFFCURVE",
"289 653 CURVE",
"239 655 LINE",
"214 644 LINE",
"352 648 OFFCURVE",
"436 603 OFFCURVE",
"452 593 CURVE",
"421 636 LINE",
"439 513 LINE",
"454 513 LINE",
"484 643 LINE",
"450 635 LINE",
"432 584 LINE",
"484 643 LINE",
"480 645 OFFCURVE",
"406 675 OFFCURVE",
"322 675 CURVE SMOOTH",
"154 675 OFFCURVE",
"114 569 OFFCURVE",
"106 516 CURVE SMOOTH",
"79 349 OFFCURVE",
"404 291 OFFCURVE",
"379 125 CURVE SMOOTH",
"370 63 OFFCURVE",
"322 24 OFFCURVE",
"269 13 CURVE",
"295 7 LINE",
"327 21 LINE"
);
}
);
width = 487;
}
);
unicode = 0053;
},
{
glyphname = T;
lastChange = "2016-11-11 17:29:21 +0000";
layers = (
{
anchors = (
{
name = bottom;
position = "{267, 0}";
},
{
name = center;
position = "{325, 333}";
},
{
name = top;
position = "{377, 665}";
}
);
background = {
paths = (
{
closed = 1;
nodes = (
"267 27 LINE",
"300 0 LINE",
"383 -2 LINE",
"385 13 LINE",
"282 46 LINE"
);
},
{
closed = 1;
nodes = (
"162 13 LINE",
"164 -2 LINE",
"238 0 LINE",
"286 27 LINE",
"286 49 LINE"
);
},
{
closed = 1;
nodes = (
"236 0 LINE",
"302 0 LINE",
"411 657 LINE",
"345 657 LINE"
);
},
{
closed = 1;
nodes = (
"94 676 LINE",
"71 531 LINE",
"87 531 LINE",
"153 650 LINE",
"159 658 LINE",
"108 676 LINE"
);
},
{
closed = 1;
nodes = (
"387 635 LINE",
"495 635 OFFCURVE",
"618 635 OFFCURVE",
"647 634 CURVE",
"634 665 LINE",
"603 665 OFFCURVE",
"491 665 OFFCURVE",
"375 665 CURVE SMOOTH",
"303 665 LINE",
"378 635 LINE"
);
},
{
closed = 1;
nodes = (
"587 660 LINE",
"593 652 LINE",
"615 531 LINE",
"632 531 LINE",
"662 674 LINE",
"647 674 LINE"
);
},
{
closed = 1;
nodes = (
"450 665 LINE",
"378 665 LINE SMOOTH",
"262 665 OFFCURVE",
"144 665 OFFCURVE",
"113 665 CURVE",
"100 634 LINE",
"129 635 OFFCURVE",
"258 635 OFFCURVE",
"366 635 CURVE",
"375 635 LINE"
);
}
);
};
layerId = "97AFB7C9-FE9A-4B33-96EF-7CD144DFB325";
paths = (
{
closed = 1;
nodes = (
"267 27 LINE",
"300 0 LINE",
"383 -2 LINE",
"385 13 LINE",
"282 46 LINE"
);
},
{
closed = 1;
nodes = (
"162 13 LINE",
"164 -2 LINE",
"238 0 LINE",
"286 27 LINE",
"286 49 LINE"
);
},
{
closed = 1;
nodes = (
"236 0 LINE",
"302 0 LINE",
"411 657 LINE",
"345 657 LINE"
);
},
{
closed = 1;
nodes = (
"94 674 LINE",
"71 531 LINE",
"88 531 LINE",
"155 650 LINE",
"179 656 LINE",
"108 674 LINE"
);
},
{
closed = 1;
nodes = (
"387 635 LINE",
"495 635 OFFCURVE",
"618 635 OFFCURVE",
"647 634 CURVE",
"634 665 LINE",
"603 665 OFFCURVE",
"491 665 OFFCURVE",
"375 665 CURVE SMOOTH",
"303 665 LINE",
"378 635 LINE"
);
},
{
closed = 1;
nodes = (
"587 660 LINE",
"593 652 LINE",
"615 531 LINE",
"632 531 LINE",
"662 674 LINE",
"647 674 LINE"
);
},
{
closed = 1;
nodes = (
"450 665 LINE",
"378 665 LINE SMOOTH",
"262 665 OFFCURVE",
"144 665 OFFCURVE",
"113 665 CURVE",
"100 634 LINE",
"129 635 OFFCURVE",
"258 635 OFFCURVE",
"366 635 CURVE",
"375 635 LINE"
);
}
);
width = 607;
}
);
unicode = 0054;
},
{
glyphname = U;
lastChange = "2016-11-11 17:29:21 +0000";
layers = (
{
anchors = (
{
name = bottom;
position = "{291, 0}";
},
{
name = ogonek;
position = "{329, 9}";
},
{
name = top;
position = "{411, 665}";
},
{
name = topright;
position = "{725, 665}";
}
);
background = {
paths = (
{
closed = 1;
nodes = (
"597 665 LINE",
"549 317 LINE SMOOTH",
"519 103 OFFCURVE",
"450 36 OFFCURVE",
"325 36 CURVE SMOOTH",
"196 36 OFFCURVE",
"148 115 OFFCURVE",
"180 308 CURVE SMOOTH",
"239 665 LINE",
"173 665 LINE",
"106 256 LINE SMOOTH",
"76 76 OFFCURVE",
"144 -10 OFFCURVE",
"305 -10 CURVE SMOOTH",
"460 -10 OFFCURVE",
"540 79 OFFCURVE",
"571 251 CURVE SMOOTH",
"646 665 LINE"
);
},
{
closed = 1;
nodes = (
"209 638 LINE",
"177 665 LINE",
"99 667 LINE",
"96 652 LINE",
"207 611 LINE"
);
},
{
closed = 1;
nodes = (
"296 652 LINE",
"294 667 LINE",
"239 665 LINE",
"190 638 LINE",
"205 620 LINE"
);
},
{
closed = 1;
nodes = (
"636 638 LINE",
"609 665 LINE",
"531 667 LINE",
"528 652 LINE",
"624 613 LINE"
);
},
{
closed = 1;
nodes = (
"711 652 LINE",
"709 667 LINE",
"633 665 LINE",
"617 638 LINE",
"622 619 LINE"
);
}
);
};
layerId = "97AFB7C9-FE9A-4B33-96EF-7CD144DFB325";
paths = (
{
closed = 1;
nodes = (
"597 665 LINE",
"549 317 LINE SMOOTH",
"519 103 OFFCURVE",
"450 36 OFFCURVE",
"325 36 CURVE SMOOTH",
"196 36 OFFCURVE",
"148 115 OFFCURVE",
"180 308 CURVE SMOOTH",
"239 665 LINE",
"173 665 LINE",
"106 256 LINE SMOOTH",
"76 76 OFFCURVE",
"154 -10 OFFCURVE",
"315 -10 CURVE SMOOTH",
"460 -10 OFFCURVE",
"540 79 OFFCURVE",
"571 251 CURVE SMOOTH",
"646 665 LINE"
);
},
{
closed = 1;
nodes = (
"209 638 LINE",
"177 665 LINE",
"99 667 LINE",
"96 652 LINE",
"207 611 LINE"
);
},
{
closed = 1;
nodes = (
"296 652 LINE",
"294 667 LINE",
"239 665 LINE",
"190 638 LINE",
"205 620 LINE"
);
},
{
closed = 1;
nodes = (
"636 638 LINE",
"609 665 LINE",
"531 667 LINE",
"528 652 LINE",
"624 613 LINE"
);
},
{
closed = 1;
nodes = (
"711 652 LINE",
"709 667 LINE",
"633 665 LINE",
"617 638 LINE",
"622 619 LINE"
);
}
);
width = 657;
}
);
unicode = 0055;
},
{
glyphname = V;
lastChange = "2016-11-11 17:29:21 +0000";
layers = (
{
background = {
paths = (
{
closed = 1;
nodes = (
"203 665 LINE",
"155 665 LINE",
"140 647 LINE",
"278 -10 LINE",
"331 54 LINE"
);
},
{
closed = 1;
nodes = (
"309 8 OFFCURVE",
"321 31 OFFCURVE",
"345 79 CURVE SMOOTH",
"636 665 LINE",
"611 665 LINE",
"583 665 LINE",
"296 38 LINE",
"278 -10 LINE"
);
},
{
closed = 1;
nodes = (
"183 638 LINE",
"171 665 LINE",
"83 667 LINE",
"80 652 LINE",
"178 613 LINE"
);
},
{
closed = 1;
nodes = (
"273 652 LINE",
"271 667 LINE",
"193 665 LINE",
"164 638 LINE",
"190 623 LINE"
);
},
{
closed = 1;
nodes = (
"596 641 LINE",
"582 665 LINE",
"505 667 LINE",
"502 652 LINE",
"596 614 LINE"
);
},
{
closed = 1;
nodes = (
"682 652 LINE",
"680 667 LINE",
"606 665 LINE",
"577 641 LINE",
"606 622 LINE"
);
}
);
};
layerId = "97AFB7C9-FE9A-4B33-96EF-7CD144DFB325";
paths = (
{
closed = 1;
nodes = (
"203 665 LINE",
"155 665 LINE",
"140 647 LINE",
"278 -10 LINE",
"331 54 LINE"
);
},
{
closed = 1;
nodes = (
"309 8 OFFCURVE",
"321 31 OFFCURVE",
"345 79 CURVE SMOOTH",
"636 665 LINE",
"611 665 LINE",
"583 665 LINE",
"296 38 LINE",
"278 -10 LINE"
);
},
{
closed = 1;
nodes = (
"183 638 LINE",
"171 665 LINE",
"83 667 LINE",
"80 652 LINE",
"178 613 LINE"
);
},
{
closed = 1;
nodes = (
"273 652 LINE",
"271 667 LINE",
"193 665 LINE",
"164 638 LINE",
"190 623 LINE"
);
},
{
closed = 1;
nodes = (
"596 641 LINE",
"582 665 LINE",
"505 667 LINE",
"502 652 LINE",
"596 614 LINE"
);
},
{
closed = 1;
nodes = (
"682 652 LINE",
"680 667 LINE",
"606 665 LINE",
"577 641 LINE",
"606 622 LINE"
);
}
);
width = 621;
}
);
unicode = 0056;
},
{
glyphname = W;
lastChange = "2016-11-11 17:29:21 +0000";
layers = (
{
anchors = (
{
name = bottom;
position = "{422, 0}";
},
{
name = top;
position = "{546, 665}";
}
);
background = {
paths = (
{
closed = 1;
nodes = (
"591 5 OFFCURVE",
"606 27 OFFCURVE",
"632 76 CURVE SMOOTH",
"941 665 LINE",
"919 665 LINE",
"892 665 LINE",
"584 41 LINE",
"567 -7 LINE"
);
},
{
closed = 1;
nodes = (
"478 665 LINE",
"431 665 LINE",
"419 647 LINE",
"567 -7 LINE",
"615 61 LINE"
);
},
{
closed = 1;
nodes = (
"205 665 LINE",
"157 665 LINE",
"146 647 LINE",
"288 -7 LINE",
"336 63 LINE"
);
},
{
closed = 1;
nodes = (
"307 1 OFFCURVE",
"324 23 OFFCURVE",
"354 76 CURVE SMOOTH",
"688 665 LINE",
"667 665 LINE",
"634 654 LINE",
"305 41 LINE",
"288 -7 LINE"
);
},
{
closed = 1;
nodes = (
"759 652 LINE",
"757 667 LINE",
"757 667 OFFCURVE",
"720 665 OFFCURVE",
"678 665 CURVE SMOOTH",
"654 665 OFFCURVE",
"630 665 OFFCURVE",
"607 666 CURVE",
"604 651 LINE",
"619 617 LINE",
"634 609 LINE"
);
},
{
closed = 1;
nodes = (
"915 638 LINE",
"903 665 LINE",
"819 667 LINE",
"816 652 LINE",
"904 611 LINE"
);
},
{
closed = 1;
nodes = (
"988 652 LINE",
"986 667 LINE",
"925 665 LINE",
"896 638 LINE",
"894 611 LINE"
);
},
{
closed = 1;
nodes = (
"185 638 LINE",
"173 665 LINE",
"85 667 LINE",
"82 652 LINE",
"182 611 LINE"
);
},
{
closed = 1;
nodes = (
"278 652 LINE",
"276 667 LINE",
"195 665 LINE",
"166 638 LINE",
"192 619 LINE"
);
},
{
closed = 1;
nodes = (
"456 638 LINE",
"444 665 LINE",
"355 667 LINE",
"352 652 LINE",
"453 611 LINE"
);
},
{
closed = 1;
nodes = (
"483 617 LINE",
"504 651 LINE",
"501 666 LINE",
"468 665 OFFCURVE",
"452 665 OFFCURVE",
"428 665 CURVE",
"428 628 LINE",
"484 609 LINE"
);
}
);
};
layerId = "97AFB7C9-FE9A-4B33-96EF-7CD144DFB325";
paths = (
{
closed = 1;
nodes = (
"591 2 OFFCURVE",
"606 24 OFFCURVE",
"632 73 CURVE SMOOTH",
"941 665 LINE",
"919 665 LINE",
"892 665 LINE",
"584 38 LINE",
"567 -10 LINE"
);
},
{
closed = 1;
nodes = (
"478 665 LINE",
"431 665 LINE",
"419 647 LINE",
"567 -10 LINE",
"615 58 LINE"
);
},
{
closed = 1;
nodes = (
"205 665 LINE",
"157 665 LINE",
"146 647 LINE",
"288 -10 LINE",
"336 60 LINE"
);
},
{
closed = 1;
nodes = (
"495 387 LINE",
"305 38 LINE",
"288 -10 LINE",
"307 -2 OFFCURVE",
"323 20 OFFCURVE",
"354 73 CURVE SMOOTH",
"531 380 LINE"
);
},
{
closed = 1;
nodes = (
"766 652 LINE",
"764 667 LINE",
"764 667 OFFCURVE",
"727 665 OFFCURVE",
"685 665 CURVE SMOOTH",
"661 665 OFFCURVE",
"637 665 OFFCURVE",
"614 666 CURVE",
"611 651 LINE",
"626 617 LINE",
"641 609 LINE"
);
},
{
closed = 1;
nodes = (
"915 638 LINE",
"903 665 LINE",
"819 667 LINE",
"816 652 LINE",
"904 611 LINE"
);
},
{
closed = 1;
nodes = (
"988 652 LINE",
"986 667 LINE",
"925 665 LINE",
"896 638 LINE",
"894 611 LINE"
);
},
{
closed = 1;
nodes = (
"185 638 LINE",
"173 665 LINE",
"85 667 LINE",
"82 652 LINE",
"182 611 LINE"
);
},
{
closed = 1;
nodes = (
"278 652 LINE",
"276 667 LINE",
"195 665 LINE",
"166 638 LINE",
"192 619 LINE"
);
},
{
closed = 1;
nodes = (
"456 638 LINE",
"444 665 LINE",
"355 667 LINE",
"352 652 LINE",
"453 611 LINE"
);
},
{
closed = 1;
nodes = (
"483 617 LINE",
"504 651 LINE",
"501 666 LINE",
"468 665 OFFCURVE",
"452 665 OFFCURVE",
"428 665 CURVE",
"428 628 LINE",
"484 609 LINE"
);
},
{
closed = 1;
nodes = (
"531 380 LINE",
"695 665 LINE",
"674 665 LINE",
"641 654 LINE",
"495 387 LINE"
);
}
);
width = 927;
}
);
unicode = 0057;
},
{
glyphname = X;
lastChange = "2016-11-11 17:29:21 +0000";
layers = (
{
background = {
paths = (
{
closed = 1;
nodes = (
"169 657 LINE",
"412 0 LINE",
"464 0 LINE",
"478 13 LINE",
"238 665 LINE",
"187 665 LINE"
);
},
{
closed = 1;
nodes = (
"303 352 LINE",
"27 0 LINE",
"87 0 LINE",
"338 352 LINE"
);
},
{
closed = 1;
nodes = (
"206 638 LINE",
"194 665 LINE",
"106 667 LINE",
"103 652 LINE",
"203 611 LINE"
);
},
{
closed = 1;
nodes = (
"309 652 LINE",
"307 667 LINE",
"216 665 LINE",
"187 638 LINE",
"223 619 LINE"
);
},
{
closed = 1;
nodes = (
"570 638 LINE",
"568 665 LINE",
"472 667 LINE",
"469 652 LINE",
"543 621 LINE"
);
},
{
closed = 1;
nodes = (
"653 652 LINE",
"651 667 LINE",
"590 665 LINE",
"551 638 LINE",
"547 611 LINE"
);
},
{
closed = 1;
nodes = (
"445 27 LINE",
"457 0 LINE",
"545 -2 LINE",
"548 13 LINE",
"448 54 LINE"
);
},
{
closed = 1;
nodes = (
"342 13 LINE",
"344 -2 LINE",
"435 0 LINE",
"464 27 LINE",
"428 46 LINE"
);
},
{
closed = 1;
nodes = (
"66 27 LINE",
"68 0 LINE",
"164 -2 LINE",
"167 13 LINE",
"93 44 LINE"
);
},
{
closed = 1;
nodes = (
"-17 13 LINE",
"-15 -2 LINE",
"76 0 LINE",
"85 27 LINE",
"89 54 LINE"
);
},
{
closed = 1;
nodes = (
"348 353 LINE",
"604 665 LINE",
"544 665 LINE",
"312 353 LINE"
);
}
);
};
guideLines = (
{
position = "{330, 315}";
}
);
layerId = "97AFB7C9-FE9A-4B33-96EF-7CD144DFB325";
paths = (
{
closed = 1;
nodes = (
"168 657 LINE",
"416 0 LINE",
"468 0 LINE",
"482 13 LINE",
"237 665 LINE",
"186 665 LINE"
);
},
{
closed = 1;
nodes = (
"304 351 LINE",
"24 0 LINE",
"84 0 LINE",
"339 351 LINE"
);
},
{
closed = 1;
nodes = (
"205 638 LINE",
"193 665 LINE",
"105 667 LINE",
"102 652 LINE",
"202 611 LINE"
);
},
{
closed = 1;
nodes = (
"308 652 LINE",
"306 667 LINE",
"215 665 LINE",
"186 638 LINE",
"222 619 LINE"
);
},
{
closed = 1;
nodes = (
"572 638 LINE",
"570 665 LINE",
"474 667 LINE",
"471 652 LINE",
"545 621 LINE"
);
},
{
closed = 1;
nodes = (
"655 652 LINE",
"653 667 LINE",
"592 665 LINE",
"553 638 LINE",
"549 611 LINE"
);
},
{
closed = 1;
nodes = (
"449 27 LINE",
"461 0 LINE",
"549 -2 LINE",
"552 13 LINE",
"452 54 LINE"
);
},
{
closed = 1;
nodes = (
"346 13 LINE",
"348 -2 LINE",
"439 0 LINE",
"468 27 LINE",
"432 46 LINE"
);
},
{
closed = 1;
nodes = (
"63 27 LINE",
"65 0 LINE",
"161 -2 LINE",
"164 13 LINE",
"90 44 LINE"
);
},
{
closed = 1;
nodes = (
"-20 13 LINE",
"-18 -2 LINE",
"73 0 LINE",
"82 27 LINE",
"86 54 LINE"
);
},
{
closed = 1;
nodes = (
"351 352 LINE",
"606 665 LINE",
"546 665 LINE",
"315 352 LINE"
);
}
);
width = 602;
}
);
unicode = 0058;
},
{
glyphname = Y;
lastChange = "2016-11-11 17:29:21 +0000";
layers = (
{
anchors = (
{
name = bottom;
position = "{256, 0}";
},
{
name = top;
position = "{366, 665}";
},
{
name = topleft;
position = "{87, 665}";
}
);
background = {
paths = (
{
closed = 1;
nodes = (
"296 0 LINE",
"348 315 LINE",
"282 315 LINE",
"230 0 LINE"
);
},
{
closed = 1;
nodes = (
"268 34 LINE",
"273 0 LINE",
"379 -2 LINE",
"381 13 LINE",
"275 49 LINE"
);
},
{
closed = 1;
nodes = (
"150 13 LINE",
"152 -2 LINE",
"252 0 LINE",
"287 34 LINE",
"287 54 LINE"
);
},
{
closed = 1;
nodes = (
"199 665 LINE",
"152 665 LINE",
"140 647 LINE",
"286 277 LINE",
"339 317 LINE"
);
},
{
closed = 1;
nodes = (
"338 286 LINE",
"609 665 LINE",
"554 665 LINE",
"308 287 LINE"
);
},
{
closed = 1;
nodes = (
"181 641 LINE",
"167 665 LINE",
"85 667 LINE",
"82 652 LINE",
"178 614 LINE"
);
},
{
closed = 1;
nodes = (
"275 652 LINE",
"273 667 LINE",
"189 665 LINE",
"162 641 LINE",
"188 622 LINE"
);
},
{
closed = 1;
nodes = (
"565 639 LINE",
"563 665 LINE",
"470 667 LINE",
"467 652 LINE",
"560 612 LINE"
);
},
{
closed = 1;
nodes = (
"647 652 LINE",
"645 667 LINE",
"575 665 LINE",
"546 639 LINE",
"570 620 LINE"
);
}
);
};
guideLines = (
{
angle = 80.594;
position = "{277, 285}";
},
{
angle = 80.594;
position = "{343, 285}";
}
);
layerId = "97AFB7C9-FE9A-4B33-96EF-7CD144DFB325";
paths = (
{
closed = 1;
nodes = (
"296 0 LINE",
"348 315 LINE",
"282 315 LINE",
"230 0 LINE"
);
},
{
closed = 1;
nodes = (
"268 34 LINE",
"273 0 LINE",
"379 -2 LINE",
"381 13 LINE",
"275 49 LINE"
);
},
{
closed = 1;
nodes = (
"150 13 LINE",
"152 -2 LINE",
"252 0 LINE",
"287 34 LINE",
"287 54 LINE"
);
},
{
closed = 1;
nodes = (
"199 665 LINE",
"152 665 LINE",
"140 647 LINE",
"286 277 LINE",
"339 317 LINE"
);
},
{
closed = 1;
nodes = (
"338 286 LINE",
"609 665 LINE",
"554 665 LINE",
"308 287 LINE"
);
},
{
closed = 1;
nodes = (
"181 641 LINE",
"167 665 LINE",
"85 667 LINE",
"82 652 LINE",
"178 614 LINE"
);
},
{
closed = 1;
nodes = (
"275 652 LINE",
"273 667 LINE",
"189 665 LINE",
"162 641 LINE",
"188 622 LINE"
);
},
{
closed = 1;
nodes = (
"565 639 LINE",
"563 665 LINE",
"470 667 LINE",
"467 652 LINE",
"560 612 LINE"
);
},
{
closed = 1;
nodes = (
"647 652 LINE",
"645 667 LINE",
"575 665 LINE",
"546 639 LINE",
"570 620 LINE"
);
}
);
width = 588;
}
);
unicode = 0059;
},
{
glyphname = Z;
lastChange = "2016-11-11 17:30:51 +0000";
layers = (
{
anchors = (
{
name = bottom;
position = "{227, 0}";
},
{
name = top;
position = "{357, 665}";
}
);
background = {
anchors = (
{
name = bottom;
position = "{227, 0}";
},
{
name = top;
position = "{357, 665}";
}
);
paths = (
{
closed = 1;
nodes = (
"480 637 LINE",
"12 12 LINE",
"15 0 LINE",
"177 0 LINE SMOOTH",
"283 0 OFFCURVE",
"417 0 OFFCURVE",
"448 0 CURVE",
"461 31 LINE",
"432 30 OFFCURVE",
"390 30 OFFCURVE",
"112 30 CURVE SMOOTH",
"70 30 LINE",
"91 20 LINE",
"569 653 LINE",
"566 665 LINE",
"394 665 LINE SMOOTH",
"299 665 OFFCURVE",
"206 665 OFFCURVE",
"169 665 CURVE",
"168 634 LINE",
"190 634 OFFCURVE",
"232 635 OFFCURVE",
"490 635 CURVE",
"509 635 LINE",
"508 643 LINE"
);
},
{
closed = 1;
nodes = (
"460 0 LINE",
"501 160 LINE",
"484 160 LINE",
"385 13 LINE",
"398 6 LINE",
"445 0 LINE"
);
},
{
closed = 1;
nodes = (
"154 665 LINE",
"119 509 LINE",
"135 509 LINE",
"224 644 LINE",
"208 658 LINE",
"172 665 LINE"
);
}
);
};
layerId = "97AFB7C9-FE9A-4B33-96EF-7CD144DFB325";
paths = (
{
closed = 1;
nodes = (
"480 637 LINE",
"12 12 LINE",
"15 0 LINE",
"177 0 LINE SMOOTH",
"283 0 OFFCURVE",
"417 0 OFFCURVE",
"448 0 CURVE",
"461 31 LINE",
"432 30 OFFCURVE",
"390 30 OFFCURVE",
"112 30 CURVE SMOOTH",
"70 30 LINE",
"91 20 LINE",
"569 653 LINE",
"566 665 LINE",
"394 665 LINE SMOOTH",
"299 665 OFFCURVE",
"206 665 OFFCURVE",
"169 665 CURVE",
"168 634 LINE",
"190 634 OFFCURVE",
"232 635 OFFCURVE",
"490 635 CURVE",
"509 635 LINE",
"508 643 LINE"
);
},
{
closed = 1;
nodes = (
"460 0 LINE",
"499 150 LINE",
"482 150 LINE",
"388 13 LINE",
"398 6 LINE",
"445 0 LINE"
);
},
{
closed = 1;
nodes = (
"154 665 LINE",
"121 519 LINE",
"137 519 LINE",
"221 644 LINE",
"208 658 LINE",
"172 665 LINE"
);
}
);
width = 541;
}
);
unicode = 005A;
},
{
glyphname = a;
lastChange = "2016-11-11 17:29:21 +0000";
layers = (
{
anchors = (
{
name = bottom;
position = "{218, 0}";
},
{
name = ogonek;
position = "{383, 9}";
},
{
name = top;
position = "{264, 451}";
}
);
background = {
paths = (
{
closed = 1;
nodes = (
"269 -2 LINE",
"328 13 LINE",
"400 456 LINE",
"385 456 LINE",
"335 398 LINE"
);
},
{
closed = 1;
nodes = (
"386 -5 OFFCURVE",
"433 107 OFFCURVE",
"433 135 CURVE",
"424 147 LINE",
"395 84 OFFCURVE",
"355 40 OFFCURVE",
"289 15 CURVE",
"269 -2 LINE",
"277 -4 OFFCURVE",
"284 -5 OFFCURVE",
"292 -5 CURVE SMOOTH"
);
}
);
};
components = (
{
name = _part.brzuszek;
transform = "{-1, 0, 0, -1, 458, 451}";
},
{
name = _part.SerifBottomRight2;
transform = "{1, 0, 0, 1, 107, 0}";
}
);
layerId = "97AFB7C9-FE9A-4B33-96EF-7CD144DFB325";
paths = (
{
closed = 1;
nodes = (
"269 -2 LINE",
"328 13 LINE",
"400 456 LINE",
"385 456 LINE",
"335 398 LINE"
);
}
);
width = 473;
}
);
unicode = 0061;
},
{
glyphname = ae;
lastChange = "2016-11-11 17:29:21 +0000";
layers = (
{
background = {
components = (
{
name = a;
}
);
};
components = (
{
name = e;
transform = "{1, 0, 0, 1, 247, 0}";
}
);
layerId = "97AFB7C9-FE9A-4B33-96EF-7CD144DFB325";
paths = (
{
closed = 1;
nodes = (
"361 380 LINE",
"319 444 OFFCURVE",
"261 458 OFFCURVE",
"235 458 CURVE SMOOTH",
"128 458 OFFCURVE",
"36 273 OFFCURVE",
"38 111 CURVE SMOOTH",
"39 44 OFFCURVE",
"69 -7 OFFCURVE",
"109 -7 CURVE SMOOTH",
"179 -7 OFFCURVE",
"277 128 OFFCURVE",
"302 214 CURVE",
"319 205 LINE",
"319 296 LINE",
"280 154 OFFCURVE",
"155 23 OFFCURVE",
"76 31 CURVE",
"139 6 LINE",
"144 12 LINE",
"114 33 OFFCURVE",
"99 74 OFFCURVE",
"98 141 CURVE SMOOTH",
"96 303 OFFCURVE",
"156 430 OFFCURVE",
"234 451 CURVE",
"213 448 LINE",
"157 415 LINE",
"229 423 OFFCURVE",
"298 396 OFFCURVE",
"352 358 CURVE"
);
}
);
width = 624;
}
);
leftMetricsKey = a;
rightMetricsKey = e;
unicode = 00E6;
},
{
glyphname = b;
lastChange = "2016-11-11 17:30:54 +0000";
layers = (
{
background = {
paths = (
{
closed = 1;
nodes = (
"225 713 LINE",
"212 713 LINE",
"79 678 LINE",
"81 664 LINE",
"165 666 LINE"
);
},
{
closed = 1;
nodes = (
"225 713 LINE",
"162 667 LINE",
"51 -4 LINE",
"66 -4 LINE",
"116 53 LINE"
);
}
);
};
components = (
{
name = _part.brzuszek;
transform = "{1, 0, 0, 1, -7, 0}";
},
{
name = _part.SerifUpLeft;
transform = "{1, 0, 0, 1, -144, 257}";
piece = {
SerifLenght = -33;
};
}
);
layerId = "97AFB7C9-FE9A-4B33-96EF-7CD144DFB325";
paths = (
{
closed = 1;
nodes = (
"225 713 LINE",
"162 667 LINE",
"51 -4 LINE",
"66 -4 LINE",
"116 53 LINE"
);
}
);
width = 451;
}
);
leftMetricsKey = h;
unicode = 0062;
},
{
glyphname = c;
lastChange = "2016-11-11 17:29:21 +0000";
layers = (
{
anchors = (
{
name = bottom;
position = "{178, 0}";
},
{
name = top;
position = "{246, 451}";
}
);
background = {
paths = (
{
closed = 1;
nodes = (
"360 420 LINE",
"353 430 OFFCURVE",
"313 458 OFFCURVE",
"247 458 CURVE SMOOTH",
"117 458 OFFCURVE",
"42 291 OFFCURVE",
"42 161 CURVE SMOOTH",
"42 34 OFFCURVE",
"111 -7 OFFCURVE",
"172 -7 CURVE SMOOTH",
"268 -7 OFFCURVE",
"322 95 OFFCURVE",
"322 135 CURVE",
"313 147 LINE",
"289 93 OFFCURVE",
"250 37 OFFCURVE",
"193 37 CURVE SMOOTH",
"139 37 OFFCURVE",
"102 93 OFFCURVE",
"102 181 CURVE SMOOTH",
"102 309 OFFCURVE",
"160 430 OFFCURVE",
"240 447 CURVE",
"221 449 LINE",
"168 422 LINE",
"236 432 OFFCURVE",
"306 400 OFFCURVE",
"323 374 CURVE"
);
},
{
closed = 1;
nodes = (
"306 308 LINE",
"321 312 LINE",
"360 420 LINE",
"295 441 LINE"
);
}
);
};
guideLines = (
{
angle = 90;
position = "{241, 431}";
},
{
angle = 90;
position = "{183, 391}";
}
);
layerId = "97AFB7C9-FE9A-4B33-96EF-7CD144DFB325";
paths = (
{
closed = 1;
nodes = (
"268 -7 OFFCURVE",
"322 95 OFFCURVE",
"322 135 CURVE",
"313 147 LINE",
"289 93 OFFCURVE",
"250 37 OFFCURVE",
"193 37 CURVE SMOOTH",
"139 37 OFFCURVE",
"102 93 OFFCURVE",
"102 181 CURVE SMOOTH",
"102 309 OFFCURVE",
"160 430 OFFCURVE",
"240 447 CURVE",
"221 449 LINE",
"168 419 LINE",
"236 429 OFFCURVE",
"306 402 OFFCURVE",
"324 376 CURVE",
"362 420 LINE",
"353 430 OFFCURVE",
"313 458 OFFCURVE",
"247 458 CURVE SMOOTH",
"117 458 OFFCURVE",
"42 291 OFFCURVE",
"42 161 CURVE SMOOTH",
"42 34 OFFCURVE",
"111 -7 OFFCURVE",
"172 -7 CURVE SMOOTH"
);
},
{
closed = 1;
nodes = (
"318 323 LINE",
"362 420 LINE",
"311 441 LINE",
"304 319 LINE"
);
}
);
width = 372;
}
);
leftMetricsKey = e;
unicode = 0063;
},
{
glyphname = d;
lastChange = "2016-11-11 17:29:21 +0000";
layers = (
{
anchors = (
{
name = bottom;
position = "{209, 0}";
},
{
name = center;
position = "{366, 565}";
},
{
name = top;
position = "{283, 451}";
},
{
name = topright;
position = "{556, 711}";
}
);
background = {
paths = (
{
closed = 1;
nodes = (
"284 92 OFFCURVE",
"265 -5 OFFCURVE",
"319 -5 CURVE SMOOTH",
"394 -5 OFFCURVE",
"447 101 OFFCURVE",
"447 135 CURVE",
"438 147 LINE",
"412 90 OFFCURVE",
"370 38 OFFCURVE",
"312 24 CURVE",
"336 16 LINE",
"337 54 OFFCURVE",
"341 106 OFFCURVE",
"360 218 CURVE SMOOTH",
"442 713 LINE",
"379 667 LINE",
"299 182 LINE SMOOTH"
);
},
{
closed = 1;
nodes = (
"442 713 LINE",
"429 713 LINE",
"296 678 LINE",
"298 664 LINE",
"382 666 LINE"
);
}
);
};
components = (
{
name = _part.brzuszek;
transform = "{-1, 0, 0, -1, 458, 451}";
},
{
name = _part.SerifUpLeft;
transform = "{1, 0, 0, 1, 73, 257}";
piece = {
SerifLenght = -33;
};
}
);
guideLines = (
{
angle = 80.594;
position = "{379, 667}";
},
{
angle = 80.594;
position = "{442, 713}";
}
);
layerId = "97AFB7C9-FE9A-4B33-96EF-7CD144DFB325";
paths = (
{
closed = 1;
nodes = (
"394 -5 OFFCURVE",
"447 101 OFFCURVE",
"447 135 CURVE",
"438 147 LINE",
"412 90 OFFCURVE",
"371 36 OFFCURVE",
"312 36 CURVE",
"336 16 LINE",
"337 54 OFFCURVE",
"341 106 OFFCURVE",
"360 218 CURVE SMOOTH",
"442 713 LINE",
"379 667 LINE",
"299 182 LINE SMOOTH",
"284 92 OFFCURVE",
"265 -5 OFFCURVE",
"319 -5 CURVE SMOOTH"
);
}
);
width = 492;
}
);
leftMetricsKey = a;
rightMetricsKey = l;
unicode = 0064;
},
{
glyphname = eth;
lastChange = "2016-11-11 17:29:21 +0000";
layers = (
{
background = {
paths = (
{
closed = 1;
nodes = (
"389 479 OFFCURVE",
"358 665 OFFCURVE",
"177 713 CURVE",
"169 697 LINE",
"302 644 OFFCURVE",
"333 471 OFFCURVE",
"335 306 CURVE",
"327 300 LINE",
"327 131 OFFCURVE",
"256 4 OFFCURVE",
"195 4 CURVE",
"211 4 LINE",
"251 30 LINE",
"160 27 OFFCURVE",
"102 67 OFFCURVE",
"102 181 CURVE SMOOTH",
"102 341 OFFCURVE",
"189 447 OFFCURVE",
"235 447 CURVE",
"219 447 LINE",
"179 421 LINE",
"279 424 OFFCURVE",
"327 378 OFFCURVE",
"327 272 CURVE",
"384 297 LINE",
"387 396 OFFCURVE",
"335 458 OFFCURVE",
"240 458 CURVE SMOOTH",
"125 458 OFFCURVE",
"42 291 OFFCURVE",
"42 158 CURVE SMOOTH",
"42 44 OFFCURVE",
"103 -7 OFFCURVE",
"194 -7 CURVE SMOOTH",
"304 -7 OFFCURVE",
"389 150 OFFCURVE",
"389 333 CURVE SMOOTH"
);
},
{
closed = 1;
nodes = (
"413 660 LINE",
"402 680 LINE",
"155 538 LINE",
"166 518 LINE"
);
}
);
};
layerId = "97AFB7C9-FE9A-4B33-96EF-7CD144DFB325";
paths = (
{
closed = 1;
nodes = (
"389 479 OFFCURVE",
"358 665 OFFCURVE",
"177 713 CURVE",
"169 697 LINE",
"302 644 OFFCURVE",
"333 471 OFFCURVE",
"335 306 CURVE",
"327 300 LINE",
"327 131 OFFCURVE",
"256 4 OFFCURVE",
"195 4 CURVE",
"211 4 LINE",
"251 30 LINE",
"160 27 OFFCURVE",
"102 67 OFFCURVE",
"102 181 CURVE SMOOTH",
"102 341 OFFCURVE",
"189 447 OFFCURVE",
"235 447 CURVE",
"219 447 LINE",
"179 421 LINE",
"279 424 OFFCURVE",
"327 378 OFFCURVE",
"327 272 CURVE",
"384 297 LINE",
"387 396 OFFCURVE",
"335 458 OFFCURVE",
"240 458 CURVE SMOOTH",
"125 458 OFFCURVE",
"42 291 OFFCURVE",
"42 158 CURVE SMOOTH",
"42 44 OFFCURVE",
"103 -7 OFFCURVE",
"194 -7 CURVE SMOOTH",
"304 -7 OFFCURVE",
"389 150 OFFCURVE",
"389 333 CURVE SMOOTH"
);
},
{
closed = 1;
nodes = (
"414 658 LINE",
"402 680 LINE",
"155 538 LINE",
"167 516 LINE"
);
}
);
width = 427;
}
);
leftMetricsKey = o;
rightMetricsKey = o;
unicode = 00F0;
},
{
glyphname = e;
lastChange = "2016-11-11 17:29:21 +0000";
layers = (
{
anchors = (
{
name = bottom;
position = "{179, 0}";
},
{
name = ogonek;
position = "{272, 9}";
},
{
name = top;
position = "{234, 451}";
}
);
background = {
paths = (
{
closed = 1;
nodes = (
"92 277 LINE",
"205 235 OFFCURVE",
"330 261 OFFCURVE",
"342 362 CURVE SMOOTH",
"349 415 OFFCURVE",
"309 458 OFFCURVE",
"240 458 CURVE SMOOTH",
"127 458 OFFCURVE",
"42 297 OFFCURVE",
"42 161 CURVE SMOOTH",
"42 44 OFFCURVE",
"102 -7 OFFCURVE",
"171 -7 CURVE SMOOTH",
"266 -7 OFFCURVE",
"319 88 OFFCURVE",
"322 135 CURVE",
"313 147 LINE",
"286 88 OFFCURVE",
"248 36 OFFCURVE",
"191 36 CURVE SMOOTH",
"124 36 OFFCURVE",
"102 109 OFFCURVE",
"102 184 CURVE SMOOTH",
"102 305 OFFCURVE",
"159 431 OFFCURVE",
"244 450 CURVE",
"219 449 LINE",
"177 424 LINE",
"237 432 OFFCURVE",
"290 408 OFFCURVE",
"283 348 CURVE SMOOTH",
"277 295 OFFCURVE",
"213 271 OFFCURVE",
"92 285 CURVE"
);
}
);
};
layerId = "97AFB7C9-FE9A-4B33-96EF-7CD144DFB325";
paths = (
{
closed = 1;
nodes = (
"92 277 LINE",
"205 235 OFFCURVE",
"330 261 OFFCURVE",
"342 362 CURVE SMOOTH",
"349 415 OFFCURVE",
"309 458 OFFCURVE",
"240 458 CURVE SMOOTH",
"127 458 OFFCURVE",
"42 297 OFFCURVE",
"42 161 CURVE SMOOTH",
"42 44 OFFCURVE",
"102 -7 OFFCURVE",
"171 -7 CURVE SMOOTH",
"266 -7 OFFCURVE",
"319 88 OFFCURVE",
"322 135 CURVE",
"313 147 LINE",
"286 88 OFFCURVE",
"248 36 OFFCURVE",
"191 36 CURVE SMOOTH",
"125 36 OFFCURVE",
"102 109 OFFCURVE",
"102 191 CURVE SMOOTH",
"102 305 OFFCURVE",
"159 431 OFFCURVE",
"244 450 CURVE",
"219 449 LINE",
"177 420 LINE",
"237 426 OFFCURVE",
"290 408 OFFCURVE",
"283 348 CURVE SMOOTH",
"277 295 OFFCURVE",
"213 271 OFFCURVE",
"92 285 CURVE"
);
}
);
width = 377;
}
);
unicode = 0065;
},
{
glyphname = f;
lastChange = "2016-11-11 17:29:21 +0000";
layers = (
{
background = {
paths = (
{
closed = 1;
nodes = (
"28 -237 OFFCURVE",
"90 -145 OFFCURVE",
"114 1 CURVE SMOOTH",
"186 433 LINE SMOOTH",
"205 547 OFFCURVE",
"220 685 OFFCURVE",
"309 702 CURVE",
"290 704 LINE",
"240 674 LINE",
"305 682 OFFCURVE",
"346 663 OFFCURVE",
"362 656 CURVE",
"370 643 LINE",
"395 695 LINE",
"385 703 OFFCURVE",
"355 713 OFFCURVE",
"317 713 CURVE SMOOTH",
"205 713 OFFCURVE",
"158 605 OFFCURVE",
"131 440 CURVE SMOOTH",
"71 78 LINE SMOOTH",
"58 -1 OFFCURVE",
"36 -147 OFFCURVE",
"21 -175 CURVE",
"61 -143 LINE",
"64 -106 LINE",
"51 -154 OFFCURVE",
"-23 -194 OFFCURVE",
"-88 -204 CURVE",
"-88 -214 LINE",
"-86 -220 OFFCURVE",
"-54 -237 OFFCURVE",
"-44 -237 CURVE SMOOTH"
);
},
{
closed = 1;
nodes = (
"289 438 LINE",
"293 456 LINE",
"170 456 LINE",
"147 456 LINE",
"44 421 LINE",
"46 407 LINE"
);
},
{
closed = 1;
nodes = (
"347 585 LINE",
"395 695 LINE",
"340 705 LINE",
"333 585 LINE"
);
}
);
};
guideLines = (
{
angle = 80.594;
position = "{43, 484}";
},
{
angle = 80.594;
position = "{116, 440}";
}
);
layerId = "97AFB7C9-FE9A-4B33-96EF-7CD144DFB325";
paths = (
{
closed = 1;
nodes = (
"28 -237 OFFCURVE",
"90 -145 OFFCURVE",
"114 1 CURVE SMOOTH",
"186 433 LINE SMOOTH",
"205 547 OFFCURVE",
"220 685 OFFCURVE",
"309 702 CURVE",
"290 704 LINE",
"240 674 LINE",
"305 682 OFFCURVE",
"346 663 OFFCURVE",
"362 656 CURVE",
"370 643 LINE",
"395 695 LINE",
"385 703 OFFCURVE",
"355 713 OFFCURVE",
"317 713 CURVE SMOOTH",
"205 713 OFFCURVE",
"158 605 OFFCURVE",
"131 440 CURVE SMOOTH",
"71 78 LINE SMOOTH",
"58 -1 OFFCURVE",
"36 -147 OFFCURVE",
"21 -175 CURVE",
"61 -143 LINE",
"64 -106 LINE",
"51 -154 OFFCURVE",
"-23 -194 OFFCURVE",
"-88 -204 CURVE",
"-88 -214 LINE",
"-86 -220 OFFCURVE",
"-54 -237 OFFCURVE",
"-44 -237 CURVE SMOOTH"
);
},
{
closed = 1;
nodes = (
"347 585 LINE",
"395 695 LINE",
"340 705 LINE",
"333 585 LINE"
);
},
{
closed = 1;
nodes = (
"130 412 LINE",
"180 410 LINE",
"289 422 LINE",
"292 442 LINE",
"178 442 LINE",
"138 442 LINE",
"60 441 LINE",
"56 418 LINE"
);
}
);
width = 248;
}
);
unicode = 0066;
},
{
glyphname = g;
lastChange = "2016-11-11 17:29:21 +0000";
layers = (
{
anchors = (
{
name = bottom;
position = "{162, 0}";
},
{
name = top;
position = "{240, 451}";
}
);
background = {
paths = (
{
closed = 1;
nodes = (
"154 129 LINE",
"144 135 LINE",
"108 106 OFFCURVE",
"67 66 OFFCURVE",
"67 37 CURVE SMOOTH",
"67 -13 OFFCURVE",
"337 -52 OFFCURVE",
"337 -112 CURVE SMOOTH",
"337 -148 OFFCURVE",
"281 -197 OFFCURVE",
"216 -197 CURVE SMOOTH",
"73 -197 OFFCURVE",
"16 -121 OFFCURVE",
"2 -89 CURVE",
"-24 -98 LINE",
"-51 -166 OFFCURVE",
"34 -237 OFFCURVE",
"154 -237 CURVE SMOOTH",
"264 -237 OFFCURVE",
"377 -171 OFFCURVE",
"377 -76 CURVE SMOOTH",
"377 -19 OFFCURVE",
"195 18 OFFCURVE",
"97 65 CURVE",
"94 14 LINE"
);
},
{
closed = 1;
nodes = (
"403 440 LINE",
"390 480 LINE",
"306 426 LINE",
"298 406 LINE"
);
},
{
closed = 1;
nodes = (
"4 -123 LINE",
"22 -94 OFFCURVE",
"90 -20 OFFCURVE",
"119 0 CURVE",
"105 7 LINE",
"86 3 OFFCURVE",
"4 -63 OFFCURVE",
"-24 -98 CURVE"
);
},
{
closed = 1;
nodes = (
"272 112 OFFCURVE",
"336 236 OFFCURVE",
"336 335 CURVE SMOOTH",
"336 420 OFFCURVE",
"295 458 OFFCURVE",
"224 458 CURVE SMOOTH",
"131 458 OFFCURVE",
"68 334 OFFCURVE",
"68 235 CURVE SMOOTH",
"68 150 OFFCURVE",
"109 112 OFFCURVE",
"179 112 CURVE SMOOTH"
);
},
{
closed = 1;
nodes = (
"160 138 OFFCURVE",
"122 175 OFFCURVE",
"122 252 CURVE SMOOTH",
"122 369 OFFCURVE",
"178 446 OFFCURVE",
"226 446 CURVE",
"201 446 LINE",
"186 432 LINE",
"245 432 OFFCURVE",
"282 395 OFFCURVE",
"282 317 CURVE SMOOTH",
"282 201 OFFCURVE",
"227 124 OFFCURVE",
"178 124 CURVE",
"202 124 LINE",
"218 138 LINE"
);
}
);
};
guideLines = (
{
angle = 98.0901;
position = "{199, 306}";
}
);
layerId = "97AFB7C9-FE9A-4B33-96EF-7CD144DFB325";
paths = (
{
closed = 1;
nodes = (
"154 129 LINE",
"144 135 LINE",
"108 106 OFFCURVE",
"67 66 OFFCURVE",
"67 37 CURVE SMOOTH",
"67 -13 OFFCURVE",
"337 -52 OFFCURVE",
"337 -112 CURVE SMOOTH",
"337 -148 OFFCURVE",
"281 -197 OFFCURVE",
"216 -197 CURVE SMOOTH",
"121 -197 OFFCURVE",
"29 -151 OFFCURVE",
"2 -89 CURVE",
"-24 -98 LINE",
"-51 -166 OFFCURVE",
"34 -237 OFFCURVE",
"164 -237 CURVE SMOOTH",
"264 -237 OFFCURVE",
"377 -171 OFFCURVE",
"377 -76 CURVE SMOOTH",
"377 -19 OFFCURVE",
"195 18 OFFCURVE",
"97 65 CURVE",
"94 14 LINE"
);
},
{
closed = 1;
nodes = (
"403 440 LINE",
"390 480 LINE",
"306 426 LINE",
"298 406 LINE"
);
},
{
closed = 1;
nodes = (
"4 -123 LINE",
"22 -94 OFFCURVE",
"90 -20 OFFCURVE",
"119 0 CURVE",
"105 7 LINE",
"86 3 OFFCURVE",
"4 -63 OFFCURVE",
"-24 -98 CURVE"
);
},
{
closed = 1;
nodes = (
"272 112 OFFCURVE",
"336 236 OFFCURVE",
"336 335 CURVE SMOOTH",
"336 420 OFFCURVE",
"295 458 OFFCURVE",
"224 458 CURVE SMOOTH",
"133 458 OFFCURVE",
"68 334 OFFCURVE",
"68 235 CURVE SMOOTH",
"68 150 OFFCURVE",
"109 112 OFFCURVE",
"179 112 CURVE SMOOTH"
);
},
{
closed = 1;
nodes = (
"158 143 OFFCURVE",
"122 175 OFFCURVE",
"122 252 CURVE SMOOTH",
"122 369 OFFCURVE",
"180 446 OFFCURVE",
"223 446 CURVE",
"191 446 LINE",
"178 425 LINE",
"247 427 OFFCURVE",
"282 395 OFFCURVE",
"282 317 CURVE SMOOTH",
"282 201 OFFCURVE",
"225 124 OFFCURVE",
"181 124 CURVE",
"217 124 LINE",
"226 145 LINE"
);
}
);
width = 390;
}
);
unicode = 0067;
},
{
glyphname = h;
lastChange = "2016-11-11 17:29:21 +0000";
layers = (
{
anchors = (
{
name = bottom;
position = "{212, 0}";
},
{
name = center;
position = "{189, 565}";
},
{
name = top;
position = "{286, 451}";
}
);
background = {
paths = (
{
closed = 1;
nodes = (
"225 713 LINE",
"212 713 LINE",
"79 678 LINE",
"81 664 LINE",
"165 666 LINE"
);
}
);
};
components = (
{
name = _part.nnoga;
transform = "{1, 0, 0, 1, 2, 0}";
},
{
name = _part.SerifUpLeft;
transform = "{1, 0, 0, 1, -144, 257}";
piece = {
SerifLenght = -33;
};
}
);
guideLines = (
{
angle = 80.594;
position = "{164, 682}";
},
{
angle = 80.594;
position = "{225, 713}";
}
);
layerId = "97AFB7C9-FE9A-4B33-96EF-7CD144DFB325";
paths = (
{
closed = 1;
nodes = (
"109 12 LINE",
"225 713 LINE",
"164 682 LINE",
"50 -7 LINE"
);
}
);
width = 501;
}
);
rightMetricsKey = n;
unicode = 0068;
},
{
glyphname = i;
lastChange = "2016-11-11 17:29:21 +0000";
layers = (
{
background = {
paths = (
{
closed = 1;
nodes = (
"201 554 OFFCURVE",
"223 577 OFFCURVE",
"226 606 CURVE SMOOTH",
"229 635 OFFCURVE",
"211 659 OFFCURVE",
"187 659 CURVE SMOOTH",
"163 659 OFFCURVE",
"141 635 OFFCURVE",
"138 606 CURVE SMOOTH",
"135 577 OFFCURVE",
"154 554 OFFCURVE",
"177 554 CURVE SMOOTH"
);
},
{
closed = 1;
nodes = (
"132 431 LINE",
"88 182 LINE SMOOTH",
"72 91 OFFCURVE",
"54 -5 OFFCURVE",
"108 -5 CURVE SMOOTH",
"183 -5 OFFCURVE",
"240 107 OFFCURVE",
"240 135 CURVE",
"227 147 LINE",
"201 90 OFFCURVE",
"159 35 OFFCURVE",
"111 24 CURVE",
"125 16 LINE",
"126 54 OFFCURVE",
"128 105 OFFCURVE",
"148 218 CURVE SMOOTH",
"191 456 LINE"
);
},
{
closed = 1;
nodes = (
"191 456 LINE",
"178 456 LINE",
"45 421 LINE",
"47 407 LINE",
"131 409 LINE"
);
}
);
};
components = (
{
name = idotless;
transform = "{1, 0, 0, 1, -10, 0}";
}
);
layerId = "97AFB7C9-FE9A-4B33-96EF-7CD144DFB325";
paths = (
{
closed = 1;
nodes = (
"201 554 OFFCURVE",
"223 577 OFFCURVE",
"226 606 CURVE SMOOTH",
"229 635 OFFCURVE",
"211 659 OFFCURVE",
"187 659 CURVE SMOOTH",
"163 659 OFFCURVE",
"141 635 OFFCURVE",
"138 606 CURVE SMOOTH",
"135 577 OFFCURVE",
"154 554 OFFCURVE",
"177 554 CURVE SMOOTH"
);
}
);
width = 283;
}
);
rightMetricsKey = l;
unicode = 0069;
},
{
glyphname = idotless;
lastChange = "2016-11-11 17:29:21 +0000";
layers = (
{
anchors = (
{
name = bottom;
position = "{106, 0}";
},
{
name = ogonek;
position = "{199, 10}";
},
{
name = top;
position = "{177, 451}";
}
);
background = {
components = (
{
name = d;
transform = "{1, 0, 0, 1, -196, 0}";
}
);
};
components = (
{
name = _part.SerifUpLeft;
transform = "{1, 0, 0, 1, -168, 0}";
piece = {
SerifLenght = -33;
};
}
);
guideLines = (
{
angle = 80.594;
position = "{142, 431}";
},
{
angle = 80.594;
position = "{201, 456}";
}
);
layerId = "97AFB7C9-FE9A-4B33-96EF-7CD144DFB325";
paths = (
{
closed = 1;
nodes = (
"142 431 LINE",
"101 182 LINE SMOOTH",
"86 91 OFFCURVE",
"67 -5 OFFCURVE",
"121 -5 CURVE SMOOTH",
"201 -5 OFFCURVE",
"249 107 OFFCURVE",
"249 135 CURVE",
"240 147 LINE",
"214 90 OFFCURVE",
"173 36 OFFCURVE",
"115 36 CURVE",
"138 16 LINE",
"139 54 OFFCURVE",
"143 105 OFFCURVE",
"162 218 CURVE SMOOTH",
"201 456 LINE"
);
}
);
width = 285;
}
);
unicode = 0131;
},
{
glyphname = j;
lastChange = "2016-11-11 17:29:21 +0000";
layers = (
{
background = {
paths = (
{
closed = 1;
nodes = (
"133 409 LINE",
"193 456 LINE",
"180 456 LINE",
"47 421 LINE",
"49 407 LINE"
);
}
);
};
components = (
{
name = jdotless;
transform = "{1, 0, 0, 1, -8, 0}";
}
);
layerId = "97AFB7C9-FE9A-4B33-96EF-7CD144DFB325";
paths = (
{
closed = 1;
nodes = (
"203 554 OFFCURVE",
"225 577 OFFCURVE",
"228 606 CURVE SMOOTH",
"231 635 OFFCURVE",
"213 659 OFFCURVE",
"189 659 CURVE SMOOTH",
"165 659 OFFCURVE",
"143 635 OFFCURVE",
"140 606 CURVE SMOOTH",
"137 577 OFFCURVE",
"156 554 OFFCURVE",
"179 554 CURVE SMOOTH"
);
}
);
width = 245;
}
);
unicode = 006A;
},
{
glyphname = jdotless;
lastChange = "2016-11-11 17:29:21 +0000";
layers = (
{
anchors = (
{
name = bottom;
position = "{89, 0}";
},
{
name = top;
position = "{163, 451}";
}
);
components = (
{
name = _part.SerifUpLeft;
transform = "{1, 0, 0, 1, -168, 0}";
piece = {
SerifLenght = -33;
};
}
);
layerId = "97AFB7C9-FE9A-4B33-96EF-7CD144DFB325";
paths = (
{
closed = 1;
nodes = (
"41 -175 OFFCURVE",
"114 -94 OFFCURVE",
"130 5 CURVE SMOOTH",
"201 456 LINE",
"186 456 LINE",
"141 431 LINE",
"81 43 LINE SMOOTH",
"60 -90 OFFCURVE",
"22 -139 OFFCURVE",
"-39 -218 CURVE",
"-25 -229 LINE"
);
}
);
width = 251;
}
);
unicode = 0237;
},
{
glyphname = k;
lastChange = "2016-11-11 17:29:21 +0000";
layers = (
{
anchors = (
{
name = bottom;
position = "{189, 0}";
},
{
name = top;
position = "{252, 451}";
}
);
background = {
paths = (
{
closed = 1;
nodes = (
"109 12 LINE",
"225 713 LINE",
"162 667 LINE",
"51 -7 LINE"
);
},
{
closed = 1;
nodes = (
"235 52 LINE SMOOTH",
"247 2 OFFCURVE",
"264 -5 OFFCURVE",
"278 -5 CURVE SMOOTH",
"354 -5 OFFCURVE",
"407 99 OFFCURVE",
"407 135 CURVE",
"398 147 LINE",
"375.738 98.194 OFFCURVE",
"341.745 51.588 OFFCURVE",
"296.022 39.197 CURVE",
"245 260 LINE",
"228 241 LINE",
"277 261 OFFCURVE",
"391 312 OFFCURVE",
"391 411 CURVE SMOOTH",
"391 427 OFFCURVE",
"389 441 OFFCURVE",
"385 455 CURVE",
"363 454 OFFCURVE",
"330 441 OFFCURVE",
"315 428 CURVE",
"319.874 405.091 OFFCURVE",
"322.135 379.806 OFFCURVE",
"321.878 354.462 CURVE",
"284.347 291.639 OFFCURVE",
"227.286 256.26 OFFCURVE",
"191 233 CURVE"
);
}
);
};
components = (
{
name = _part.SerifUpLeft;
transform = "{1, 0, 0, 1, -144, 257}";
piece = {
SerifLenght = -33;
};
}
);
layerId = "97AFB7C9-FE9A-4B33-96EF-7CD144DFB325";
paths = (
{
closed = 1;
nodes = (
"109 12 LINE",
"225 713 LINE",
"162 667 LINE",
"51 -7 LINE"
);
},
{
closed = 1;
nodes = (
"235 52 LINE SMOOTH",
"247 2 OFFCURVE",
"264 -5 OFFCURVE",
"278 -5 CURVE SMOOTH",
"354 -5 OFFCURVE",
"407 99 OFFCURVE",
"407 135 CURVE",
"398 147 LINE",
"375.738 98.194 OFFCURVE",
"341.745 51.588 OFFCURVE",
"296.022 39.197 CURVE",
"245 260 LINE",
"228 238 LINE",
"277 258 OFFCURVE",
"391 322 OFFCURVE",
"391 417 CURVE SMOOTH",
"391 428 OFFCURVE",
"389 441 OFFCURVE",
"385 455 CURVE",
"363 454 OFFCURVE",
"330 441 OFFCURVE",
"315 428 CURVE",
"322 396 OFFCURVE",
"324 359 OFFCURVE",
"320 324 CURVE",
"359 354 LINE",
"339 387 LINE",
"304 304 OFFCURVE",
"233 260 OFFCURVE",
"191 233 CURVE"
);
}
);
width = 444;
},
{
anchors = (
{
name = bottom;
position = "{189, 0}";
},
{
name = top;
position = "{252, 451}";
}
);
associatedMasterId = "97AFB7C9-FE9A-4B33-96EF-7CD144DFB325";
background = {
paths = (
{
closed = 1;
nodes = (
"109 12 LINE",
"225 713 LINE",
"162 667 LINE",
"51 -7 LINE"
);
},
{
closed = 1;
nodes = (
"235 52 LINE SMOOTH",
"247 2 OFFCURVE",
"264 -5 OFFCURVE",
"278 -5 CURVE SMOOTH",
"354 -5 OFFCURVE",
"407 99 OFFCURVE",
"407 135 CURVE",
"398 147 LINE",
"372 90 OFFCURVE",
"330 36 OFFCURVE",
"272 36 CURVE",
"303 9 LINE",
"245 260 LINE",
"228 241 LINE",
"282 262 OFFCURVE",
"376 309 OFFCURVE",
"390 393 CURVE SMOOTH",
"398 440 OFFCURVE",
"356 463 OFFCURVE",
"338 458 CURVE",
"327 394 LINE SMOOTH",
"322 364 OFFCURVE",
"317 339 OFFCURVE",
"313 324 CURVE",
"344 339 LINE",
"330 369 LINE",
"293 297 OFFCURVE",
"230 258 OFFCURVE",
"191 233 CURVE"
);
}
);
};
components = (
{
name = _part.SerifUpLeft;
transform = "{1, 0, 0, 1, -144, 257}";
piece = {
SerifLenght = -33;
};
}
);
layerId = "637F012B-931C-4C77-AFA3-4C3ABAAB1EFC";
name = "Light Italic Nov 11 16, 17:41";
paths = (
{
closed = 1;
nodes = (
"109 12 LINE",
"225 713 LINE",
"162 667 LINE",
"51 -7 LINE"
);
},
{
closed = 1;
nodes = (
"235 52 LINE SMOOTH",
"247 2 OFFCURVE",
"264 -5 OFFCURVE",
"278 -5 CURVE SMOOTH",
"354 -5 OFFCURVE",
"407 99 OFFCURVE",
"407 135 CURVE",
"398 147 LINE",
"372 90 OFFCURVE",
"330 36 OFFCURVE",
"272 36 CURVE",
"303 9 LINE",
"245 260 LINE",
"228 241 LINE",
"282 262 OFFCURVE",
"376 309 OFFCURVE",
"390 393 CURVE SMOOTH",
"398 440 OFFCURVE",
"356 463 OFFCURVE",
"338 458 CURVE",
"327 394 LINE SMOOTH",
"322 364 OFFCURVE",
"317 339 OFFCURVE",
"313 324 CURVE",
"344 339 LINE",
"330 369 LINE",
"293 297 OFFCURVE",
"230 258 OFFCURVE",
"191 233 CURVE"
);
}
);
width = 444;
}
);
leftMetricsKey = h;
unicode = 006B;
},
{
glyphname = l;
lastChange = "2016-11-11 17:29:21 +0000";
layers = (
{
anchors = (
{
name = bottom;
position = "{106, 0}";
},
{
name = center;
position = "{140, 226}";
},
{
name = top;
position = "{167, 679}";
},
{
name = topright;
position = "{342, 711}";
}
);
background = {
anchors = (
{
name = bottom;
position = "{106, 0}";
},
{
name = center;
position = "{140, 226}";
},
{
name = top;
position = "{203, 679}";
},
{
name = topright;
position = "{342, 711}";
}
);
components = (
{
name = _part.SerifUpLeft;
transform = "{1, 0, 0, 1, -144, 257}";
piece = {
SerifLenght = -33;
};
}
);
paths = (
{
closed = 1;
nodes = (
"177 -5 OFFCURVE",
"230 101 OFFCURVE",
"230 135 CURVE",
"221 147 LINE",
"195 90 OFFCURVE",
"153 38 OFFCURVE",
"95 24 CURVE",
"119 16 LINE",
"120 54 OFFCURVE",
"124 106 OFFCURVE",
"143 218 CURVE SMOOTH",
"225 713 LINE",
"162 667 LINE",
"82 182 LINE SMOOTH",
"67 92 OFFCURVE",
"48 -5 OFFCURVE",
"102 -5 CURVE SMOOTH"
);
}
);
};
components = (
{
name = _part.SerifUpLeft;
transform = "{1, 0, 0, 1, -144, 257}";
piece = {
SerifLenght = -33;
};
}
);
guideLines = (
{
angle = 80.594;
position = "{184, 466}";
},
{
angle = 80.594;
position = "{162, 667}";
}
);
layerId = "97AFB7C9-FE9A-4B33-96EF-7CD144DFB325";
paths = (
{
closed = 1;
nodes = (
"177 -5 OFFCURVE",
"230 101 OFFCURVE",
"230 135 CURVE",
"221 147 LINE",
"195 90 OFFCURVE",
"154 36 OFFCURVE",
"95 36 CURVE",
"119 16 LINE",
"120 54 OFFCURVE",
"124 106 OFFCURVE",
"143 218 CURVE SMOOTH",
"225 713 LINE",
"162 667 LINE",
"82 182 LINE SMOOTH",
"67 92 OFFCURVE",
"48 -5 OFFCURVE",
"102 -5 CURVE SMOOTH"
);
}
);
width = 275;
}
);
leftMetricsKey = h;
unicode = 006C;
},
{
glyphname = lslash;
lastChange = "2016-11-11 17:29:21 +0000";
layers = (
{
components = (
{
name = l;
transform = "{1, 0, 0, 1, 7, 0}";
}
);
layerId = "97AFB7C9-FE9A-4B33-96EF-7CD144DFB325";
paths = (
{
closed = 1;
nodes = (
"24 243 LINE",
"294 456 LINE",
"281 478 LINE",
"11 266 LINE"
);
}
);
width = 285;
}
);
unicode = 0142;
},
{
glyphname = m;
lastChange = "2016-11-11 17:29:21 +0000";
layers = (
{
background = {
components = (
{
name = n;
}
);
};
components = (
{
name = _part.SerifUpLeft;
transform = "{1, 0, 0, 1, -178, 0}";
},
{
name = _part.mnoga1;
transform = "{1, 0, 0, 1, 8, 0}";
},
{
name = _part.nnoga;
transform = "{1, 0, 0, 1, 261, 0}";
}
);
layerId = "97AFB7C9-FE9A-4B33-96EF-7CD144DFB325";
paths = (
{
closed = 1;
nodes = (
"117 12 LINE",
"191 456 LINE",
"128 425 LINE",
"57 -7 LINE"
);
},
{
closed = 0;
nodes = (
"369 12 LINE"
);
}
);
width = 760;
}
);
leftMetricsKey = n;
rightMetricsKey = n;
unicode = 006D;
},
{
glyphname = n;
lastChange = "2016-11-11 17:29:21 +0000";
layers = (
{
anchors = (
{
name = bottom;
position = "{220, 0}";
},
{
name = top;
position = "{309, 451}";
}
);
background = {
paths = (
{
closed = 1;
nodes = (
"116 12 LINE",
"135 118 OFFCURVE",
"176 353 OFFCURVE",
"191 456 CURVE",
"128 425 LINE",
"113 302 OFFCURVE",
"79 113 OFFCURVE",
"57 -7 CURVE"
);
}
);
};
components = (
{
name = _part.nnoga;
transform = "{1, 0, 0, 1, 8, 0}";
},
{
name = _part.SerifUpLeft;
transform = "{1, 0, 0, 1, -178, 0}";
}
);
guideLines = (
{
angle = 80.594;
position = "{128, 425}";
},
{
angle = 80.594;
position = "{191, 456}";
}
);
layerId = "97AFB7C9-FE9A-4B33-96EF-7CD144DFB325";
paths = (
{
closed = 1;
nodes = (
"117 12 LINE",
"191 456 LINE",
"128 425 LINE",
"57 -7 LINE"
);
}
);
width = 507;
}
);
unicode = 006E;
},
{
glyphname = eng;
lastChange = "2016-11-11 17:31:00 +0000";
layers = (
{
background = {
components = (
{
name = n;
transform = "{1, 0, 0, 1, -3, 0}";
}
);
};
components = (
{
name = _part.SerifUpLeft;
transform = "{1, 0, 0, 1, -181, 0}";
}
);
guideLines = (
{
angle = 80.594;
position = "{308, -7}";
},
{
angle = 80.594;
position = "{410, 269}";
}
);
layerId = "97AFB7C9-FE9A-4B33-96EF-7CD144DFB325";
paths = (
{
closed = 1;
nodes = (
"114 12 LINE",
"188 456 LINE",
"125 425 LINE",
"54 -7 LINE"
);
},
{
closed = 1;
nodes = (
"431 398 OFFCURVE",
"415 458 OFFCURVE",
"353 458 CURVE SMOOTH",
"248 458 OFFCURVE",
"158 302 OFFCURVE",
"127 139 CURVE",
"131 127 LINE",
"169 292 OFFCURVE",
"274 417 OFFCURVE",
"373 422 CURVE",
"357 444 LINE",
"328 437 LINE",
"365 418 OFFCURVE",
"368 353 OFFCURVE",
"348 233 CURVE SMOOTH",
"315 37 LINE SMOOTH",
"300 -50 OFFCURVE",
"286 -145 OFFCURVE",
"272 -175 CURVE",
"312 -143 LINE",
"315 -107 LINE",
"302 -155 OFFCURVE",
"226 -193 OFFCURVE",
"163 -204 CURVE",
"163 -214 LINE",
"173 -225 OFFCURVE",
"197 -237 OFFCURVE",
"210 -237 CURVE SMOOTH",
"272 -237 OFFCURVE",
"340 -155 OFFCURVE",
"365 -1 CURVE SMOOTH",
"410 269 LINE SMOOTH"
);
}
);
width = 501;
}
);
unicode = 014B;
},
{
glyphname = o;
lastChange = "2016-11-11 17:31:03 +0000";
layers = (
{
anchors = (
{
name = bottom;
position = "{174, 0}";
},
{
name = center;
position = "{211, 226}";
},
{
name = ogonek;
position = "{342, 10}";
},
{
name = top;
position = "{256, 451}";
},
{
name = topright;
position = "{438, 451}";
}
);
background = {
paths = (
{
closed = 1;
nodes = (
"304 -7 OFFCURVE",
"387 160 OFFCURVE",
"387 293 CURVE SMOOTH",
"387 407 OFFCURVE",
"326 458 OFFCURVE",
"240 458 CURVE SMOOTH",
"125 458 OFFCURVE",
"42 291 OFFCURVE",
"42 158 CURVE SMOOTH",
"42 44 OFFCURVE",
"103 -7 OFFCURVE",
"194 -7 CURVE SMOOTH"
);
},
{
closed = 1;
nodes = (
"160 27 OFFCURVE",
"102 67 OFFCURVE",
"102 181 CURVE SMOOTH",
"102 341 OFFCURVE",
"189 447 OFFCURVE",
"235 447 CURVE",
"219 447 LINE",
"179 421 LINE",
"279 424 OFFCURVE",
"327 378 OFFCURVE",
"327 270 CURVE SMOOTH",
"327 111 OFFCURVE",
"242 4 OFFCURVE",
"195 4 CURVE",
"211 4 LINE",
"251 30 LINE"
);
}
);
};
guideLines = (
{
angle = 98.0901;
position = "{215, 226}";
}
);
layerId = "97AFB7C9-FE9A-4B33-96EF-7CD144DFB325";
paths = (
{
closed = 1;
nodes = (
"304 -7 OFFCURVE",
"387 160 OFFCURVE",
"387 293 CURVE SMOOTH",
"387 407 OFFCURVE",
"326 458 OFFCURVE",
"240 458 CURVE SMOOTH",
"125 458 OFFCURVE",
"42 291 OFFCURVE",
"42 158 CURVE SMOOTH",
"42 44 OFFCURVE",
"103 -7 OFFCURVE",
"194 -7 CURVE SMOOTH"
);
},
{
closed = 1;
nodes = (
"160 27 OFFCURVE",
"102 67 OFFCURVE",
"102 181 CURVE SMOOTH",
"102 341 OFFCURVE",
"189 447 OFFCURVE",
"235 447 CURVE",
"219 447 LINE",
"179 421 LINE",
"279 424 OFFCURVE",
"327 378 OFFCURVE",
"327 270 CURVE SMOOTH",
"327 111 OFFCURVE",
"242 4 OFFCURVE",
"195 4 CURVE",
"211 4 LINE",
"251 30 LINE"
);
}
);
width = 429;
}
);
unicode = 006F;
},
{
glyphname = oe;
lastChange = "2016-11-11 17:29:21 +0000";
layers = (
{
background = {
components = (
{
name = o;
}
);
};
components = (
{
name = e;
transform = "{1, 0, 0, 1, 277, 0}";
}
);
layerId = "97AFB7C9-FE9A-4B33-96EF-7CD144DFB325";
paths = (
{
closed = 1;
nodes = (
"304 -7 OFFCURVE",
"387 160 OFFCURVE",
"387 293 CURVE SMOOTH",
"387 407 OFFCURVE",
"326 458 OFFCURVE",
"240 458 CURVE SMOOTH",
"125 458 OFFCURVE",
"42 291 OFFCURVE",
"42 158 CURVE SMOOTH",
"42 44 OFFCURVE",
"103 -7 OFFCURVE",
"194 -7 CURVE SMOOTH"
);
},
{
closed = 1;
nodes = (
"160 27 OFFCURVE",
"102 67 OFFCURVE",
"102 181 CURVE SMOOTH",
"102 341 OFFCURVE",
"189 447 OFFCURVE",
"235 447 CURVE",
"219 447 LINE",
"179 421 LINE",
"279 424 OFFCURVE",
"327 378 OFFCURVE",
"327 270 CURVE SMOOTH",
"327 111 OFFCURVE",
"242 4 OFFCURVE",
"195 4 CURVE",
"211 4 LINE",
"251 30 LINE"
);
}
);
width = 654;
}
);
leftMetricsKey = o;
rightMetricsKey = e;
unicode = 0153;
},
{
glyphname = p;
lastChange = "2016-11-11 17:29:21 +0000";
layers = (
{
background = {
paths = (
{
closed = 1;
nodes = (
"37 -224 LINE",
"89 -193 LINE",
"195 456 LINE",
"132 410 LINE",
"28 -224 LINE"
);
}
);
};
components = (
{
name = _part.brzuszek;
transform = "{1, 0, 0, 1, 6, 0}";
},
{
name = _part.SerifUpLeft;
transform = "{1, 0, 0, 1, -174, 0}";
piece = {
SerifLenght = -33;
};
},
{
name = _part.SerifBottomRight3;
transform = "{1, 0, 0, 1, -201, -13}";
}
);
layerId = "97AFB7C9-FE9A-4B33-96EF-7CD144DFB325";
paths = (
{
closed = 1;
nodes = (
"35 -237 LINE",
"87 -206 LINE",
"195 456 LINE",
"132 410 LINE",
"26 -237 LINE"
);
}
);
width = 464;
}
);
rightMetricsKey = b;
unicode = 0070;
},
{
glyphname = thorn;
lastChange = "2016-11-11 17:31:11 +0000";
layers = (
{
background = {
paths = (
{
closed = 1;
nodes = (
"41 -224 LINE",
"93 -193 LINE",
"199 456 LINE",
"136 410 LINE",
"32 -224 LINE"
);
}
);
};
components = (
{
name = _part.brzuszek;
transform = "{1, 0, 0, 1, 10, 0}";
},
{
name = _part.SerifUpLeft;
transform = "{1, 0, 0, 1, -128, 257}";
piece = {
SerifLenght = -33;
};
},
{
name = _part.SerifBottomRight3;
transform = "{1, 0, 0, 1, -195, 0}";
}
);
layerId = "97AFB7C9-FE9A-4B33-96EF-7CD144DFB325";
paths = (
{
closed = 1;
nodes = (
"41 -224 LINE",
"93 -193 LINE",
"241 713 LINE",
"178 667 LINE",
"32 -224 LINE"
);
}
);
width = 468;
}
);
rightMetricsKey = p;
unicode = 00FE;
},
{
glyphname = q;
lastChange = "2016-11-11 17:29:21 +0000";
layers = (
{
background = {
paths = (
{
closed = 1;
nodes = (
"400 456 LINE",
"385 456 LINE",
"335 398 LINE",
"233 -224 LINE",
"242 -224 LINE",
"293 -199 LINE"
);
}
);
};
components = (
{
name = _part.brzuszek;
transform = "{-1, 0, 0, -1, 458, 451}";
},
{
name = _part.SerifBottomRight3;
transform = "{1, 0, 0, 1, 4, -13}";
}
);
layerId = "97AFB7C9-FE9A-4B33-96EF-7CD144DFB325";
paths = (
{
closed = 1;
nodes = (
"400 456 LINE",
"385 456 LINE",
"335 398 LINE",
"231 -237 LINE",
"240 -237 LINE",
"291 -212 LINE"
);
}
);
width = 454;
}
);
leftMetricsKey = a;
unicode = 0071;
},
{
glyphname = r;
lastChange = "2016-11-11 17:29:21 +0000";
layers = (
{
anchors = (
{
name = bottom;
position = "{88, 0}";
},
{
name = top;
position = "{250, 451}";
}
);
background = {
anchors = (
{
name = bottom;
position = "{88, 0}";
},
{
name = top;
position = "{250, 451}";
}
);
components = (
{
name = _part.SerifUpLeft;
transform = "{1, 0, 0, 1, -178, 0}";
}
);
paths = (
{
closed = 1;
nodes = (
"174 292 OFFCURVE",
"277 416 OFFCURVE",
"365 425 CURVE",
"323 444 LINE",
"293 415 LINE",
"381 441 LINE",
"381 441 OFFCURVE",
"368 458 OFFCURVE",
"339 458 CURVE SMOOTH",
"257 458 OFFCURVE",
"163 302 OFFCURVE",
"132 139 CURVE",
"136 127 LINE"
);
},
{
closed = 1;
nodes = (
"118 12 LINE",
"191 456 LINE",
"130 425 LINE",
"58 -7 LINE"
);
},
{
closed = 1;
nodes = (
"334 312 LINE",
"381 441 LINE",
"318 441 LINE",
"319 308 LINE"
);
}
);
};
components = (
{
name = _part.SerifUpLeft;
transform = "{1, 0, 0, 1, -178, 0}";
}
);
guideLines = (
{
angle = 80.594;
position = "{58, -7}";
},
{
angle = 80.594;
position = "{130, 425}";
},
{
angle = 80.594;
position = "{191, 456}";
}
);
layerId = "97AFB7C9-FE9A-4B33-96EF-7CD144DFB325";
paths = (
{
closed = 1;
nodes = (
"174 292 OFFCURVE",
"277 416 OFFCURVE",
"365 425 CURVE",
"323 444 LINE",
"293 415 LINE",
"381 441 LINE",
"381 441 OFFCURVE",
"368 458 OFFCURVE",
"339 458 CURVE SMOOTH",
"257 458 OFFCURVE",
"163 302 OFFCURVE",
"132 139 CURVE",
"136 127 LINE"
);
},
{
closed = 1;
nodes = (
"118 12 LINE",
"191 456 LINE",
"130 425 LINE",
"58 -7 LINE"
);
},
{
closed = 1;
nodes = (
"335 323 LINE",
"381 441 LINE",
"318 441 LINE",
"320 319 LINE"
);
}
);
width = 360;
}
);
leftMetricsKey = n;
unicode = 0072;
},
{
glyphname = s;
lastChange = "2016-11-11 17:29:21 +0000";
layers = (
{
anchors = (
{
name = bottom;
position = "{152, 0}";
},
{
name = top;
position = "{234, 451}";
}
);
background = {
anchors = (
{
name = bottom;
position = "{146, 0}";
},
{
name = top;
position = "{234, 451}";
}
);
paths = (
{
closed = 1;
nodes = (
"279 -7 OFFCURVE",
"317 88 OFFCURVE",
"317 136 CURVE SMOOTH",
"317 241 OFFCURVE",
"117 275 OFFCURVE",
"117 357 CURVE SMOOTH",
"117 388 OFFCURVE",
"139 417 OFFCURVE",
"169 442 CURVE",
"142 430 LINE",
"121 409 LINE",
"157 431 OFFCURVE",
"274 421 OFFCURVE",
"305 377 CURVE",
"322 398 LINE",
"345 422 LINE",
"334 432 OFFCURVE",
"291 458 OFFCURVE",
"228 458 CURVE SMOOTH",
"115 458 OFFCURVE",
"71 371 OFFCURVE",
"71 322 CURVE SMOOTH",
"71 228 OFFCURVE",
"274 197 OFFCURVE",
"274 102 CURVE SMOOTH",
"274 67 OFFCURVE",
"247 45 OFFCURVE",
"220 16 CURVE",
"247 21 LINE",
"260 41 LINE",
"215 9 OFFCURVE",
"75 41 OFFCURVE",
"62 103 CURVE",
"22 64 LINE",
"23 43 OFFCURVE",
"66 -7 OFFCURVE",
"166 -7 CURVE SMOOTH"
);
},
{
closed = 1;
nodes = (
"77 143 LINE",
"69 156 LINE",
"22 64 LINE",
"44 68 LINE",
"64 45 LINE"
);
},
{
closed = 1;
nodes = (
"300 323 LINE",
"345 422 LINE",
"292 427 LINE",
"286 319 LINE"
);
}
);
};
layerId = "97AFB7C9-FE9A-4B33-96EF-7CD144DFB325";
paths = (
{
closed = 1;
nodes = (
"279 -7 OFFCURVE",
"317 88 OFFCURVE",
"317 136 CURVE SMOOTH",
"317 241 OFFCURVE",
"117 275 OFFCURVE",
"117 357 CURVE SMOOTH",
"117 388 OFFCURVE",
"139 417 OFFCURVE",
"169 442 CURVE",
"142 430 LINE",
"121 409 LINE",
"157 431 OFFCURVE",
"274 421 OFFCURVE",
"305 377 CURVE",
"322 398 LINE",
"345 422 LINE",
"334 432 OFFCURVE",
"291 458 OFFCURVE",
"228 458 CURVE SMOOTH",
"115 458 OFFCURVE",
"71 371 OFFCURVE",
"71 322 CURVE SMOOTH",
"71 228 OFFCURVE",
"274 197 OFFCURVE",
"274 102 CURVE SMOOTH",
"274 67 OFFCURVE",
"252 45 OFFCURVE",
"225 16 CURVE",
"247 21 LINE",
"260 41 LINE",
"215 27 OFFCURVE",
"90 39 OFFCURVE",
"42 98 CURVE",
"22 64 LINE",
"23 43 OFFCURVE",
"66 -7 OFFCURVE",
"166 -7 CURVE SMOOTH"
);
},
{
closed = 1;
nodes = (
"77 143 LINE",
"69 156 LINE",
"22 64 LINE",
"44 68 LINE",
"64 45 LINE"
);
},
{
closed = 1;
nodes = (
"300 323 LINE",
"345 422 LINE",
"292 427 LINE",
"286 319 LINE"
);
}
);
width = 373;
}
);
unicode = 0073;
},
{
glyphname = germandbls;
lastChange = "2016-11-11 17:29:21 +0000";
layers = (
{
background = {
components = (
{
name = s;
transform = "{1, 0, 0, 1, 172, 0}";
}
);
};
guideLines = (
{
angle = 80.594;
position = "{412, 613}";
}
);
layerId = "97AFB7C9-FE9A-4B33-96EF-7CD144DFB325";
paths = (
{
closed = 1;
nodes = (
"264 354 LINE",
"356 241 OFFCURVE",
"436 151 OFFCURVE",
"436 87 CURVE SMOOTH",
"436 47 OFFCURVE",
"412 23 OFFCURVE",
"357 5 CURVE",
"420 20 LINE",
"431 40 LINE",
"329 25 OFFCURVE",
"247 59 OFFCURVE",
"214 98 CURVE",
"194 64 LINE",
"194 41 OFFCURVE",
"243 -7 OFFCURVE",
"333 -7 CURVE SMOOTH",
"441 -7 OFFCURVE",
"486 71 OFFCURVE",
"486 119 CURVE SMOOTH",
"486 186 OFFCURVE",
"409 277 OFFCURVE",
"318 388 CURVE"
);
},
{
closed = 1;
nodes = (
"219 68 LINE",
"243 35 LINE",
"249 142 LINE",
"241 155 LINE",
"194 64 LINE"
);
},
{
closed = 1;
nodes = (
"334 689 OFFCURVE",
"429 642 OFFCURVE",
"469 583 CURVE",
"437 669 LINE",
"427 613 LINE SMOOTH",
"417 557 OFFCURVE",
"381 448 OFFCURVE",
"264 354 CURVE",
"319 381 LINE",
"371 414 OFFCURVE",
"470 504 OFFCURVE",
"487 599 CURVE SMOOTH",
"498 664 OFFCURVE",
"421 713 OFFCURVE",
"332 713 CURVE SMOOTH",
"200 713 OFFCURVE",
"156 605 OFFCURVE",
"129 440 CURVE SMOOTH",
"67 67 LINE SMOOTH",
"54 -12 OFFCURVE",
"33 -157 OFFCURVE",
"18 -185 CURVE",
"57 -154 LINE",
"60 -117 LINE",
"47 -165 OFFCURVE",
"-27 -205 OFFCURVE",
"-85 -215 CURVE",
"-92 -225 LINE",
"-87 -240 OFFCURVE",
"-67 -248 OFFCURVE",
"-43 -248 CURVE SMOOTH",
"24 -248 OFFCURVE",
"86 -156 OFFCURVE",
"110 -10 CURVE SMOOTH",
"184 433 LINE SMOOTH",
"203 547 OFFCURVE",
"218 685 OFFCURVE",
"307 702 CURVE",
"288 704 LINE",
"244 676 LINE"
);
},
{
closed = 1;
nodes = (
"128 412 LINE",
"178 410 LINE",
"176 442 LINE",
"136 442 LINE",
"58 441 LINE",
"54 418 LINE"
);
}
);
width = 545;
}
);
leftMetricsKey = f;
rightMetricsKey = s;
unicode = 00DF;
},
{
glyphname = t;
lastChange = "2016-11-11 17:29:21 +0000";
layers = (
{
anchors = (
{
name = bottom;
position = "{131, 0}";
},
{
name = center;
position = "{157, 281}";
},
{
name = top;
position = "{188, 451}";
},
{
name = topright;
position = "{328, 711}";
}
);
background = {
paths = (
{
closed = 1;
nodes = (
"192 589 LINE",
"136 451 LINE",
"133 430 LINE",
"92 182 LINE SMOOTH",
"77 92 OFFCURVE",
"58 -5 OFFCURVE",
"112 -5 CURVE SMOOTH",
"187 -5 OFFCURVE",
"240 101 OFFCURVE",
"240 135 CURVE",
"231 147 LINE",
"205 90 OFFCURVE",
"164 36 OFFCURVE",
"105 36 CURVE",
"129 16 LINE",
"130 54 OFFCURVE",
"134 106 OFFCURVE",
"153 218 CURVE SMOOTH",
"215 589 LINE"
);
},
{
closed = 1;
nodes = (
"130 410 LINE",
"174 410 LINE",
"289 418 LINE",
"292 438 LINE",
"178 438 LINE",
"55 438 LINE",
"51 416 LINE"
);
}
);
};
guideLines = (
{
angle = 80.594;
position = "{92, 182}";
},
{
angle = 80.594;
position = "{153, 218}";
}
);
layerId = "97AFB7C9-FE9A-4B33-96EF-7CD144DFB325";
paths = (
{
closed = 1;
nodes = (
"192 589 LINE",
"132 441 LINE",
"133 430 LINE",
"92 182 LINE SMOOTH",
"77 92 OFFCURVE",
"58 -5 OFFCURVE",
"112 -5 CURVE SMOOTH",
"187 -5 OFFCURVE",
"240 101 OFFCURVE",
"240 135 CURVE",
"231 147 LINE",
"205 90 OFFCURVE",
"164 36 OFFCURVE",
"105 36 CURVE",
"129 16 LINE",
"130 54 OFFCURVE",
"134 106 OFFCURVE",
"153 218 CURVE SMOOTH",
"215 589 LINE"
);
},
{
closed = 1;
nodes = (
"130 412 LINE",
"180 410 LINE",
"289 422 LINE",
"292 442 LINE",
"178 442 LINE",
"138 442 LINE",
"60 441 LINE",
"56 418 LINE"
);
}
);
width = 305;
},
{
anchors = (
{
name = bottom;
position = "{131, 0}";
},
{
name = center;
position = "{157, 281}";
},
{
name = top;
position = "{188, 451}";
},
{
name = topright;
position = "{328, 711}";
}
);
associatedMasterId = "97AFB7C9-FE9A-4B33-96EF-7CD144DFB325";
background = {
paths = (
{
closed = 1;
nodes = (
"200 589 LINE",
"150 532 LINE",
"141 480 LINE",
"92 182 LINE SMOOTH",
"77 92 OFFCURVE",
"58 -5 OFFCURVE",
"112 -5 CURVE SMOOTH",
"187 -5 OFFCURVE",
"240 101 OFFCURVE",
"240 135 CURVE",
"231 147 LINE",
"205 90 OFFCURVE",
"163 38 OFFCURVE",
"105 24 CURVE",
"129 16 LINE",
"130 54 OFFCURVE",
"134 106 OFFCURVE",
"153 218 CURVE SMOOTH",
"215 589 LINE"
);
},
{
closed = 1;
nodes = (
"193 456 LINE",
"180 456 LINE",
"47 421 LINE",
"49 407 LINE",
"133 409 LINE"
);
}
);
};
guideLines = (
{
angle = 80.594;
position = "{92, 182}";
},
{
angle = 80.594;
position = "{153, 218}";
}
);
layerId = "BEAB4F75-71B5-496D-AC1D-0C36A64A5ED3";
name = "Light Italic Oct 16 16, 20:07";
paths = (
{
closed = 1;
nodes = (
"192 589 LINE",
"136 451 LINE",
"133 431 LINE",
"92 182 LINE SMOOTH",
"77 92 OFFCURVE",
"58 -5 OFFCURVE",
"112 -5 CURVE SMOOTH",
"187 -5 OFFCURVE",
"240 101 OFFCURVE",
"240 135 CURVE",
"231 147 LINE",
"205 90 OFFCURVE",
"164 36 OFFCURVE",
"105 36 CURVE",
"129 16 LINE",
"130 54 OFFCURVE",
"134 106 OFFCURVE",
"153 218 CURVE SMOOTH",
"215 589 LINE"
);
},
{
closed = 1;
nodes = (
"293 438 LINE",
"296 456 LINE",
"173 456 LINE",
"150 456 LINE",
"47 421 LINE",
"49 407 LINE"
);
}
);
width = 305;
}
);
unicode = 0074;
},
{
glyphname = u;
lastChange = "2016-11-11 17:29:21 +0000";
layers = (
{
anchors = (
{
name = bottom;
position = "{209, 0}";
},
{
name = ogonek;
position = "{414, 9}";
},
{
name = top;
position = "{283, 451}";
},
{
name = topright;
position = "{511, 451}";
}
);
background = {
anchors = (
{
name = bottom;
position = "{209, 0}";
},
{
name = ogonek;
position = "{416, 10}";
},
{
name = top;
position = "{283, 451}";
},
{
name = topright;
position = "{511, 451}";
}
);
components = (
{
name = _part.unoga;
transform = "{1, 0, 0, 1, -8, 0}";
},
{
name = _part.SerifBottomRight2;
transform = "{1, 0, 0, 1, 139, 0}";
}
);
paths = (
{
closed = 1;
nodes = (
"360 13 LINE",
"384 161 OFFCURVE",
"408 308 OFFCURVE",
"432 456 CURVE",
"373 437 LINE",
"349 291 OFFCURVE",
"325 144 OFFCURVE",
"301 -2 CURVE"
);
}
);
};
components = (
{
name = _part.unoga;
transform = "{1, 0, 0, 1, -8, 0}";
},
{
name = _part.SerifBottomRight2;
transform = "{1, 0, 0, 1, 138, 0}";
}
);
guideLines = (
{
angle = 80.594;
position = "{373, 437}";
},
{
angle = 80.594;
position = "{432, 456}";
}
);
layerId = "97AFB7C9-FE9A-4B33-96EF-7CD144DFB325";
paths = (
{
closed = 1;
nodes = (
"359 13 LINE",
"432 456 LINE",
"373 437 LINE",
"300 -2 LINE"
);
}
);
width = 504;
}
);
rightMetricsKey = a;
unicode = 0075;
},
{
glyphname = v;
lastChange = "2016-11-11 17:29:21 +0000";
layers = (
{
background = {
paths = (
{
closed = 1;
nodes = (
"156 -12 OFFCURVE",
"165 -11 OFFCURVE",
"183 15 CURVE SMOOTH",
"261 129 OFFCURVE",
"393 332 OFFCURVE",
"363 451 CURVE",
"338 451 OFFCURVE",
"306 441 OFFCURVE",
"291 428 CURVE",
"321 281 OFFCURVE",
"251 155 OFFCURVE",
"171 37 CURVE",
"191 37 LINE",
"186 153 OFFCURVE",
"142 384 OFFCURVE",
"115 458 CURVE",
"69 397 LINE",
"100 309 OFFCURVE",
"135 108 OFFCURVE",
"146 -12 CURVE"
);
}
);
};
layerId = "97AFB7C9-FE9A-4B33-96EF-7CD144DFB325";
paths = (
{
closed = 1;
nodes = (
"156 -12 OFFCURVE",
"165 -11 OFFCURVE",
"183 15 CURVE SMOOTH",
"251 115 OFFCURVE",
"367 290 OFFCURVE",
"367 411 CURVE SMOOTH",
"367 427 OFFCURVE",
"365 441 OFFCURVE",
"361 455 CURVE",
"339 454 OFFCURVE",
"306 441 OFFCURVE",
"291 428 CURVE",
"321 281 OFFCURVE",
"251 155 OFFCURVE",
"171 37 CURVE",
"191 39 LINE",
"186 155 OFFCURVE",
"142 384 OFFCURVE",
"115 458 CURVE",
"69 397 LINE",
"100 309 OFFCURVE",
"135 108 OFFCURVE",
"146 -12 CURVE"
);
},
{
closed = 1;
nodes = (
"99 383 LINE",
"115 458 LINE",
"105 449 LINE",
"22 345 LINE",
"33 336 LINE"
);
}
);
width = 379;
}
);
unicode = 0076;
},
{
glyphname = w;
lastChange = "2016-11-11 17:29:21 +0000";
layers = (
{
anchors = (
{
name = bottom;
position = "{262, 0}";
},
{
name = top;
position = "{336, 451}";
}
);
background = {
paths = (
{
closed = 1;
nodes = (
"154 -12 OFFCURVE",
"168 -9 OFFCURVE",
"188 15 CURVE SMOOTH",
"245 82 OFFCURVE",
"321 205 OFFCURVE",
"363 307 CURVE",
"328 361 LINE",
"309 251 OFFCURVE",
"249 129 OFFCURVE",
"180 37 CURVE",
"191 37 LINE",
"182 153 OFFCURVE",
"142 384 OFFCURVE",
"115 458 CURVE",
"69 397 LINE",
"100 309 OFFCURVE",
"133 108 OFFCURVE",
"145 -12 CURVE"
);
},
{
closed = 1;
nodes = (
"385 -12 OFFCURVE",
"394 -11 OFFCURVE",
"412 15 CURVE SMOOTH",
"490 129 OFFCURVE",
"622 332 OFFCURVE",
"592 451 CURVE",
"567 451 OFFCURVE",
"535 441 OFFCURVE",
"520 428 CURVE",
"550 281 OFFCURVE",
"480 155 OFFCURVE",
"400 37 CURVE",
"420 37 LINE",
"415 153 OFFCURVE",
"371 384 OFFCURVE",
"344 458 CURVE",
"298 397 LINE",
"329 309 OFFCURVE",
"364 108 OFFCURVE",
"375 -12 CURVE"
);
},
{
closed = 1;
nodes = (
"99 383 LINE",
"115 458 LINE",
"105 449 LINE",
"22 345 LINE",
"33 336 LINE"
);
},
{
closed = 1;
nodes = (
"328 383 LINE",
"344 458 LINE",
"334 449 LINE",
"251 345 LINE",
"262 336 LINE"
);
}
);
};
layerId = "97AFB7C9-FE9A-4B33-96EF-7CD144DFB325";
paths = (
{
closed = 1;
nodes = (
"154 -12 OFFCURVE",
"168 -9 OFFCURVE",
"188 15 CURVE SMOOTH",
"245 82 OFFCURVE",
"321 205 OFFCURVE",
"363 307 CURVE",
"328 361 LINE",
"309 251 OFFCURVE",
"249 129 OFFCURVE",
"180 37 CURVE",
"191 37 LINE",
"182 153 OFFCURVE",
"142 384 OFFCURVE",
"115 458 CURVE",
"69 397 LINE",
"100 309 OFFCURVE",
"133 108 OFFCURVE",
"145 -12 CURVE"
);
},
{
closed = 1;
nodes = (
"385 -12 OFFCURVE",
"394 -11 OFFCURVE",
"412 15 CURVE SMOOTH",
"481 116 OFFCURVE",
"596 291 OFFCURVE",
"596 411 CURVE SMOOTH",
"596 427 OFFCURVE",
"594 441 OFFCURVE",
"590 455 CURVE",
"565 453 OFFCURVE",
"535 441 OFFCURVE",
"520 428 CURVE",
"550 281 OFFCURVE",
"480 155 OFFCURVE",
"400 37 CURVE",
"420 37 LINE",
"415 153 OFFCURVE",
"371 384 OFFCURVE",
"344 458 CURVE",
"298 397 LINE",
"329 309 OFFCURVE",
"364 108 OFFCURVE",
"375 -12 CURVE"
);
},
{
closed = 1;
nodes = (
"99 383 LINE",
"115 458 LINE",
"105 449 LINE",
"22 345 LINE",
"33 336 LINE"
);
},
{
closed = 1;
nodes = (
"328 383 LINE",
"344 458 LINE",
"334 449 LINE",
"251 345 LINE",
"262 336 LINE"
);
}
);
width = 608;
}
);
leftMetricsKey = v;
rightMetricsKey = v;
unicode = 0077;
},
{
glyphname = x;
lastChange = "2016-11-11 17:29:21 +0000";
layers = (
{
background = {
paths = (
{
closed = 1;
nodes = (
"112 457 OFFCURVE",
"59 351 OFFCURVE",
"59 317 CURVE",
"68 305 LINE",
"94 362 OFFCURVE",
"134 416 OFFCURVE",
"194 416 CURVE",
"163 443 LINE",
"245 58 LINE SMOOTH",
"254 14 OFFCURVE",
"259 -5 OFFCURVE",
"290 -5 CURVE SMOOTH",
"363 -5 OFFCURVE",
"417 100 OFFCURVE",
"417 135 CURVE",
"408 147 LINE",
"382 91 OFFCURVE",
"341 36 OFFCURVE",
"280 24 CURVE",
"312 13 LINE",
"231 395 LINE SMOOTH",
"220 445 OFFCURVE",
"214 457 OFFCURVE",
"186 457 CURVE SMOOTH"
);
}
);
};
layerId = "97AFB7C9-FE9A-4B33-96EF-7CD144DFB325";
paths = (
{
closed = 1;
nodes = (
"364 -5 OFFCURVE",
"417 101 OFFCURVE",
"417 135 CURVE",
"408 147 LINE",
"382 90 OFFCURVE",
"342 36 OFFCURVE",
"282 36 CURVE",
"313 9 LINE",
"231 394 LINE SMOOTH",
"222 438 OFFCURVE",
"217 457 OFFCURVE",
"186 457 CURVE SMOOTH",
"113 457 OFFCURVE",
"59 352 OFFCURVE",
"59 317 CURVE",
"68 305 LINE",
"94 361 OFFCURVE",
"133 416 OFFCURVE",
"194 416 CURVE",
"164 439 LINE",
"245 57 LINE SMOOTH",
"256 7 OFFCURVE",
"262 -5 OFFCURVE",
"290 -5 CURVE SMOOTH"
);
},
{
closed = 1;
nodes = (
"79 9 LINE",
"61 141 LINE",
"46 137 LINE",
"23 -4 LINE"
);
},
{
closed = 1;
nodes = (
"28 -5 OFFCURVE",
"33 -5 OFFCURVE",
"38 -5 CURVE SMOOTH",
"99 -5 OFFCURVE",
"151 63 OFFCURVE",
"237 231 CURVE",
"229 239 LINE",
"168 158 OFFCURVE",
"111 65 OFFCURVE",
"65 46 CURVE",
"23 -4 LINE"
);
},
{
closed = 1;
nodes = (
"300 308 OFFCURVE",
"354 389 OFFCURVE",
"399 410 CURVE",
"440 455 LINE",
"440 455 LINE",
"434 456 OFFCURVE",
"429 457 OFFCURVE",
"423 457 CURVE SMOOTH",
"353 457 OFFCURVE",
"289 363 OFFCURVE",
"234 239 CURVE",
"242 231 LINE"
);
},
{
closed = 1;
nodes = (
"420 334 LINE",
"440 455 LINE",
"385 442 LINE",
"405 330 LINE"
);
}
);
width = 458;
}
);
unicode = 0078;
},
{
glyphname = y;
lastChange = "2016-11-11 17:29:21 +0000";
layers = (
{
anchors = (
{
name = bottom;
position = "{155, 0}";
},
{
name = top;
position = "{229, 451}";
}
);
background = {
paths = (
{
closed = 1;
nodes = (
"156 -12 OFFCURVE",
"165 0 OFFCURVE",
"183 15 CURVE",
"260 128 OFFCURVE",
"393 332 OFFCURVE",
"363 451 CURVE",
"338 451 OFFCURVE",
"306 441 OFFCURVE",
"291 428 CURVE",
"321 281 OFFCURVE",
"251 155 OFFCURVE",
"165 37 CURVE",
"191 39 LINE",
"186 155 OFFCURVE",
"142 384 OFFCURVE",
"115 458 CURVE",
"69 397 LINE",
"100 309 OFFCURVE",
"135 108 OFFCURVE",
"146 -12 CURVE"
);
},
{
closed = 1;
nodes = (
"136 -237 LINE",
"111 -164 OFFCURVE",
"153 -40 OFFCURVE",
"189 36 CURVE",
"169 47 LINE",
"115 -68 OFFCURVE",
"59 -144 OFFCURVE",
"59 -185 CURVE SMOOTH",
"59 -225 OFFCURVE",
"105 -247 OFFCURVE",
"128 -247 CURVE"
);
},
{
closed = 1;
nodes = (
"99 383 LINE",
"115 458 LINE",
"105 449 LINE",
"22 345 LINE",
"33 336 LINE"
);
}
);
};
layerId = "97AFB7C9-FE9A-4B33-96EF-7CD144DFB325";
paths = (
{
closed = 1;
nodes = (
"97 -142 LINE",
"97 -142 OFFCURVE",
"129 -67 OFFCURVE",
"176 2 CURVE SMOOTH",
"251 111 OFFCURVE",
"367 291 OFFCURVE",
"367 412 CURVE SMOOTH",
"367 428 OFFCURVE",
"365 442 OFFCURVE",
"361 455 CURVE",
"339 454 OFFCURVE",
"306 441 OFFCURVE",
"291 428 CURVE",
"321 281 OFFCURVE",
"251 155 OFFCURVE",
"165 37 CURVE",
"191 39 LINE",
"186 155 OFFCURVE",
"142 384 OFFCURVE",
"115 458 CURVE",
"69 397 LINE",
"100 309 OFFCURVE",
"135 108 OFFCURVE",
"146 -12 CURVE"
);
},
{
closed = 1;
nodes = (
"136 -237 LINE",
"111 -164 OFFCURVE",
"149 -51 OFFCURVE",
"185 25 CURVE",
"169 47 LINE",
"115 -68 OFFCURVE",
"59 -144 OFFCURVE",
"59 -185 CURVE SMOOTH",
"59 -225 OFFCURVE",
"105 -247 OFFCURVE",
"128 -247 CURVE"
);
},
{
closed = 1;
nodes = (
"99 383 LINE",
"115 458 LINE",
"105 449 LINE",
"22 345 LINE",
"33 336 LINE"
);
}
);
width = 379;
}
);
leftMetricsKey = v;
rightMetricsKey = v;
unicode = 0079;
},
{
glyphname = z;
lastChange = "2016-11-11 17:29:21 +0000";
layers = (
{
anchors = (
{
name = bottom;
position = "{151, 0}";
},
{
name = top;
position = "{215, 451}";
}
);
background = {
paths = (
{
closed = 1;
nodes = (
"270 315 OFFCURVE",
"90 124 OFFCURVE",
"18 8 CURVE",
"17 -9 LINE",
"60 6 LINE",
"130 134 OFFCURVE",
"293 284 OFFCURVE",
"370 448 CURVE",
"339 457 LINE"
);
},
{
closed = 1;
nodes = (
"236 5 LINE",
"299 49 LINE",
"235 49 OFFCURVE",
"113 58 OFFCURVE",
"46 48 CURVE",
"17 0 LINE",
"81 14 OFFCURVE",
"252 -2 OFFCURVE",
"290 -3 CURVE",
"330 119 LINE",
"316 125 LINE"
);
}
);
};
layerId = "97AFB7C9-FE9A-4B33-96EF-7CD144DFB325";
paths = (
{
closed = 1;
nodes = (
"115 133 OFFCURVE",
"295 324 OFFCURVE",
"367 440 CURVE",
"368 457 LINE",
"325 442 LINE",
"255 314 OFFCURVE",
"92 164 OFFCURVE",
"15 0 CURVE",
"46 -9 LINE"
);
},
{
closed = 1;
nodes = (
"352 120 LINE",
"338 126 LINE",
"258 6 LINE",
"311 46 LINE",
"247 46 OFFCURVE",
"124 63 OFFCURVE",
"67 59 CURVE",
"41 15 LINE",
"95 19 OFFCURVE",
"214 -5 OFFCURVE",
"310 -5 CURVE"
);
},
{
closed = 1;
nodes = (
"149 443 LINE",
"86 399 LINE",
"150 399 OFFCURVE",
"272 390 OFFCURVE",
"339 400 CURVE",
"368 448 LINE",
"304 434 OFFCURVE",
"133 450 OFFCURVE",
"95 451 CURVE",
"55 329 LINE",
"69 323 LINE"
);
}
);
width = 381;
}
);
unicode = 007A;
},
{
glyphname = f_f;
lastChange = "2016-11-11 17:29:21 +0000";
layers = (
{
background = {
paths = (
{
closed = 1;
nodes = (
"265 -202 OFFCURVE",
"324 -129 OFFCURVE",
"350 27 CURVE SMOOTH",
"417 433 LINE SMOOTH",
"436 547 OFFCURVE",
"451 685 OFFCURVE",
"540 702 CURVE",
"521 704 LINE",
"471 674 LINE",
"536 682 OFFCURVE",
"577 663 OFFCURVE",
"593 656 CURVE",
"601 643 LINE",
"626 695 LINE",
"616 703 OFFCURVE",
"586 713 OFFCURVE",
"548 713 CURVE SMOOTH",
"436 713 OFFCURVE",
"389 605 OFFCURVE",
"362 440 CURVE SMOOTH",
"305 93 LINE SMOOTH",
"294 25 OFFCURVE",
"272 -121 OFFCURVE",
"257 -159 CURVE",
"297 -117 LINE",
"310 -57 LINE",
"282 -134 OFFCURVE",
"184 -162 OFFCURVE",
"54 -152 CURVE",
"47 -169 LINE",
"62 -179 OFFCURVE",
"132 -202 OFFCURVE",
"153 -202 CURVE SMOOTH"
);
},
{
closed = 1;
nodes = (
"578 585 LINE",
"626 695 LINE",
"571 705 LINE",
"564 585 LINE"
);
},
{
closed = 1;
nodes = (
"28 -237 OFFCURVE",
"90 -145 OFFCURVE",
"114 1 CURVE SMOOTH",
"182 409 LINE SMOOTH",
"201 523 OFFCURVE",
"216 661 OFFCURVE",
"325 678 CURVE",
"286 680 LINE",
"236 650 LINE",
"334 662 OFFCURVE",
"414 624 OFFCURVE",
"430 617 CURVE",
"438 604 LINE",
"463 656 LINE",
"453 664 OFFCURVE",
"411 689 OFFCURVE",
"343 689 CURVE SMOOTH",
"211 689 OFFCURVE",
"154 581 OFFCURVE",
"127 416 CURVE SMOOTH",
"71 78 LINE SMOOTH",
"58 -1 OFFCURVE",
"36 -147 OFFCURVE",
"21 -175 CURVE",
"61 -143 LINE",
"64 -106 LINE",
"51 -154 OFFCURVE",
"-23 -194 OFFCURVE",
"-88 -204 CURVE",
"-88 -214 LINE",
"-86 -220 OFFCURVE",
"-53 -237 OFFCURVE",
"-43 -237 CURVE SMOOTH"
);
},
{
closed = 1;
nodes = (
"131 412 LINE",
"145 411 LINE",
"411 410 LINE",
"520 422 LINE",
"523 442 LINE",
"409 442 LINE",
"150 442 LINE",
"138 442 LINE",
"60 441 LINE",
"56 418 LINE"
);
}
);
};
guideLines = (
{
angle = 80.594;
position = "{127, 416}";
},
{
angle = 80.594;
position = "{182, 409}";
}
);
layerId = "97AFB7C9-FE9A-4B33-96EF-7CD144DFB325";
paths = (
{
closed = 1;
nodes = (
"578 585 LINE",
"626 695 LINE",
"571 705 LINE",
"564 585 LINE"
);
},
{
closed = 1;
nodes = (
"28 -237 OFFCURVE",
"90 -145 OFFCURVE",
"114 1 CURVE SMOOTH",
"182 409 LINE SMOOTH",
"201 523 OFFCURVE",
"216 661 OFFCURVE",
"325 678 CURVE",
"286 680 LINE",
"236 650 LINE",
"334 662 OFFCURVE",
"414 624 OFFCURVE",
"430 617 CURVE",
"438 604 LINE",
"463 656 LINE",
"453 664 OFFCURVE",
"411 689 OFFCURVE",
"343 689 CURVE SMOOTH",
"211 689 OFFCURVE",
"154 581 OFFCURVE",
"127 416 CURVE SMOOTH",
"71 78 LINE SMOOTH",
"58 -1 OFFCURVE",
"36 -147 OFFCURVE",
"21 -175 CURVE",
"61 -143 LINE",
"64 -106 LINE",
"51 -154 OFFCURVE",
"-23 -194 OFFCURVE",
"-88 -204 CURVE",
"-88 -214 LINE",
"-86 -220 OFFCURVE",
"-53 -237 OFFCURVE",
"-43 -237 CURVE SMOOTH"
);
},
{
closed = 1;
nodes = (
"131 412 LINE",
"145 411 LINE",
"411 410 LINE",
"520 422 LINE",
"523 442 LINE",
"409 442 LINE",
"150 442 LINE",
"138 442 LINE",
"60 441 LINE",
"56 418 LINE"
);
},
{
closed = 1;
nodes = (
"295 33 OFFCURVE",
"273 -113 OFFCURVE",
"258 -141 CURVE",
"298 -109 LINE",
"301 -72 LINE",
"288 -120 OFFCURVE",
"214 -160 OFFCURVE",
"149 -170 CURVE",
"149 -180 LINE",
"151 -186 OFFCURVE",
"183 -203 OFFCURVE",
"193 -203 CURVE SMOOTH",
"265 -203 OFFCURVE",
"327 -111 OFFCURVE",
"351 35 CURVE SMOOTH",
"417 433 LINE SMOOTH",
"436 547 OFFCURVE",
"451 685 OFFCURVE",
"540 702 CURVE",
"521 704 LINE",
"471 674 LINE",
"536 682 OFFCURVE",
"577 663 OFFCURVE",
"593 656 CURVE",
"601 643 LINE",
"626 695 LINE",
"616 703 OFFCURVE",
"586 713 OFFCURVE",
"548 713 CURVE SMOOTH",
"436 713 OFFCURVE",
"389 605 OFFCURVE",
"362 440 CURVE SMOOTH",
"308 111 LINE SMOOTH"
);
}
);
width = 479;
}
);
leftMetricsKey = f;
rightMetricsKey = f;
},
{
glyphname = f_f_i;
lastChange = "2016-11-11 17:29:21 +0000";
layers = (
{
background = {
components = (
{
name = f;
transform = "{1, 0, 0, 1, 237, 34}";
}
);
};
layerId = "97AFB7C9-FE9A-4B33-96EF-7CD144DFB325";
paths = (
{
closed = 1;
nodes = (
"592 437 LINE",
"550 182 LINE SMOOTH",
"535 91 OFFCURVE",
"516 -5 OFFCURVE",
"570 -5 CURVE SMOOTH",
"650 -5 OFFCURVE",
"698 107 OFFCURVE",
"698 135 CURVE",
"689 147 LINE",
"663 90 OFFCURVE",
"622 36 OFFCURVE",
"564 36 CURVE",
"587 16 LINE",
"588 54 OFFCURVE",
"592 105 OFFCURVE",
"611 218 CURVE SMOOTH",
"650 456 LINE"
);
},
{
closed = 1;
nodes = (
"608 578 LINE",
"656 688 LINE",
"601 698 LINE",
"594 578 LINE"
);
},
{
closed = 1;
nodes = (
"28 -237 OFFCURVE",
"90 -145 OFFCURVE",
"114 1 CURVE SMOOTH",
"182 409 LINE SMOOTH",
"201 523 OFFCURVE",
"216 661 OFFCURVE",
"325 678 CURVE",
"286 680 LINE",
"236 650 LINE",
"334 662 OFFCURVE",
"414 624 OFFCURVE",
"430 617 CURVE",
"438 604 LINE",
"463 656 LINE",
"453 664 OFFCURVE",
"411 689 OFFCURVE",
"343 689 CURVE SMOOTH",
"211 689 OFFCURVE",
"154 581 OFFCURVE",
"127 416 CURVE SMOOTH",
"71 78 LINE SMOOTH",
"58 -1 OFFCURVE",
"36 -147 OFFCURVE",
"21 -175 CURVE",
"61 -143 LINE",
"64 -106 LINE",
"51 -154 OFFCURVE",
"-23 -194 OFFCURVE",
"-88 -204 CURVE",
"-88 -214 LINE",
"-86 -220 OFFCURVE",
"-53 -237 OFFCURVE",
"-43 -237 CURVE SMOOTH"
);
},
{
closed = 1;
nodes = (
"650 456 LINE",
"637 456 LINE",
"504 436 LINE",
"506 422 LINE",
"620 436 LINE"
);
},
{
closed = 1;
nodes = (
"650 456 LINE",
"637 456 LINE",
"504 421 LINE",
"538 422 LINE",
"620 436 LINE"
);
},
{
closed = 1;
nodes = (
"131 412 LINE",
"145 411 LINE",
"411 410 LINE",
"631 422 LINE",
"634 442 LINE",
"409 442 LINE",
"150 442 LINE",
"138 442 LINE",
"60 441 LINE",
"56 418 LINE"
);
},
{
closed = 1;
nodes = (
"295 33 OFFCURVE",
"273 -113 OFFCURVE",
"258 -141 CURVE",
"298 -109 LINE",
"301 -72 LINE",
"288 -120 OFFCURVE",
"214 -160 OFFCURVE",
"149 -170 CURVE",
"149 -180 LINE",
"151 -186 OFFCURVE",
"183 -203 OFFCURVE",
"193 -203 CURVE SMOOTH",
"265 -203 OFFCURVE",
"327 -111 OFFCURVE",
"351 35 CURVE SMOOTH",
"417 433 LINE SMOOTH",
"436 547 OFFCURVE",
"451 685 OFFCURVE",
"560 702 CURVE",
"521 704 LINE",
"471 674 LINE",
"536 682 OFFCURVE",
"599 660 OFFCURVE",
"623 648 CURVE",
"631 636 LINE",
"656 688 LINE",
"646 699 OFFCURVE",
"602 713 OFFCURVE",
"554 713 CURVE SMOOTH",
"452 713 OFFCURVE",
"389 605 OFFCURVE",
"362 440 CURVE SMOOTH",
"308 112 LINE SMOOTH"
);
}
);
width = 742;
}
);
leftMetricsKey = f;
rightMetricsKey = i;
},
{
glyphname = f_f_l;
lastChange = "2016-11-11 17:29:21 +0000";
layers = (
{
background = {
paths = (
{
closed = 1;
nodes = (
"656 -5 OFFCURVE",
"709 101 OFFCURVE",
"709 135 CURVE",
"700 147 LINE",
"674 90 OFFCURVE",
"633 36 OFFCURVE",
"574 36 CURVE",
"598 16 LINE",
"599 54 OFFCURVE",
"603 106 OFFCURVE",
"622 218 CURVE SMOOTH",
"704 713 LINE",
"641 667 LINE",
"561 182 LINE SMOOTH",
"546 92 OFFCURVE",
"527 -5 OFFCURVE",
"581 -5 CURVE SMOOTH"
);
},
{
closed = 1;
nodes = (
"265 -202 OFFCURVE",
"324 -129 OFFCURVE",
"350 27 CURVE SMOOTH",
"417 433 LINE SMOOTH",
"436 547 OFFCURVE",
"451 685 OFFCURVE",
"540 702 CURVE",
"521 704 LINE",
"471 674 LINE",
"536 682 OFFCURVE",
"618 660 OFFCURVE",
"663 636 CURVE",
"671 623 LINE",
"696 675 LINE",
"665 693 OFFCURVE",
"596 713 OFFCURVE",
"548 713 CURVE SMOOTH",
"436 713 OFFCURVE",
"389 605 OFFCURVE",
"362 440 CURVE SMOOTH",
"305 93 LINE SMOOTH",
"294 25 OFFCURVE",
"272 -121 OFFCURVE",
"257 -159 CURVE",
"297 -117 LINE",
"310 -57 LINE",
"282 -134 OFFCURVE",
"184 -162 OFFCURVE",
"54 -152 CURVE",
"47 -169 LINE",
"62 -179 OFFCURVE",
"132 -202 OFFCURVE",
"153 -202 CURVE SMOOTH"
);
},
{
closed = 1;
nodes = (
"28 -237 OFFCURVE",
"90 -145 OFFCURVE",
"114 1 CURVE SMOOTH",
"182 409 LINE SMOOTH",
"201 523 OFFCURVE",
"216 661 OFFCURVE",
"325 678 CURVE",
"286 680 LINE",
"236 650 LINE",
"334 662 OFFCURVE",
"414 624 OFFCURVE",
"430 617 CURVE",
"438 604 LINE",
"463 656 LINE",
"453 664 OFFCURVE",
"411 689 OFFCURVE",
"343 689 CURVE SMOOTH",
"211 689 OFFCURVE",
"154 581 OFFCURVE",
"127 416 CURVE SMOOTH",
"71 78 LINE SMOOTH",
"58 -1 OFFCURVE",
"36 -147 OFFCURVE",
"21 -175 CURVE",
"61 -143 LINE",
"64 -106 LINE",
"51 -154 OFFCURVE",
"-23 -194 OFFCURVE",
"-88 -204 CURVE",
"-88 -214 LINE",
"-86 -220 OFFCURVE",
"-53 -237 OFFCURVE",
"-43 -237 CURVE SMOOTH"
);
},
{
closed = 1;
nodes = (
"704 713 LINE",
"691 713 LINE",
"558 678 LINE",
"590 664 LINE",
"644 666 LINE"
);
},
{
closed = 1;
nodes = (
"131 412 LINE",
"145 411 LINE",
"411 410 LINE",
"520 422 LINE",
"523 442 LINE",
"409 442 LINE",
"150 442 LINE",
"138 442 LINE",
"60 441 LINE",
"56 418 LINE"
);
}
);
};
layerId = "97AFB7C9-FE9A-4B33-96EF-7CD144DFB325";
paths = (
{
closed = 1;
nodes = (
"656 -5 OFFCURVE",
"709 101 OFFCURVE",
"709 135 CURVE",
"700 147 LINE",
"674 90 OFFCURVE",
"633 36 OFFCURVE",
"574 36 CURVE",
"598 16 LINE",
"599 54 OFFCURVE",
"603 106 OFFCURVE",
"622 218 CURVE SMOOTH",
"704 713 LINE",
"641 667 LINE",
"561 182 LINE SMOOTH",
"546 92 OFFCURVE",
"527 -5 OFFCURVE",
"581 -5 CURVE SMOOTH"
);
},
{
closed = 1;
nodes = (
"28 -237 OFFCURVE",
"90 -145 OFFCURVE",
"114 1 CURVE SMOOTH",
"182 409 LINE SMOOTH",
"201 523 OFFCURVE",
"216 661 OFFCURVE",
"325 678 CURVE",
"286 680 LINE",
"236 650 LINE",
"334 662 OFFCURVE",
"414 624 OFFCURVE",
"430 617 CURVE",
"438 604 LINE",
"463 656 LINE",
"453 664 OFFCURVE",
"411 689 OFFCURVE",
"343 689 CURVE SMOOTH",
"211 689 OFFCURVE",
"154 581 OFFCURVE",
"127 416 CURVE SMOOTH",
"71 78 LINE SMOOTH",
"58 -1 OFFCURVE",
"36 -147 OFFCURVE",
"21 -175 CURVE",
"61 -143 LINE",
"64 -106 LINE",
"51 -154 OFFCURVE",
"-23 -194 OFFCURVE",
"-88 -204 CURVE",
"-88 -214 LINE",
"-86 -220 OFFCURVE",
"-53 -237 OFFCURVE",
"-43 -237 CURVE SMOOTH"
);
},
{
closed = 1;
nodes = (
"704 713 LINE",
"691 713 LINE",
"558 678 LINE",
"590 664 LINE",
"644 666 LINE"
);
},
{
closed = 1;
nodes = (
"131 412 LINE",
"145 411 LINE",
"411 410 LINE",
"520 422 LINE",
"523 442 LINE",
"409 442 LINE",
"150 442 LINE",
"138 442 LINE",
"60 441 LINE",
"56 418 LINE"
);
},
{
closed = 1;
nodes = (
"295 33 OFFCURVE",
"273 -113 OFFCURVE",
"258 -141 CURVE",
"298 -109 LINE",
"301 -72 LINE",
"288 -120 OFFCURVE",
"214 -160 OFFCURVE",
"149 -170 CURVE",
"149 -180 LINE",
"151 -186 OFFCURVE",
"183 -203 OFFCURVE",
"193 -203 CURVE SMOOTH",
"265 -203 OFFCURVE",
"327 -111 OFFCURVE",
"351 35 CURVE SMOOTH",
"417 433 LINE SMOOTH",
"436 547 OFFCURVE",
"451 685 OFFCURVE",
"540 702 CURVE",
"521 704 LINE",
"471 674 LINE",
"536 682 OFFCURVE",
"618 660 OFFCURVE",
"663 636 CURVE",
"671 623 LINE",
"696 675 LINE",
"665 693 OFFCURVE",
"596 713 OFFCURVE",
"548 713 CURVE SMOOTH",
"436 713 OFFCURVE",
"389 605 OFFCURVE",
"362 440 CURVE SMOOTH",
"308 111 LINE SMOOTH"
);
}
);
width = 754;
}
);
leftMetricsKey = f;
rightMetricsKey = l;
},
{
glyphname = fi;
lastChange = "2016-11-11 17:29:21 +0000";
layers = (
{
background = {
components = (
{
name = i;
transform = "{1, 0, 0, 1, 227, 0}";
}
);
};
layerId = "97AFB7C9-FE9A-4B33-96EF-7CD144DFB325";
paths = (
{
closed = 1;
nodes = (
"359 431 LINE",
"318 182 LINE SMOOTH",
"303 91 OFFCURVE",
"284 -5 OFFCURVE",
"338 -5 CURVE SMOOTH",
"418 -5 OFFCURVE",
"466 107 OFFCURVE",
"466 135 CURVE",
"457 147 LINE",
"431 90 OFFCURVE",
"390 36 OFFCURVE",
"332 36 CURVE",
"355 16 LINE",
"356 54 OFFCURVE",
"360 105 OFFCURVE",
"379 218 CURVE SMOOTH",
"418 456 LINE"
);
},
{
closed = 1;
nodes = (
"58 -1 OFFCURVE",
"36 -147 OFFCURVE",
"21 -175 CURVE",
"61 -143 LINE",
"64 -106 LINE",
"51 -154 OFFCURVE",
"-23 -194 OFFCURVE",
"-88 -204 CURVE",
"-88 -214 LINE",
"-86 -220 OFFCURVE",
"-54 -237 OFFCURVE",
"-44 -237 CURVE SMOOTH",
"28 -237 OFFCURVE",
"90 -145 OFFCURVE",
"114 1 CURVE SMOOTH",
"185 433 LINE SMOOTH",
"204 547 OFFCURVE",
"219 685 OFFCURVE",
"328 702 CURVE",
"289 704 LINE",
"239 674 LINE",
"304 682 OFFCURVE",
"367 660 OFFCURVE",
"391 648 CURVE",
"399 636 LINE",
"424 688 LINE",
"414 699 OFFCURVE",
"370 713 OFFCURVE",
"322 713 CURVE SMOOTH",
"220 713 OFFCURVE",
"157 605 OFFCURVE",
"130 440 CURVE SMOOTH",
"71 78 LINE SMOOTH"
);
},
{
closed = 1;
nodes = (
"376 578 LINE",
"424 688 LINE",
"369 698 LINE",
"362 578 LINE"
);
},
{
closed = 1;
nodes = (
"418 456 LINE",
"405 456 LINE",
"272 421 LINE",
"306 422 LINE",
"388 436 LINE"
);
},
{
closed = 1;
nodes = (
"129 412 LINE",
"179 410 LINE",
"399 422 LINE",
"402 442 LINE",
"177 442 LINE",
"137 442 LINE",
"59 441 LINE",
"55 418 LINE"
);
}
);
width = 510;
}
);
leftMetricsKey = f;
rightMetricsKey = i;
unicode = FB01;
},
{
glyphname = Aogonek_g.dlig;
lastChange = "2016-11-11 17:29:21 +0000";
layers = (
{
background = {
paths = (
{
closed = 1;
nodes = (
"594 -174 OFFCURVE",
"633 -98 OFFCURVE",
"635 -88 CURVE",
"609 -98 LINE",
"609 -98 OFFCURVE",
"583 -133 OFFCURVE",
"541 -133 CURVE SMOOTH",
"509 -133 OFFCURVE",
"494 -122 OFFCURVE",
"494 -91 CURVE SMOOTH",
"494 -41 OFFCURVE",
"538 12 OFFCURVE",
"574 63 CURVE",
"560 75 LINE",
"520 25 OFFCURVE",
"440 -45 OFFCURVE",
"440 -112 CURVE SMOOTH",
"440 -148 OFFCURVE",
"460 -174 OFFCURVE",
"510 -174 CURVE SMOOTH"
);
}
);
};
components = (
{
name = A;
},
{
name = g;
transform = "{1, 0, 0, 1, 646, 0}";
}
);
layerId = "97AFB7C9-FE9A-4B33-96EF-7CD144DFB325";
paths = (
{
closed = 1;
nodes = (
"494 -51 OFFCURVE",
"548 -2 OFFCURVE",
"604 -1 CURVE",
"590 11 LINE",
"512 11 OFFCURVE",
"440 -55 OFFCURVE",
"440 -112 CURVE SMOOTH",
"440 -148 OFFCURVE",
"460 -174 OFFCURVE",
"513 -174 CURVE SMOOTH",
"593 -174 OFFCURVE",
"644 -108 OFFCURVE",
"648 -88 CURVE",
"622 -98 LINE",
"622 -98 OFFCURVE",
"589 -133 OFFCURVE",
"545 -133 CURVE SMOOTH",
"509 -133 OFFCURVE",
"494 -122 OFFCURVE",
"494 -94 CURVE SMOOTH"
);
}
);
width = 1036;
}
);
leftMetricsKey = Aogonek;
rightMetricsKey = g;
},
{
glyphname = Eogonek_g.dlig;
lastChange = "2016-11-11 17:29:21 +0000";
layers = (
{
background = {
anchors = (
{
name = bottom;
position = "{315, 0}";
},
{
name = ogonek;
position = "{471, 9}";
},
{
name = top;
position = "{357, 665}";
},
{
name = topleft;
position = "{96, 665}";
}
);
components = (
{
name = ogonekcomb;
transform = "{1, 0, 0, 1, 374, 9}";
},
{
name = g;
transform = "{1, 0, 0, 1, 574, 0}";
}
);
paths = (
{
closed = 1;
nodes = (
"83 1 LINE",
"149 1 LINE",
"259 665 LINE",
"193 665 LINE"
);
},
{
closed = 1;
nodes = (
"432 317 LINE",
"422 323 LINE",
"436 231 LINE",
"455 231 LINE",
"490 432 LINE",
"471 432 LINE",
"422 347 LINE",
"433 353 LINE",
"190 345 LINE",
"190 325 LINE"
);
},
{
closed = 1;
nodes = (
"18 13 LINE",
"20 -2 LINE",
"89 1 LINE",
"138 29 LINE",
"138 58 LINE"
);
},
{
closed = 1;
nodes = (
"235 636 LINE",
"197 665 LINE",
"112 667 LINE",
"110 652 LINE",
"235 608 LINE"
);
},
{
closed = 1;
nodes = (
"29 0 LINE",
"188 0 LINE SMOOTH",
"304 0 OFFCURVE",
"451 0 OFFCURVE",
"482 0 CURVE",
"495 31 LINE",
"466 30 OFFCURVE",
"218 30 OFFCURVE",
"103 30 CURVE",
"101 30 LINE"
);
},
{
closed = 1;
nodes = (
"494 0 LINE",
"522 134 LINE",
"505 134 LINE",
"424 13 LINE",
"438 5 LINE",
"449 0 LINE"
);
},
{
closed = 1;
nodes = (
"209 635 LINE",
"317 635 OFFCURVE",
"539 635 OFFCURVE",
"568 634 CURVE",
"557 665 LINE",
"526 665 OFFCURVE",
"409 665 OFFCURVE",
"287 665 CURVE SMOOTH",
"121 665 LINE",
"200 635 LINE"
);
},
{
closed = 1;
nodes = (
"510 660 LINE",
"516 652 LINE",
"536 531 LINE",
"553 531 LINE",
"583 667 LINE",
"538 665 LINE"
);
}
);
};
components = (
{
name = g;
transform = "{1, 0, 0, 1, 575, 0}";
}
);
layerId = "97AFB7C9-FE9A-4B33-96EF-7CD144DFB325";
paths = (
{
closed = 1;
nodes = (
"83 1 LINE",
"149 1 LINE",
"259 665 LINE",
"193 665 LINE"
);
},
{
closed = 1;
nodes = (
"432 317 LINE",
"422 323 LINE",
"436 231 LINE",
"455 231 LINE",
"490 432 LINE",
"471 432 LINE",
"422 347 LINE",
"433 353 LINE",
"190 345 LINE",
"190 325 LINE"
);
},
{
closed = 1;
nodes = (
"18 13 LINE",
"20 -2 LINE",
"89 1 LINE",
"138 29 LINE",
"138 58 LINE"
);
},
{
closed = 1;
nodes = (
"235 636 LINE",
"197 665 LINE",
"112 667 LINE",
"110 652 LINE",
"235 608 LINE"
);
},
{
closed = 1;
nodes = (
"29 0 LINE",
"188 0 LINE SMOOTH",
"304 0 OFFCURVE",
"451 0 OFFCURVE",
"482 0 CURVE",
"495 31 LINE",
"466 30 OFFCURVE",
"218 30 OFFCURVE",
"103 30 CURVE",
"101 30 LINE"
);
},
{
closed = 1;
nodes = (
"494 0 LINE",
"522 134 LINE",
"505 134 LINE",
"424 13 LINE",
"438 5 LINE",
"449 0 LINE"
);
},
{
closed = 1;
nodes = (
"209 635 LINE",
"317 635 OFFCURVE",
"539 635 OFFCURVE",
"568 634 CURVE",
"557 665 LINE",
"526 665 OFFCURVE",
"409 665 OFFCURVE",
"287 665 CURVE SMOOTH",
"121 665 LINE",
"200 635 LINE"
);
},
{
closed = 1;
nodes = (
"510 660 LINE",
"516 652 LINE",
"536 531 LINE",
"553 531 LINE",
"583 667 LINE",
"538 665 LINE"
);
},
{
closed = 1;
nodes = (
"511 -174 OFFCURVE",
"575 -98 OFFCURVE",
"577 -88 CURVE",
"551 -98 LINE",
"551 -98 OFFCURVE",
"500 -133 OFFCURVE",
"458 -133 CURVE SMOOTH",
"426 -133 OFFCURVE",
"411 -122 OFFCURVE",
"411 -91 CURVE SMOOTH",
"411 -41 OFFCURVE",
"455 12 OFFCURVE",
"491 63 CURVE",
"477 75 LINE",
"437 25 OFFCURVE",
"357 -45 OFFCURVE",
"357 -112 CURVE SMOOTH",
"357 -148 OFFCURVE",
"377 -174 OFFCURVE",
"427 -174 CURVE SMOOTH"
);
}
);
width = 965;
}
);
leftMetricsKey = Eogonek;
rightMetricsKey = g;
},
{
glyphname = aogonek_g.dlig;
lastChange = "2016-11-11 17:29:21 +0000";
layers = (
{
background = {
components = (
{
name = _part.brzuszek;
transform = "{-1, 0, 0, -1, 458, 451}";
},
{
name = _part.SerifBottomRight2;
transform = "{1, 0, 0, 1, 107, 0}";
},
{
name = g;
transform = "{1, 0, 0, 1, 462, 0}";
}
);
paths = (
{
closed = 1;
nodes = (
"269 -2 LINE",
"328 13 LINE",
"400 456 LINE",
"385 456 LINE",
"335 398 LINE"
);
},
{
closed = 1;
nodes = (
"423 -174 OFFCURVE",
"462 -98 OFFCURVE",
"464 -88 CURVE",
"455 -76 LINE",
"449 -86 OFFCURVE",
"419 -133 OFFCURVE",
"370 -133 CURVE SMOOTH",
"338 -133 OFFCURVE",
"323 -122 OFFCURVE",
"323 -91 CURVE SMOOTH",
"323 -41 OFFCURVE",
"367 12 OFFCURVE",
"403 63 CURVE",
"389 75 LINE",
"349 25 OFFCURVE",
"269 -45 OFFCURVE",
"269 -112 CURVE SMOOTH",
"269 -148 OFFCURVE",
"289 -174 OFFCURVE",
"339 -174 CURVE SMOOTH"
);
}
);
};
components = (
{
name = _part.brzuszek;
transform = "{-1, 0, 0, -1, 458, 451}";
},
{
name = _part.SerifBottomRight2;
transform = "{1, 0, 0, 1, 107, 0}";
},
{
name = g;
transform = "{1, 0, 0, 1, 462, 0}";
}
);
layerId = "97AFB7C9-FE9A-4B33-96EF-7CD144DFB325";
paths = (
{
closed = 1;
nodes = (
"269 -2 LINE",
"328 13 LINE",
"400 456 LINE",
"385 456 LINE",
"335 398 LINE"
);
},
{
closed = 1;
nodes = (
"423 -174 OFFCURVE",
"462 -98 OFFCURVE",
"464 -88 CURVE",
"438 -98 LINE",
"438 -98 OFFCURVE",
"412 -133 OFFCURVE",
"370 -133 CURVE SMOOTH",
"338 -133 OFFCURVE",
"323 -122 OFFCURVE",
"323 -91 CURVE SMOOTH",
"323 -41 OFFCURVE",
"367 12 OFFCURVE",
"403 63 CURVE",
"389 75 LINE",
"349 25 OFFCURVE",
"269 -45 OFFCURVE",
"269 -112 CURVE SMOOTH",
"269 -148 OFFCURVE",
"289 -174 OFFCURVE",
"339 -174 CURVE SMOOTH"
);
}
);
width = 852;
}
);
leftMetricsKey = aogonek;
rightMetricsKey = g;
},
{
glyphname = eogonek_g.dlig;
lastChange = "2016-11-11 17:29:21 +0000";
layers = (
{
background = {
components = (
{
name = g;
transform = "{1, 0, 0, 1, 351, 0}";
}
);
paths = (
{
closed = 1;
nodes = (
"312 -174 OFFCURVE",
"351 -98 OFFCURVE",
"353 -88 CURVE",
"327 -98 LINE",
"327 -98 OFFCURVE",
"301 -133 OFFCURVE",
"259 -133 CURVE SMOOTH",
"227 -133 OFFCURVE",
"212 -122 OFFCURVE",
"212 -91 CURVE SMOOTH",
"212 -41 OFFCURVE",
"256 12 OFFCURVE",
"292 63 CURVE",
"278 75 LINE",
"238 25 OFFCURVE",
"158 -45 OFFCURVE",
"158 -112 CURVE SMOOTH",
"158 -148 OFFCURVE",
"178 -174 OFFCURVE",
"228 -174 CURVE SMOOTH"
);
}
);
};
components = (
{
name = g;
transform = "{1, 0, 0, 1, 364, 0}";
}
);
layerId = "97AFB7C9-FE9A-4B33-96EF-7CD144DFB325";
paths = (
{
closed = 1;
nodes = (
"92 277 LINE",
"205 235 OFFCURVE",
"330 261 OFFCURVE",
"342 362 CURVE SMOOTH",
"349 415 OFFCURVE",
"309 458 OFFCURVE",
"240 458 CURVE SMOOTH",
"127 458 OFFCURVE",
"42 297 OFFCURVE",
"42 161 CURVE SMOOTH",
"42 44 OFFCURVE",
"102 -7 OFFCURVE",
"171 -7 CURVE SMOOTH",
"266 -7 OFFCURVE",
"319 88 OFFCURVE",
"322 135 CURVE",
"313 147 LINE",
"286 88 OFFCURVE",
"248 36 OFFCURVE",
"191 36 CURVE SMOOTH",
"125 36 OFFCURVE",
"102 109 OFFCURVE",
"102 191 CURVE SMOOTH",
"102 305 OFFCURVE",
"159 431 OFFCURVE",
"244 450 CURVE",
"219 449 LINE",
"177 420 LINE",
"237 426 OFFCURVE",
"290 408 OFFCURVE",
"283 348 CURVE SMOOTH",
"277 295 OFFCURVE",
"213 271 OFFCURVE",
"92 285 CURVE"
);
},
{
closed = 1;
nodes = (
"312 -174 OFFCURVE",
"364 -98 OFFCURVE",
"366 -88 CURVE",
"340 -98 LINE",
"340 -98 OFFCURVE",
"301 -133 OFFCURVE",
"259 -133 CURVE SMOOTH",
"227 -133 OFFCURVE",
"212 -122 OFFCURVE",
"212 -91 CURVE SMOOTH",
"212 -41 OFFCURVE",
"256 12 OFFCURVE",
"292 63 CURVE",
"278 75 LINE",
"238 25 OFFCURVE",
"158 -45 OFFCURVE",
"158 -112 CURVE SMOOTH",
"158 -148 OFFCURVE",
"178 -174 OFFCURVE",
"228 -174 CURVE SMOOTH"
);
}
);
width = 754;
}
);
leftMetricsKey = eogonek;
rightMetricsKey = g;
},
{
glyphname = s_p.dlig;
lastChange = "2016-11-11 17:29:21 +0000";
layers = (
{
background = {
paths = (
{
closed = 1;
nodes = (
"375 -237 LINE",
"427 -206 LINE",
"567 652 LINE",
"552 652 LINE",
"502 594 LINE",
"366 -237 LINE"
);
},
{
closed = 1;
nodes = (
"549 592 LINE",
"524 621 OFFCURVE",
"472 640 OFFCURVE",
"418 640 CURVE SMOOTH",
"314 640 OFFCURVE",
"263 553 OFFCURVE",
"263 440 CURVE SMOOTH",
"263 422 OFFCURVE",
"257 375 OFFCURVE",
"256 319 CURVE",
"270 323 LINE",
"290 393 LINE",
"283 541 OFFCURVE",
"369 629 OFFCURVE",
"398 629 CURVE",
"375 629 LINE",
"324 600 LINE",
"407 602 OFFCURVE",
"507 584 OFFCURVE",
"542 542 CURVE"
);
}
);
};
components = (
{
name = _part.brzuszek;
transform = "{1, 0, 0, 1, 346, 0}";
},
{
name = _part.SerifBottomRight3;
transform = "{1, 0, 0, 1, 139, -13}";
},
{
name = s;
}
);
layerId = "97AFB7C9-FE9A-4B33-96EF-7CD144DFB325";
paths = (
{
closed = 1;
nodes = (
"375 -237 LINE",
"427 -206 LINE",
"565 638 LINE",
"550 638 LINE",
"500 580 LINE",
"366 -237 LINE"
);
},
{
closed = 1;
nodes = (
"539 542 LINE",
"524 571 OFFCURVE",
"473 640 OFFCURVE",
"398 640 CURVE SMOOTH",
"325 640 OFFCURVE",
"253 553 OFFCURVE",
"288 440 CURVE SMOOTH",
"293 422 OFFCURVE",
"287 375 OFFCURVE",
"286 319 CURVE",
"300 323 LINE",
"320 393 LINE",
"273 541 OFFCURVE",
"369 629 OFFCURVE",
"398 629 CURVE",
"375 629 LINE",
"324 600 LINE",
"407 602 OFFCURVE",
"507 568 OFFCURVE",
"542 506 CURVE"
);
}
);
width = 804;
}
);
leftMetricsKey = s;
rightMetricsKey = p;
},
{
glyphname = s_t.dlig;
lastChange = "2016-11-11 17:29:21 +0000";
layers = (
{
background = {
paths = (
{
closed = 1;
nodes = (
"538 -5 OFFCURVE",
"591 101 OFFCURVE",
"591 135 CURVE",
"582 147 LINE",
"556 90 OFFCURVE",
"515 36 OFFCURVE",
"456 36 CURVE",
"480 16 LINE",
"481 54 OFFCURVE",
"486 106 OFFCURVE",
"504 218 CURVE SMOOTH",
"573 638 LINE",
"558 638 LINE",
"508 582 LINE",
"484 431 LINE",
"443 182 LINE SMOOTH",
"428 92 OFFCURVE",
"409 -5 OFFCURVE",
"463 -5 CURVE SMOOTH"
);
},
{
closed = 1;
nodes = (
"300 323 LINE",
"320 393 LINE",
"273 541 OFFCURVE",
"369 629 OFFCURVE",
"398 629 CURVE",
"375 629 LINE",
"324 600 LINE",
"407 602 OFFCURVE",
"515 568 OFFCURVE",
"550 506 CURVE",
"547 542 LINE",
"532 571 OFFCURVE",
"473 640 OFFCURVE",
"398 640 CURVE SMOOTH",
"325 640 OFFCURVE",
"253 553 OFFCURVE",
"288 440 CURVE SMOOTH",
"293 422 OFFCURVE",
"287 375 OFFCURVE",
"286 319 CURVE"
);
},
{
closed = 1;
nodes = (
"640 422 LINE",
"643 442 LINE",
"529 442 LINE",
"489 442 LINE",
"411 441 LINE",
"407 418 LINE",
"481 412 LINE",
"531 410 LINE"
);
}
);
};
components = (
{
name = s;
}
);
layerId = "97AFB7C9-FE9A-4B33-96EF-7CD144DFB325";
paths = (
{
closed = 1;
nodes = (
"538 -5 OFFCURVE",
"591 101 OFFCURVE",
"591 135 CURVE",
"582 147 LINE",
"556 90 OFFCURVE",
"515 36 OFFCURVE",
"456 36 CURVE",
"480 16 LINE",
"481 54 OFFCURVE",
"486 106 OFFCURVE",
"504 218 CURVE SMOOTH",
"573 638 LINE",
"558 638 LINE",
"509 582 LINE",
"443 182 LINE SMOOTH",
"428 92 OFFCURVE",
"409 -5 OFFCURVE",
"463 -5 CURVE SMOOTH"
);
},
{
closed = 1;
nodes = (
"300 323 LINE",
"320 393 LINE",
"273 541 OFFCURVE",
"369 629 OFFCURVE",
"398 629 CURVE",
"375 629 LINE",
"324 600 LINE",
"407 602 OFFCURVE",
"515 568 OFFCURVE",
"550 506 CURVE",
"547 542 LINE",
"532 571 OFFCURVE",
"473 640 OFFCURVE",
"398 640 CURVE SMOOTH",
"325 640 OFFCURVE",
"253 553 OFFCURVE",
"288 440 CURVE SMOOTH",
"293 422 OFFCURVE",
"287 375 OFFCURVE",
"286 319 CURVE"
);
},
{
closed = 1;
nodes = (
"640 422 LINE",
"643 442 LINE",
"529 442 LINE",
"489 442 LINE",
"411 441 LINE",
"407 418 LINE",
"481 412 LINE",
"531 410 LINE"
);
}
);
width = 656;
},
{
associatedMasterId = "97AFB7C9-FE9A-4B33-96EF-7CD144DFB325";
background = {
paths = (
{
closed = 1;
nodes = (
"607 542 LINE",
"592 571 OFFCURVE",
"533 640 OFFCURVE",
"458 640 CURVE SMOOTH",
"377 640 OFFCURVE",
"303 552 OFFCURVE",
"340 440 CURVE SMOOTH",
"346 422 OFFCURVE",
"342 375 OFFCURVE",
"341 339 CURVE",
"355 343 LINE",
"372 393 LINE",
"325 541 OFFCURVE",
"429 629 OFFCURVE",
"458 629 CURVE",
"435 629 LINE",
"376 600 LINE",
"467 602 OFFCURVE",
"575 568 OFFCURVE",
"610 506 CURVE"
);
},
{
closed = 1;
nodes = (
"651 638 LINE",
"564 558 LINE",
"547 450 LINE",
"501 169 LINE SMOOTH",
"483 59 OFFCURVE",
"479 -6 OFFCURVE",
"554 -6 CURVE SMOOTH",
"644 -6 OFFCURVE",
"696 107 OFFCURVE",
"696 148 CURVE",
"686 160 LINE",
"657 92 OFFCURVE",
"613 53 OFFCURVE",
"566 53 CURVE",
"580 16 LINE",
"581 56 OFFCURVE",
"588 110 OFFCURVE",
"607 227 CURVE SMOOTH",
"675 638 LINE"
);
},
{
closed = 1;
nodes = (
"545 431 LINE",
"635 429 LINE",
"744 441 LINE",
"747 463 LINE",
"633 463 LINE",
"553 463 LINE",
"475 462 LINE",
"471 437 LINE"
);
}
);
};
components = (
{
name = s;
transform = "{1, 0, 0, 1, 12, 0}";
}
);
layerId = "A38B181F-ED4F-41F5-B99D-915C51BE1B48";
name = "SemiBold Italic Nov 3 16, 09:57";
paths = (
{
closed = 1;
nodes = (
"607 542 LINE",
"592 571 OFFCURVE",
"533 640 OFFCURVE",
"458 640 CURVE SMOOTH",
"377 640 OFFCURVE",
"303 552 OFFCURVE",
"340 440 CURVE SMOOTH",
"346 422 OFFCURVE",
"342 375 OFFCURVE",
"341 339 CURVE",
"355 343 LINE",
"372 393 LINE",
"325 541 OFFCURVE",
"429 629 OFFCURVE",
"458 629 CURVE",
"435 629 LINE",
"376 600 LINE",
"467 602 OFFCURVE",
"575 568 OFFCURVE",
"610 506 CURVE"
);
},
{
closed = 1;
nodes = (
"651 638 LINE",
"564 558 LINE",
"547 450 LINE",
"501 169 LINE SMOOTH",
"483 59 OFFCURVE",
"479 -6 OFFCURVE",
"554 -6 CURVE SMOOTH",
"644 -6 OFFCURVE",
"696 107 OFFCURVE",
"696 148 CURVE",
"686 160 LINE",
"657 92 OFFCURVE",
"613 53 OFFCURVE",
"566 53 CURVE",
"580 16 LINE",
"581 56 OFFCURVE",
"588 110 OFFCURVE",
"607 227 CURVE SMOOTH",
"675 638 LINE"
);
},
{
closed = 1;
nodes = (
"545 431 LINE",
"635 429 LINE",
"744 441 LINE",
"747 463 LINE",
"633 463 LINE",
"553 463 LINE",
"475 462 LINE",
"471 437 LINE"
);
}
);
width = 753;
}
);
leftMetricsKey = s;
rightMetricsKey = t;
},
{
glyphname = uogonek_g.dlig;
lastChange = "2016-11-11 17:29:21 +0000";
layers = (
{
background = {
components = (
{
name = uogonek;
},
{
name = g;
transform = "{1, 0, 0, 1, 504, 0}";
}
);
};
components = (
{
name = u;
},
{
name = g;
transform = "{1, 0, 0, 1, 493, 0}";
}
);
layerId = "97AFB7C9-FE9A-4B33-96EF-7CD144DFB325";
paths = (
{
closed = 1;
nodes = (
"454 -174 OFFCURVE",
"493 -98 OFFCURVE",
"495 -88 CURVE",
"469 -98 LINE",
"469 -98 OFFCURVE",
"443 -133 OFFCURVE",
"401 -133 CURVE SMOOTH",
"369 -133 OFFCURVE",
"354 -122 OFFCURVE",
"354 -91 CURVE SMOOTH",
"354 -41 OFFCURVE",
"398 12 OFFCURVE",
"434 63 CURVE",
"420 75 LINE",
"380 25 OFFCURVE",
"300 -45 OFFCURVE",
"300 -112 CURVE SMOOTH",
"300 -148 OFFCURVE",
"320 -174 OFFCURVE",
"370 -174 CURVE SMOOTH"
);
}
);
width = 883;
}
);
leftMetricsKey = uogonek;
rightMetricsKey = g;
},
{
glyphname = f_b.liga;
lastChange = "2016-11-11 17:29:21 +0000";
layers = (
{
background = {
components = (
{
name = f;
}
);
};
components = (
{
name = _part.brzuszek;
transform = "{1, 0, 0, 1, 241, 0}";
}
);
layerId = "97AFB7C9-FE9A-4B33-96EF-7CD144DFB325";
paths = (
{
closed = 1;
nodes = (
"473 713 LINE",
"410 667 LINE",
"299 -4 LINE",
"314 -4 LINE",
"364 53 LINE"
);
},
{
closed = 1;
nodes = (
"58 -1 OFFCURVE",
"36 -147 OFFCURVE",
"21 -175 CURVE",
"61 -143 LINE",
"64 -106 LINE",
"51 -154 OFFCURVE",
"-23 -194 OFFCURVE",
"-88 -204 CURVE",
"-88 -214 LINE",
"-86 -220 OFFCURVE",
"-54 -237 OFFCURVE",
"-44 -237 CURVE SMOOTH",
"28 -237 OFFCURVE",
"90 -145 OFFCURVE",
"114 1 CURVE SMOOTH",
"186 433 LINE SMOOTH",
"205 547 OFFCURVE",
"220 685 OFFCURVE",
"309 702 CURVE",
"290 704 LINE",
"240 674 LINE",
"305 682 OFFCURVE",
"387 660 OFFCURVE",
"432 636 CURVE",
"440 623 LINE",
"465 675 LINE",
"434 693 OFFCURVE",
"365 713 OFFCURVE",
"317 713 CURVE SMOOTH",
"205 713 OFFCURVE",
"158 605 OFFCURVE",
"131 440 CURVE SMOOTH",
"71 78 LINE SMOOTH"
);
},
{
closed = 1;
nodes = (
"473 713 LINE",
"460 713 LINE",
"327 678 LINE",
"359 664 LINE",
"413 666 LINE"
);
},
{
closed = 1;
nodes = (
"130 412 LINE",
"180 410 LINE",
"289 422 LINE",
"292 442 LINE",
"178 442 LINE",
"138 442 LINE",
"60 441 LINE",
"56 418 LINE"
);
}
);
width = 699;
}
);
leftMetricsKey = f;
rightMetricsKey = b;
},
{
glyphname = f_f_j.liga;
lastChange = "2016-11-11 17:29:21 +0000";
layers = (
{
background = {
paths = (
{
closed = 1;
nodes = (
"487 -175 OFFCURVE",
"560 -94 OFFCURVE",
"576 5 CURVE SMOOTH",
"650 456 LINE",
"635 456 LINE",
"592 437 LINE",
"527 43 LINE SMOOTH",
"505 -90 OFFCURVE",
"468 -139 OFFCURVE",
"407 -218 CURVE",
"421 -229 LINE"
);
},
{
closed = 1;
nodes = (
"265 -202 OFFCURVE",
"324 -129 OFFCURVE",
"350 27 CURVE SMOOTH",
"417 433 LINE SMOOTH",
"436 547 OFFCURVE",
"451 685 OFFCURVE",
"560 702 CURVE",
"521 704 LINE",
"471 674 LINE",
"536 682 OFFCURVE",
"599 660 OFFCURVE",
"623 648 CURVE",
"631 636 LINE",
"656 688 LINE",
"646 699 OFFCURVE",
"602 713 OFFCURVE",
"554 713 CURVE SMOOTH",
"452 713 OFFCURVE",
"389 605 OFFCURVE",
"362 440 CURVE SMOOTH",
"305 93 LINE SMOOTH",
"294 25 OFFCURVE",
"272 -121 OFFCURVE",
"257 -159 CURVE",
"297 -117 LINE",
"310 -57 LINE",
"282 -134 OFFCURVE",
"184 -162 OFFCURVE",
"54 -152 CURVE",
"47 -169 LINE",
"62 -179 OFFCURVE",
"132 -202 OFFCURVE",
"153 -202 CURVE SMOOTH"
);
},
{
closed = 1;
nodes = (
"608 578 LINE",
"656 688 LINE",
"601 698 LINE",
"594 578 LINE"
);
},
{
closed = 1;
nodes = (
"28 -237 OFFCURVE",
"90 -145 OFFCURVE",
"114 1 CURVE SMOOTH",
"182 409 LINE SMOOTH",
"201 523 OFFCURVE",
"216 661 OFFCURVE",
"325 678 CURVE",
"286 680 LINE",
"236 650 LINE",
"334 662 OFFCURVE",
"414 624 OFFCURVE",
"430 617 CURVE",
"438 604 LINE",
"463 656 LINE",
"453 664 OFFCURVE",
"411 689 OFFCURVE",
"343 689 CURVE SMOOTH",
"211 689 OFFCURVE",
"154 581 OFFCURVE",
"127 416 CURVE SMOOTH",
"71 78 LINE SMOOTH",
"58 -1 OFFCURVE",
"36 -147 OFFCURVE",
"21 -175 CURVE",
"61 -143 LINE",
"64 -106 LINE",
"51 -154 OFFCURVE",
"-23 -194 OFFCURVE",
"-88 -204 CURVE",
"-88 -214 LINE",
"-86 -220 OFFCURVE",
"-53 -237 OFFCURVE",
"-43 -237 CURVE SMOOTH"
);
},
{
closed = 1;
nodes = (
"650 456 LINE",
"637 456 LINE",
"504 436 LINE",
"506 422 LINE",
"620 436 LINE"
);
},
{
closed = 1;
nodes = (
"131 412 LINE",
"145 411 LINE",
"411 410 LINE",
"631 422 LINE",
"634 442 LINE",
"409 442 LINE",
"150 442 LINE",
"138 442 LINE",
"60 441 LINE",
"56 418 LINE"
);
}
);
};
layerId = "97AFB7C9-FE9A-4B33-96EF-7CD144DFB325";
paths = (
{
closed = 1;
nodes = (
"487 -175 OFFCURVE",
"560 -94 OFFCURVE",
"576 5 CURVE SMOOTH",
"650 456 LINE",
"635 456 LINE",
"592 437 LINE",
"527 43 LINE SMOOTH",
"505 -90 OFFCURVE",
"468 -139 OFFCURVE",
"407 -218 CURVE",
"421 -229 LINE"
);
},
{
closed = 1;
nodes = (
"28 -237 OFFCURVE",
"90 -145 OFFCURVE",
"114 1 CURVE SMOOTH",
"182 409 LINE SMOOTH",
"201 523 OFFCURVE",
"216 661 OFFCURVE",
"325 678 CURVE",
"286 680 LINE",
"236 650 LINE",
"334 662 OFFCURVE",
"414 624 OFFCURVE",
"430 617 CURVE",
"438 604 LINE",
"463 656 LINE",
"453 664 OFFCURVE",
"411 689 OFFCURVE",
"343 689 CURVE SMOOTH",
"211 689 OFFCURVE",
"154 581 OFFCURVE",
"127 416 CURVE SMOOTH",
"71 78 LINE SMOOTH",
"58 -1 OFFCURVE",
"36 -147 OFFCURVE",
"21 -175 CURVE",
"61 -143 LINE",
"64 -106 LINE",
"51 -154 OFFCURVE",
"-23 -194 OFFCURVE",
"-88 -204 CURVE",
"-88 -214 LINE",
"-86 -220 OFFCURVE",
"-53 -237 OFFCURVE",
"-43 -237 CURVE SMOOTH"
);
},
{
closed = 1;
nodes = (
"650 456 LINE",
"637 456 LINE",
"504 436 LINE",
"506 422 LINE",
"620 436 LINE"
);
},
{
closed = 1;
nodes = (
"131 412 LINE",
"145 411 LINE",
"411 410 LINE",
"631 422 LINE",
"634 442 LINE",
"409 442 LINE",
"150 442 LINE",
"138 442 LINE",
"60 441 LINE",
"56 418 LINE"
);
},
{
closed = 1;
nodes = (
"608 578 LINE",
"656 688 LINE",
"601 698 LINE",
"594 578 LINE"
);
},
{
closed = 1;
nodes = (
"295 33 OFFCURVE",
"273 -113 OFFCURVE",
"258 -141 CURVE",
"298 -109 LINE",
"301 -72 LINE",
"288 -120 OFFCURVE",
"214 -160 OFFCURVE",
"149 -170 CURVE",
"149 -180 LINE",
"151 -186 OFFCURVE",
"183 -203 OFFCURVE",
"193 -203 CURVE SMOOTH",
"265 -203 OFFCURVE",
"327 -111 OFFCURVE",
"351 35 CURVE SMOOTH",
"417 433 LINE SMOOTH",
"436 547 OFFCURVE",
"451 685 OFFCURVE",
"560 702 CURVE",
"521 704 LINE",
"471 674 LINE",
"536 682 OFFCURVE",
"599 660 OFFCURVE",
"623 648 CURVE",
"631 636 LINE",
"656 688 LINE",
"646 699 OFFCURVE",
"602 713 OFFCURVE",
"554 713 CURVE SMOOTH",
"452 713 OFFCURVE",
"389 605 OFFCURVE",
"362 440 CURVE SMOOTH",
"308 112 LINE SMOOTH"
);
}
);
width = 693;
}
);
leftMetricsKey = f;
rightMetricsKey = j;
},
{
glyphname = f_h.liga;
lastChange = "2016-11-11 17:29:21 +0000";
layers = (
{
background = {
paths = (
{
closed = 1;
nodes = (
"357 12 LINE",
"473 713 LINE",
"412 682 LINE",
"298 -7 LINE"
);
},
{
closed = 1;
nodes = (
"58 -1 OFFCURVE",
"36 -147 OFFCURVE",
"21 -175 CURVE",
"61 -143 LINE",
"64 -106 LINE",
"51 -154 OFFCURVE",
"-23 -194 OFFCURVE",
"-88 -204 CURVE",
"-88 -214 LINE",
"-86 -220 OFFCURVE",
"-54 -237 OFFCURVE",
"-44 -237 CURVE SMOOTH",
"28 -237 OFFCURVE",
"90 -145 OFFCURVE",
"114 1 CURVE SMOOTH",
"186 433 LINE SMOOTH",
"205 547 OFFCURVE",
"220 685 OFFCURVE",
"309 702 CURVE",
"290 704 LINE",
"240 674 LINE",
"305 682 OFFCURVE",
"387 660 OFFCURVE",
"432 636 CURVE",
"440 623 LINE",
"465 675 LINE",
"434 693 OFFCURVE",
"365 713 OFFCURVE",
"317 713 CURVE SMOOTH",
"205 713 OFFCURVE",
"158 605 OFFCURVE",
"131 440 CURVE SMOOTH",
"71 78 LINE SMOOTH"
);
},
{
closed = 1;
nodes = (
"473 713 LINE",
"460 713 LINE",
"327 678 LINE",
"359 664 LINE",
"413 666 LINE"
);
},
{
closed = 1;
nodes = (
"49 422 LINE",
"167 422 LINE",
"289 439 LINE",
"293 455 LINE",
"170 455 LINE",
"49 439 LINE"
);
}
);
};
components = (
{
name = _part.nnoga;
transform = "{1, 0, 0, 1, 250, 0}";
}
);
layerId = "97AFB7C9-FE9A-4B33-96EF-7CD144DFB325";
paths = (
{
closed = 1;
nodes = (
"357 12 LINE",
"473 713 LINE",
"412 682 LINE",
"298 -7 LINE"
);
},
{
closed = 1;
nodes = (
"58 -1 OFFCURVE",
"36 -147 OFFCURVE",
"21 -175 CURVE",
"61 -143 LINE",
"64 -106 LINE",
"51 -154 OFFCURVE",
"-23 -194 OFFCURVE",
"-88 -204 CURVE",
"-88 -214 LINE",
"-86 -220 OFFCURVE",
"-54 -237 OFFCURVE",
"-44 -237 CURVE SMOOTH",
"28 -237 OFFCURVE",
"90 -145 OFFCURVE",
"114 1 CURVE SMOOTH",
"186 433 LINE SMOOTH",
"205 547 OFFCURVE",
"220 685 OFFCURVE",
"309 702 CURVE",
"290 704 LINE",
"240 674 LINE",
"305 682 OFFCURVE",
"387 660 OFFCURVE",
"432 636 CURVE",
"440 623 LINE",
"465 675 LINE",
"434 693 OFFCURVE",
"365 713 OFFCURVE",
"317 713 CURVE SMOOTH",
"205 713 OFFCURVE",
"158 605 OFFCURVE",
"131 440 CURVE SMOOTH",
"71 78 LINE SMOOTH"
);
},
{
closed = 1;
nodes = (
"473 713 LINE",
"460 713 LINE",
"327 678 LINE",
"359 664 LINE",
"413 666 LINE"
);
},
{
closed = 1;
nodes = (
"130 412 LINE",
"180 410 LINE",
"289 422 LINE",
"292 442 LINE",
"178 442 LINE",
"138 442 LINE",
"60 441 LINE",
"56 418 LINE"
);
}
);
width = 749;
}
);
leftMetricsKey = f;
rightMetricsKey = h;
},
{
glyphname = f_j.liga;
lastChange = "2016-11-11 17:29:21 +0000";
layers = (
{
background = {
paths = (
{
closed = 1;
nodes = (
"255 -175 OFFCURVE",
"328 -94 OFFCURVE",
"344 5 CURVE SMOOTH",
"418 456 LINE",
"403 456 LINE",
"360 437 LINE",
"295 43 LINE SMOOTH",
"273 -90 OFFCURVE",
"236 -139 OFFCURVE",
"175 -218 CURVE",
"189 -229 LINE"
);
},
{
closed = 1;
nodes = (
"33 -202 OFFCURVE",
"92 -129 OFFCURVE",
"118 27 CURVE SMOOTH",
"185 433 LINE SMOOTH",
"204 547 OFFCURVE",
"219 685 OFFCURVE",
"328 702 CURVE",
"289 704 LINE",
"239 674 LINE",
"304 682 OFFCURVE",
"367 660 OFFCURVE",
"391 648 CURVE",
"399 636 LINE",
"424 688 LINE",
"414 699 OFFCURVE",
"370 713 OFFCURVE",
"322 713 CURVE SMOOTH",
"220 713 OFFCURVE",
"157 605 OFFCURVE",
"130 440 CURVE SMOOTH",
"73 93 LINE SMOOTH",
"62 25 OFFCURVE",
"40 -121 OFFCURVE",
"25 -159 CURVE",
"65 -117 LINE",
"78 -57 LINE",
"50 -134 OFFCURVE",
"-48 -162 OFFCURVE",
"-178 -152 CURVE",
"-185 -169 LINE",
"-170 -179 OFFCURVE",
"-100 -202 OFFCURVE",
"-79 -202 CURVE SMOOTH"
);
},
{
closed = 1;
nodes = (
"-80 422 LINE",
"276 422 LINE",
"410 439 LINE",
"416 455 LINE",
"169 455 LINE",
"-74 455 LINE"
);
},
{
closed = 1;
nodes = (
"376 578 LINE",
"424 688 LINE",
"369 698 LINE",
"362 578 LINE"
);
},
{
closed = 1;
nodes = (
"418 456 LINE",
"405 456 LINE",
"272 436 LINE",
"274 422 LINE",
"388 436 LINE"
);
}
);
};
layerId = "97AFB7C9-FE9A-4B33-96EF-7CD144DFB325";
paths = (
{
closed = 1;
nodes = (
"58 -1 OFFCURVE",
"36 -147 OFFCURVE",
"21 -175 CURVE",
"61 -143 LINE",
"64 -106 LINE",
"51 -154 OFFCURVE",
"-23 -194 OFFCURVE",
"-88 -204 CURVE",
"-88 -214 LINE",
"-86 -220 OFFCURVE",
"-54 -237 OFFCURVE",
"-44 -237 CURVE SMOOTH",
"28 -237 OFFCURVE",
"90 -145 OFFCURVE",
"114 1 CURVE SMOOTH",
"185 433 LINE SMOOTH",
"204 547 OFFCURVE",
"219 685 OFFCURVE",
"328 702 CURVE",
"289 704 LINE",
"239 674 LINE",
"304 682 OFFCURVE",
"367 660 OFFCURVE",
"391 648 CURVE",
"399 636 LINE",
"424 688 LINE",
"414 699 OFFCURVE",
"370 713 OFFCURVE",
"322 713 CURVE SMOOTH",
"220 713 OFFCURVE",
"157 605 OFFCURVE",
"130 440 CURVE SMOOTH",
"71 78 LINE SMOOTH"
);
},
{
closed = 1;
nodes = (
"255 -175 OFFCURVE",
"328 -94 OFFCURVE",
"344 5 CURVE SMOOTH",
"418 456 LINE",
"403 456 LINE",
"360 437 LINE",
"295 43 LINE SMOOTH",
"273 -90 OFFCURVE",
"236 -139 OFFCURVE",
"175 -218 CURVE",
"189 -229 LINE"
);
},
{
closed = 1;
nodes = (
"48 422 LINE",
"276 422 LINE",
"410 439 LINE",
"416 455 LINE",
"169 455 LINE",
"48 439 LINE"
);
},
{
closed = 1;
nodes = (
"376 578 LINE",
"424 688 LINE",
"369 698 LINE",
"362 578 LINE"
);
},
{
closed = 1;
nodes = (
"418 456 LINE",
"405 456 LINE",
"272 436 LINE",
"274 422 LINE",
"388 436 LINE"
);
}
);
width = 461;
}
);
leftMetricsKey = f;
rightMetricsKey = j;
},
{
glyphname = f_k.liga;
lastChange = "2016-11-11 17:29:21 +0000";
layers = (
{
background = {
paths = (
{
closed = 1;
nodes = (
"483 52 LINE SMOOTH",
"495 2 OFFCURVE",
"512 -5 OFFCURVE",
"526 -5 CURVE SMOOTH",
"602 -5 OFFCURVE",
"655 99 OFFCURVE",
"655 135 CURVE",
"646 147 LINE",
"620 90 OFFCURVE",
"578 36 OFFCURVE",
"520 36 CURVE",
"551 9 LINE",
"493 260 LINE",
"476 241 LINE",
"530 262 OFFCURVE",
"624 309 OFFCURVE",
"638 393 CURVE SMOOTH",
"646 440 OFFCURVE",
"604 463 OFFCURVE",
"586 458 CURVE",
"575 394 LINE SMOOTH",
"570 364 OFFCURVE",
"565 339 OFFCURVE",
"561 324 CURVE",
"592 339 LINE",
"578 369 LINE",
"541 297 OFFCURVE",
"478 258 OFFCURVE",
"439 233 CURVE"
);
}
);
};
layerId = "97AFB7C9-FE9A-4B33-96EF-7CD144DFB325";
paths = (
{
closed = 1;
nodes = (
"357 12 LINE",
"473 713 LINE",
"410 667 LINE",
"299 -7 LINE"
);
},
{
closed = 1;
nodes = (
"58 -1 OFFCURVE",
"36 -147 OFFCURVE",
"21 -175 CURVE",
"61 -143 LINE",
"64 -106 LINE",
"51 -154 OFFCURVE",
"-23 -194 OFFCURVE",
"-88 -204 CURVE",
"-88 -214 LINE",
"-86 -220 OFFCURVE",
"-54 -237 OFFCURVE",
"-44 -237 CURVE SMOOTH",
"28 -237 OFFCURVE",
"90 -145 OFFCURVE",
"114 1 CURVE SMOOTH",
"186 433 LINE SMOOTH",
"205 547 OFFCURVE",
"220 685 OFFCURVE",
"309 702 CURVE",
"290 704 LINE",
"240 674 LINE",
"305 682 OFFCURVE",
"387 660 OFFCURVE",
"432 636 CURVE",
"440 623 LINE",
"465 675 LINE",
"434 693 OFFCURVE",
"365 713 OFFCURVE",
"317 713 CURVE SMOOTH",
"205 713 OFFCURVE",
"158 605 OFFCURVE",
"131 440 CURVE SMOOTH",
"71 78 LINE SMOOTH"
);
},
{
closed = 1;
nodes = (
"473 713 LINE",
"460 713 LINE",
"327 678 LINE",
"359 664 LINE",
"413 666 LINE"
);
},
{
closed = 1;
nodes = (
"130 412 LINE",
"180 410 LINE",
"289 422 LINE",
"292 442 LINE",
"178 442 LINE",
"138 442 LINE",
"60 441 LINE",
"56 418 LINE"
);
},
{
closed = 1;
nodes = (
"483 52 LINE SMOOTH",
"495 2 OFFCURVE",
"512 -5 OFFCURVE",
"526 -5 CURVE SMOOTH",
"602 -5 OFFCURVE",
"655 99 OFFCURVE",
"655 135 CURVE",
"646 147 LINE",
"624 98 OFFCURVE",
"590 52 OFFCURVE",
"544 39 CURVE",
"493 260 LINE",
"476 238 LINE",
"525 258 OFFCURVE",
"639 322 OFFCURVE",
"639 417 CURVE SMOOTH",
"639 428 OFFCURVE",
"637 441 OFFCURVE",
"633 455 CURVE",
"611 454 OFFCURVE",
"578 441 OFFCURVE",
"563 428 CURVE",
"570 396 OFFCURVE",
"572 359 OFFCURVE",
"568 324 CURVE",
"607 354 LINE",
"587 387 LINE",
"552 304 OFFCURVE",
"481 260 OFFCURVE",
"439 233 CURVE"
);
}
);
width = 692;
},
{
associatedMasterId = "97AFB7C9-FE9A-4B33-96EF-7CD144DFB325";
background = {
paths = (
{
closed = 1;
nodes = (
"357 12 LINE",
"473 713 LINE",
"410 667 LINE",
"299 -7 LINE"
);
},
{
closed = 1;
nodes = (
"483 52 LINE SMOOTH",
"495 2 OFFCURVE",
"512 -5 OFFCURVE",
"526 -5 CURVE SMOOTH",
"602 -5 OFFCURVE",
"655 99 OFFCURVE",
"655 135 CURVE",
"646 147 LINE",
"620 90 OFFCURVE",
"578 36 OFFCURVE",
"520 36 CURVE",
"551 9 LINE",
"493 260 LINE",
"476 241 LINE",
"530 262 OFFCURVE",
"624 309 OFFCURVE",
"638 393 CURVE SMOOTH",
"646 440 OFFCURVE",
"604 463 OFFCURVE",
"586 458 CURVE",
"575 394 LINE SMOOTH",
"570 364 OFFCURVE",
"565 339 OFFCURVE",
"561 324 CURVE",
"592 339 LINE",
"578 369 LINE",
"541 297 OFFCURVE",
"478 258 OFFCURVE",
"439 233 CURVE"
);
},
{
closed = 1;
nodes = (
"58 -1 OFFCURVE",
"36 -147 OFFCURVE",
"21 -175 CURVE",
"61 -143 LINE",
"64 -106 LINE",
"51 -154 OFFCURVE",
"-23 -194 OFFCURVE",
"-88 -204 CURVE",
"-88 -214 LINE",
"-86 -220 OFFCURVE",
"-54 -237 OFFCURVE",
"-44 -237 CURVE SMOOTH",
"28 -237 OFFCURVE",
"90 -145 OFFCURVE",
"114 1 CURVE SMOOTH",
"186 433 LINE SMOOTH",
"205 547 OFFCURVE",
"220 685 OFFCURVE",
"309 702 CURVE",
"290 704 LINE",
"240 674 LINE",
"305 682 OFFCURVE",
"387 660 OFFCURVE",
"432 636 CURVE",
"440 623 LINE",
"465 675 LINE",
"434 693 OFFCURVE",
"365 713 OFFCURVE",
"317 713 CURVE SMOOTH",
"205 713 OFFCURVE",
"158 605 OFFCURVE",
"131 440 CURVE SMOOTH",
"71 78 LINE SMOOTH"
);
},
{
closed = 1;
nodes = (
"473 713 LINE",
"460 713 LINE",
"327 678 LINE",
"359 664 LINE",
"413 666 LINE"
);
},
{
closed = 1;
nodes = (
"49 422 LINE",
"167 422 LINE",
"289 439 LINE",
"293 455 LINE",
"170 455 LINE",
"49 439 LINE"
);
}
);
};
layerId = "A9640F07-F9E8-4F61-BF9B-AB0742F4DEA1";
name = "Light Italic Nov 11 16, 18:08";
paths = (
{
closed = 1;
nodes = (
"357 12 LINE",
"473 713 LINE",
"410 667 LINE",
"299 -7 LINE"
);
},
{
closed = 1;
nodes = (
"483 52 LINE SMOOTH",
"495 2 OFFCURVE",
"512 -5 OFFCURVE",
"526 -5 CURVE SMOOTH",
"602 -5 OFFCURVE",
"655 99 OFFCURVE",
"655 135 CURVE",
"646 147 LINE",
"620 90 OFFCURVE",
"578 36 OFFCURVE",
"520 36 CURVE",
"551 9 LINE",
"493 260 LINE",
"476 241 LINE",
"530 262 OFFCURVE",
"624 309 OFFCURVE",
"638 393 CURVE SMOOTH",
"646 440 OFFCURVE",
"604 463 OFFCURVE",
"586 458 CURVE",
"575 394 LINE SMOOTH",
"570 364 OFFCURVE",
"565 339 OFFCURVE",
"561 324 CURVE",
"592 339 LINE",
"578 369 LINE",
"541 297 OFFCURVE",
"478 258 OFFCURVE",
"439 233 CURVE"
);
},
{
closed = 1;
nodes = (
"58 -1 OFFCURVE",
"36 -147 OFFCURVE",
"21 -175 CURVE",
"61 -143 LINE",
"64 -106 LINE",
"51 -154 OFFCURVE",
"-23 -194 OFFCURVE",
"-88 -204 CURVE",
"-88 -214 LINE",
"-86 -220 OFFCURVE",
"-54 -237 OFFCURVE",
"-44 -237 CURVE SMOOTH",
"28 -237 OFFCURVE",
"90 -145 OFFCURVE",
"114 1 CURVE SMOOTH",
"186 433 LINE SMOOTH",
"205 547 OFFCURVE",
"220 685 OFFCURVE",
"309 702 CURVE",
"290 704 LINE",
"240 674 LINE",
"305 682 OFFCURVE",
"387 660 OFFCURVE",
"432 636 CURVE",
"440 623 LINE",
"465 675 LINE",
"434 693 OFFCURVE",
"365 713 OFFCURVE",
"317 713 CURVE SMOOTH",
"205 713 OFFCURVE",
"158 605 OFFCURVE",
"131 440 CURVE SMOOTH",
"71 78 LINE SMOOTH"
);
},
{
closed = 1;
nodes = (
"473 713 LINE",
"460 713 LINE",
"327 678 LINE",
"359 664 LINE",
"413 666 LINE"
);
},
{
closed = 1;
nodes = (
"130 412 LINE",
"180 410 LINE",
"289 422 LINE",
"292 442 LINE",
"178 442 LINE",
"138 442 LINE",
"60 441 LINE",
"56 418 LINE"
);
}
);
width = 692;
}
);
leftMetricsKey = f;
rightMetricsKey = k;
},
{
glyphname = g_g.liga;
lastChange = "2016-11-11 17:29:21 +0000";
layers = (
{
background = {
paths = (
{
closed = 1;
nodes = (
"260 -237 OFFCURVE",
"377 -174 OFFCURVE",
"377 -76 CURVE SMOOTH",
"377 -19 OFFCURVE",
"195 18 OFFCURVE",
"97 65 CURVE",
"94 14 LINE",
"154 129 LINE",
"144 135 LINE",
"108 106 OFFCURVE",
"67 66 OFFCURVE",
"67 37 CURVE SMOOTH",
"67 -13 OFFCURVE",
"337 -52 OFFCURVE",
"337 -112 CURVE SMOOTH",
"337 -148 OFFCURVE",
"281 -198 OFFCURVE",
"206 -198 CURVE SMOOTH",
"73 -198 OFFCURVE",
"16 -121 OFFCURVE",
"2 -89 CURVE",
"-24 -98 LINE",
"-51 -166 OFFCURVE",
"34 -237 OFFCURVE",
"154 -237 CURVE SMOOTH"
);
},
{
closed = 1;
nodes = (
"22 -94 OFFCURVE",
"90 -20 OFFCURVE",
"119 0 CURVE",
"105 7 LINE",
"86 3 OFFCURVE",
"4 -63 OFFCURVE",
"-24 -98 CURVE",
"4 -123 LINE"
);
},
{
closed = 1;
nodes = (
"398 -63 OFFCURVE",
"444 -15 OFFCURVE",
"466 0 CURVE",
"452 7 LINE",
"438 4 OFFCURVE",
"392 -31 OFFCURVE",
"356 -64 CURVE",
"370 -97 LINE"
);
},
{
closed = 1;
nodes = (
"611 -237 OFFCURVE",
"724 -171 OFFCURVE",
"724 -76 CURVE SMOOTH",
"724 -19 OFFCURVE",
"542 18 OFFCURVE",
"444 65 CURVE",
"441 14 LINE",
"501 129 LINE",
"491 135 LINE",
"455 106 OFFCURVE",
"414 66 OFFCURVE",
"414 37 CURVE SMOOTH",
"414 -13 OFFCURVE",
"684 -52 OFFCURVE",
"684 -112 CURVE SMOOTH",
"684 -148 OFFCURVE",
"628 -198 OFFCURVE",
"553 -198 CURVE SMOOTH",
"451 -198 OFFCURVE",
"394 -153 OFFCURVE",
"366 -117 CURVE",
"328 -161 LINE",
"353 -204 OFFCURVE",
"419 -237 OFFCURVE",
"501 -237 CURVE SMOOTH"
);
},
{
closed = 1;
nodes = (
"272 112 OFFCURVE",
"336 236 OFFCURVE",
"336 335 CURVE SMOOTH",
"336 420 OFFCURVE",
"295 458 OFFCURVE",
"224 458 CURVE SMOOTH",
"133 458 OFFCURVE",
"68 334 OFFCURVE",
"68 235 CURVE SMOOTH",
"68 150 OFFCURVE",
"109 112 OFFCURVE",
"179 112 CURVE SMOOTH"
);
},
{
closed = 1;
nodes = (
"217 124 LINE",
"226 145 LINE",
"158 143 OFFCURVE",
"122 175 OFFCURVE",
"122 252 CURVE SMOOTH",
"122 369 OFFCURVE",
"180 446 OFFCURVE",
"223 446 CURVE",
"191 446 LINE",
"178 425 LINE",
"247 427 OFFCURVE",
"282 395 OFFCURVE",
"282 317 CURVE SMOOTH",
"282 201 OFFCURVE",
"225 124 OFFCURVE",
"181 124 CURVE"
);
},
{
closed = 1;
nodes = (
"403 440 LINE",
"390 480 LINE",
"306 426 LINE",
"298 406 LINE"
);
},
{
closed = 1;
nodes = (
"619 112 OFFCURVE",
"683 236 OFFCURVE",
"683 335 CURVE SMOOTH",
"683 420 OFFCURVE",
"642 458 OFFCURVE",
"571 458 CURVE SMOOTH",
"480 458 OFFCURVE",
"415 334 OFFCURVE",
"415 235 CURVE SMOOTH",
"415 150 OFFCURVE",
"456 112 OFFCURVE",
"526 112 CURVE SMOOTH"
);
},
{
closed = 1;
nodes = (
"564 124 LINE",
"573 145 LINE",
"505 143 OFFCURVE",
"469 175 OFFCURVE",
"469 252 CURVE SMOOTH",
"469 369 OFFCURVE",
"527 446 OFFCURVE",
"570 446 CURVE",
"538 446 LINE",
"525 425 LINE",
"594 427 OFFCURVE",
"629 395 OFFCURVE",
"629 317 CURVE SMOOTH",
"629 201 OFFCURVE",
"572 124 OFFCURVE",
"528 124 CURVE"
);
},
{
closed = 1;
nodes = (
"750 440 LINE",
"737 480 LINE",
"653 426 LINE",
"645 406 LINE"
);
}
);
};
layerId = "97AFB7C9-FE9A-4B33-96EF-7CD144DFB325";
paths = (
{
closed = 1;
nodes = (
"260 -237 OFFCURVE",
"377 -174 OFFCURVE",
"377 -76 CURVE SMOOTH",
"377 -19 OFFCURVE",
"195 18 OFFCURVE",
"97 65 CURVE",
"94 14 LINE",
"154 129 LINE",
"144 135 LINE",
"108 106 OFFCURVE",
"67 66 OFFCURVE",
"67 37 CURVE SMOOTH",
"67 -13 OFFCURVE",
"337 -52 OFFCURVE",
"337 -112 CURVE SMOOTH",
"337 -148 OFFCURVE",
"281 -198 OFFCURVE",
"206 -198 CURVE SMOOTH",
"73 -198 OFFCURVE",
"16 -121 OFFCURVE",
"2 -89 CURVE",
"-24 -98 LINE",
"-51 -166 OFFCURVE",
"34 -237 OFFCURVE",
"154 -237 CURVE SMOOTH"
);
},
{
closed = 1;
nodes = (
"22 -94 OFFCURVE",
"90 -20 OFFCURVE",
"119 0 CURVE",
"105 7 LINE",
"86 3 OFFCURVE",
"4 -63 OFFCURVE",
"-24 -98 CURVE",
"4 -123 LINE"
);
},
{
closed = 1;
nodes = (
"398 -63 OFFCURVE",
"444 -15 OFFCURVE",
"466 0 CURVE",
"452 7 LINE",
"438 4 OFFCURVE",
"392 -31 OFFCURVE",
"356 -64 CURVE",
"370 -97 LINE"
);
},
{
closed = 1;
nodes = (
"272 112 OFFCURVE",
"336 236 OFFCURVE",
"336 335 CURVE SMOOTH",
"336 420 OFFCURVE",
"295 458 OFFCURVE",
"224 458 CURVE SMOOTH",
"133 458 OFFCURVE",
"68 334 OFFCURVE",
"68 235 CURVE SMOOTH",
"68 150 OFFCURVE",
"109 112 OFFCURVE",
"179 112 CURVE SMOOTH"
);
},
{
closed = 1;
nodes = (
"611 -237 OFFCURVE",
"724 -171 OFFCURVE",
"724 -76 CURVE SMOOTH",
"724 -19 OFFCURVE",
"542 18 OFFCURVE",
"444 65 CURVE",
"441 14 LINE",
"501 129 LINE",
"491 135 LINE",
"455 106 OFFCURVE",
"414 66 OFFCURVE",
"414 37 CURVE SMOOTH",
"414 -13 OFFCURVE",
"684 -52 OFFCURVE",
"684 -112 CURVE SMOOTH",
"684 -148 OFFCURVE",
"628 -198 OFFCURVE",
"553 -198 CURVE SMOOTH",
"451 -198 OFFCURVE",
"394 -153 OFFCURVE",
"366 -117 CURVE",
"328 -161 LINE",
"353 -204 OFFCURVE",
"419 -237 OFFCURVE",
"501 -237 CURVE SMOOTH"
);
},
{
closed = 1;
nodes = (
"217 124 LINE",
"226 145 LINE",
"158 143 OFFCURVE",
"122 175 OFFCURVE",
"122 252 CURVE SMOOTH",
"122 369 OFFCURVE",
"180 446 OFFCURVE",
"223 446 CURVE",
"191 446 LINE",
"178 425 LINE",
"247 427 OFFCURVE",
"282 395 OFFCURVE",
"282 317 CURVE SMOOTH",
"282 201 OFFCURVE",
"225 124 OFFCURVE",
"181 124 CURVE"
);
},
{
closed = 1;
nodes = (
"403 440 LINE",
"390 480 LINE",
"306 426 LINE",
"298 406 LINE"
);
},
{
closed = 1;
nodes = (
"619 112 OFFCURVE",
"683 236 OFFCURVE",
"683 335 CURVE SMOOTH",
"683 420 OFFCURVE",
"642 458 OFFCURVE",
"571 458 CURVE SMOOTH",
"480 458 OFFCURVE",
"415 334 OFFCURVE",
"415 235 CURVE SMOOTH",
"415 150 OFFCURVE",
"456 112 OFFCURVE",
"526 112 CURVE SMOOTH"
);
},
{
closed = 1;
nodes = (
"564 124 LINE",
"573 145 LINE",
"505 143 OFFCURVE",
"469 175 OFFCURVE",
"469 252 CURVE SMOOTH",
"469 369 OFFCURVE",
"527 446 OFFCURVE",
"570 446 CURVE",
"538 446 LINE",
"525 425 LINE",
"594 427 OFFCURVE",
"629 395 OFFCURVE",
"629 317 CURVE SMOOTH",
"629 201 OFFCURVE",
"572 124 OFFCURVE",
"528 124 CURVE"
);
},
{
closed = 1;
nodes = (
"750 440 LINE",
"737 480 LINE",
"653 426 LINE",
"645 406 LINE"
);
}
);
width = 737;
}
);
leftMetricsKey = g;
rightMetricsKey = g;
},
{
glyphname = mu;
lastChange = "2016-11-11 17:29:21 +0000";
layers = (
{
background = {
components = (
{
name = _part.SerifBottomRight2;
transform = "{1, 0, 0, 1, 126, 0}";
}
);
paths = (
{
closed = 1;
nodes = (
"347 13 LINE",
"420 456 LINE",
"361 437 LINE",
"288 -2 LINE"
);
},
{
closed = 1;
nodes = (
"115 438 LINE",
"69 162 LINE SMOOTH",
"51 53 OFFCURVE",
"63 -7 OFFCURVE",
"123 -7 CURVE SMOOTH",
"228 -7 OFFCURVE",
"317 149 OFFCURVE",
"348 312 CURVE",
"344 324 LINE",
"306 159 OFFCURVE",
"204 34 OFFCURVE",
"101 32 CURVE",
"121 7 LINE",
"150 14 LINE",
"116 31 OFFCURVE",
"113 86 OFFCURVE",
"135 218 CURVE SMOOTH",
"174 456 LINE"
);
},
{
closed = 1;
nodes = (
"94 -237 LINE",
"65 -152 OFFCURVE",
"98 -4 OFFCURVE",
"135 218 CURVE",
"69 162 LINE",
"51 53 OFFCURVE",
"17 -144 OFFCURVE",
"17 -185 CURVE SMOOTH",
"17 -225 OFFCURVE",
"63 -247 OFFCURVE",
"86 -247 CURVE"
);
}
);
};
components = (
{
name = _part.SerifBottomRight2;
transform = "{1, 0, 0, 1, 126, 0}";
}
);
guideLines = (
{
angle = 80.594;
position = "{115, 438}";
},
{
angle = 80.594;
position = "{174, 456}";
}
);
layerId = "97AFB7C9-FE9A-4B33-96EF-7CD144DFB325";
paths = (
{
closed = 1;
nodes = (
"347 13 LINE",
"420 456 LINE",
"361 437 LINE",
"288 -2 LINE"
);
},
{
closed = 1;
nodes = (
"115 438 LINE",
"69 162 LINE SMOOTH",
"51 53 OFFCURVE",
"83 -7 OFFCURVE",
"143 -7 CURVE SMOOTH",
"228 -7 OFFCURVE",
"317 149 OFFCURVE",
"348 312 CURVE",
"344 324 LINE",
"306 159 OFFCURVE",
"204 34 OFFCURVE",
"121 32 CURVE",
"141 7 LINE",
"150 14 LINE",
"116 31 OFFCURVE",
"113 86 OFFCURVE",
"135 218 CURVE SMOOTH",
"174 456 LINE"
);
},
{
closed = 1;
nodes = (
"92 -241 LINE",
"77 -187 OFFCURVE",
"66 -160 OFFCURVE",
"93 1 CURVE SMOOTH",
"129 218 LINE",
"115 438 LINE",
"30 -75 LINE SMOOTH",
"5 -225 OFFCURVE",
"63 -247 OFFCURVE",
"86 -247 CURVE"
);
}
);
width = 492;
}
);
rightMetricsKey = u;
unicode = 03BC;
},
{
glyphname = zero;
lastChange = "2016-11-11 17:29:21 +0000";
layers = (
{
background = {
paths = (
{
closed = 1;
nodes = (
"184 672 OFFCURVE",
"106 537 OFFCURVE",
"73 363 CURVE SMOOTH",
"32 148 OFFCURVE",
"81 -7 OFFCURVE",
"255 -7 CURVE SMOOTH",
"390 -7 OFFCURVE",
"473 129 OFFCURVE",
"504 303 CURVE SMOOTH",
"541 508 OFFCURVE",
"490 672 OFFCURVE",
"317 672 CURVE SMOOTH"
);
},
{
closed = 1;
nodes = (
"413 112 OFFCURVE",
"333 27 OFFCURVE",
"303 27 CURVE",
"147 27 OFFCURVE",
"99 172 OFFCURVE",
"137 381 CURVE SMOOTH",
"167 546 OFFCURVE",
"234 632 OFFCURVE",
"280 652 CURVE",
"240 635 LINE",
"448 641 OFFCURVE",
"469 458 OFFCURVE",
"440 279 CURVE SMOOTH"
);
}
);
};
layerId = "97AFB7C9-FE9A-4B33-96EF-7CD144DFB325";
paths = (
{
closed = 1;
nodes = (
"388 -7 OFFCURVE",
"473 138 OFFCURVE",
"505 312 CURVE SMOOTH",
"544 517 OFFCURVE",
"481 672 OFFCURVE",
"317 672 CURVE SMOOTH",
"192 672 OFFCURVE",
"102 526 OFFCURVE",
"71 352 CURVE SMOOTH",
"36 157 OFFCURVE",
"92 -7 OFFCURVE",
"255 -7 CURVE SMOOTH"
);
},
{
closed = 1;
nodes = (
"163 546 OFFCURVE",
"237 631 OFFCURVE",
"278 652 CURVE",
"240 635 LINE",
"430 635 OFFCURVE",
"478 493 OFFCURVE",
"440 284 CURVE SMOOTH",
"410 119 OFFCURVE",
"343 33 OFFCURVE",
"297 13 CURVE",
"337 30 LINE",
"129 24 OFFCURVE",
"108 207 OFFCURVE",
"135 376 CURVE SMOOTH"
);
}
);
width = 542;
},
{
associatedMasterId = "97AFB7C9-FE9A-4B33-96EF-7CD144DFB325";
background = {
paths = (
{
closed = 1;
nodes = (
"393 -7 OFFCURVE",
"471 128 OFFCURVE",
"504 302 CURVE SMOOTH",
"544 517 OFFCURVE",
"496 672 OFFCURVE",
"322 672 CURVE SMOOTH",
"187 672 OFFCURVE",
"104 536 OFFCURVE",
"73 362 CURVE SMOOTH",
"36 157 OFFCURVE",
"87 -7 OFFCURVE",
"260 -7 CURVE SMOOTH"
);
},
{
closed = 1;
nodes = (
"164 553 OFFCURVE",
"244 638 OFFCURVE",
"274 638 CURVE SMOOTH",
"430 638 OFFCURVE",
"478 493 OFFCURVE",
"440 284 CURVE SMOOTH",
"409 112 OFFCURVE",
"337 25 OFFCURVE",
"302 24 CURVE SMOOTH",
"132 19 OFFCURVE",
"108 207 OFFCURVE",
"137 386 CURVE SMOOTH"
);
}
);
};
layerId = "D4124C3A-F019-485A-843F-C4FFB6432285";
name = "Light Italic Nov 11 16, 17:18";
paths = (
{
closed = 1;
nodes = (
"393 -7 OFFCURVE",
"471 128 OFFCURVE",
"504 302 CURVE SMOOTH",
"544 517 OFFCURVE",
"496 672 OFFCURVE",
"322 672 CURVE SMOOTH",
"187 672 OFFCURVE",
"104 536 OFFCURVE",
"73 362 CURVE SMOOTH",
"36 157 OFFCURVE",
"87 -7 OFFCURVE",
"260 -7 CURVE SMOOTH"
);
},
{
closed = 1;
nodes = (
"164 553 OFFCURVE",
"244 638 OFFCURVE",
"274 638 CURVE SMOOTH",
"430 638 OFFCURVE",
"478 493 OFFCURVE",
"440 284 CURVE SMOOTH",
"409 112 OFFCURVE",
"337 25 OFFCURVE",
"302 24 CURVE SMOOTH",
"132 19 OFFCURVE",
"108 207 OFFCURVE",
"137 386 CURVE SMOOTH"
);
}
);
width = 542;
}
);
unicode = 0030;
},
{
glyphname = one;
lastChange = "2016-11-11 17:29:21 +0000";
layers = (
{
background = {
paths = (
{
closed = 1;
nodes = (
"180 0 LINE",
"292 674 LINE",
"53 578 LINE",
"59 558 LINE",
"243 603 LINE",
"223 638 LINE",
"117 0 LINE"
);
},
{
closed = 1;
nodes = (
"144 0 LINE",
"294 -2 LINE",
"296 13 LINE",
"150 53 LINE"
);
},
{
closed = 1;
nodes = (
"5 13 LINE",
"7 -2 LINE",
"156 0 LINE",
"168 53 LINE"
);
}
);
};
guideLines = (
{
angle = 80.594;
position = "{292, 674}";
},
{
angle = 80.594;
position = "{223, 638}";
}
);
layerId = "97AFB7C9-FE9A-4B33-96EF-7CD144DFB325";
paths = (
{
closed = 1;
nodes = (
"180 0 LINE",
"292 674 LINE",
"83 590 LINE",
"89 572 LINE",
"243 603 LINE",
"223 638 LINE",
"117 0 LINE"
);
},
{
closed = 1;
nodes = (
"144 0 LINE",
"294 -2 LINE",
"296 13 LINE",
"150 55 LINE"
);
},
{
closed = 1;
nodes = (
"5 13 LINE",
"7 -2 LINE",
"156 0 LINE",
"168 55 LINE"
);
}
);
width = 363;
}
);
unicode = 0031;
},
{
glyphname = two;
lastChange = "2016-11-11 17:29:21 +0000";
layers = (
{
background = {
paths = (
{
closed = 1;
nodes = (
"335 0 LINE",
"359 -3 OFFCURVE",
"382 -5 OFFCURVE",
"404 -5 CURVE",
"438 136 LINE",
"426 141 LINE",
"335 7 LINE",
"405 50 LINE",
"359 54 LINE"
);
},
{
closed = 1;
nodes = (
"385 0 LINE",
"398 55 LINE",
"86 55 LINE",
"49 18 LINE",
"188 119 OFFCURVE",
"422 316 OFFCURVE",
"447 471 CURVE SMOOTH",
"467 594 OFFCURVE",
"390 672 OFFCURVE",
"276 672 CURVE SMOOTH",
"187 672 OFFCURVE",
"136 634 OFFCURVE",
"122 619 CURVE",
"103 502 LINE",
"117 498 LINE",
"215 651 LINE",
"140 619 LINE",
"132 567 LINE",
"140 571 OFFCURVE",
"169 638 OFFCURVE",
"212 638 CURVE SMOOTH",
"337 638 OFFCURVE",
"404 564 OFFCURVE",
"385 454 CURVE SMOOTH",
"360 306 OFFCURVE",
"134 125 OFFCURVE",
"24 22 CURVE",
"27 0 LINE"
);
}
);
};
guideLines = (
{
angle = 80.594;
position = "{523, 451}";
}
);
layerId = "97AFB7C9-FE9A-4B33-96EF-7CD144DFB325";
paths = (
{
closed = 1;
nodes = (
"323 0 LINE",
"347 -3 OFFCURVE",
"370 -5 OFFCURVE",
"392 -5 CURVE",
"426 136 LINE",
"414 141 LINE",
"323 7 LINE",
"393 50 LINE",
"347 54 LINE"
);
},
{
closed = 1;
nodes = (
"373 0 LINE",
"386 55 LINE",
"74 55 LINE",
"37 18 LINE",
"176 119 OFFCURVE",
"417 316 OFFCURVE",
"442 471 CURVE SMOOTH",
"462 594 OFFCURVE",
"385 672 OFFCURVE",
"271 672 CURVE SMOOTH",
"182 672 OFFCURVE",
"131 634 OFFCURVE",
"117 619 CURVE",
"98 502 LINE",
"112 498 LINE",
"210 651 LINE",
"135 619 LINE",
"127 567 LINE",
"135 571 OFFCURVE",
"164 638 OFFCURVE",
"207 638 CURVE SMOOTH",
"332 638 OFFCURVE",
"399 564 OFFCURVE",
"380 454 CURVE SMOOTH",
"355 306 OFFCURVE",
"122 125 OFFCURVE",
"12 22 CURVE",
"15 0 LINE"
);
}
);
width = 511;
}
);
unicode = 0032;
},
{
glyphname = three;
lastChange = "2016-11-11 17:29:21 +0000";
layers = (
{
background = {
paths = (
{
closed = 1;
nodes = (
"13 23 OFFCURVE",
"45 -7 OFFCURVE",
"160 -7 CURVE SMOOTH",
"278 -7 OFFCURVE",
"356 93 OFFCURVE",
"375 205 CURVE SMOOTH",
"397 330 OFFCURVE",
"303 408 OFFCURVE",
"191 430 CURVE",
"140 390 LINE",
"239 372 OFFCURVE",
"336 300 OFFCURVE",
"314 174 CURVE SMOOTH",
"298 82 OFFCURVE",
"236 36 OFFCURVE",
"215 22 CURVE",
"142 22 OFFCURVE",
"74 48 OFFCURVE",
"35 74 CURVE",
"75 4 LINE",
"59 162 LINE",
"43 158 LINE",
"9 33 LINE"
);
},
{
closed = 1;
nodes = (
"422 665 LINE",
"149 665 LINE SMOOTH",
"127 665 OFFCURVE",
"105 666 OFFCURVE",
"100 666 CURVE",
"81 546 LINE",
"95 541 LINE",
"151 650 LINE",
"102 611 LINE",
"387 611 LINE",
"389 644 LINE",
"140 390 LINE",
"171 391 LINE",
"417 621 LINE"
);
}
);
};
layerId = "97AFB7C9-FE9A-4B33-96EF-7CD144DFB325";
paths = (
{
closed = 1;
nodes = (
"29 32 OFFCURVE",
"64 -7 OFFCURVE",
"179 -7 CURVE SMOOTH",
"297 -7 OFFCURVE",
"375 93 OFFCURVE",
"394 205 CURVE SMOOTH",
"416 330 OFFCURVE",
"322 408 OFFCURVE",
"210 430 CURVE",
"159 390 LINE",
"258 372 OFFCURVE",
"355 300 OFFCURVE",
"333 174 CURVE SMOOTH",
"314 67 OFFCURVE",
"234 22 OFFCURVE",
"227 18 CURVE",
"269 32 LINE",
"183 22 OFFCURVE",
"99 52 OFFCURVE",
"54 82 CURVE",
"94 4 LINE",
"78 162 LINE",
"62 158 LINE",
"28 33 LINE"
);
},
{
closed = 1;
nodes = (
"441 665 LINE",
"168 665 LINE SMOOTH",
"146 665 OFFCURVE",
"124 666 OFFCURVE",
"119 666 CURVE",
"100 546 LINE",
"114 541 LINE",
"170 650 LINE",
"121 611 LINE",
"406 611 LINE",
"408 644 LINE",
"159 390 LINE",
"190 391 LINE",
"436 621 LINE"
);
}
);
width = 447;
}
);
unicode = 0033;
},
{
glyphname = four;
lastChange = "2016-11-11 17:29:21 +0000";
layers = (
{
background = {
paths = (
{
closed = 1;
nodes = (
"347 12 LINE",
"456 676 LINE",
"440 676 LINE",
"390 657 LINE",
"395 642 LINE",
"287 -7 LINE"
);
},
{
closed = 1;
nodes = (
"477 175 LINE",
"493 223 LINE",
"41 225 LINE",
"19 202 LINE",
"30 175 LINE"
);
},
{
closed = 1;
nodes = (
"390 657 LINE",
"19 202 LINE",
"56 187 LINE",
"413 652 LINE"
);
}
);
};
guideLines = (
{
angle = 80.594;
position = "{469, 11}";
}
);
layerId = "97AFB7C9-FE9A-4B33-96EF-7CD144DFB325";
paths = (
{
closed = 1;
nodes = (
"345 -1 LINE",
"456 676 LINE",
"440 676 LINE",
"388 657 LINE",
"395 642 LINE",
"285 -20 LINE"
);
},
{
closed = 1;
nodes = (
"477 175 LINE",
"493 223 LINE",
"41 225 LINE",
"19 202 LINE",
"30 175 LINE"
);
},
{
closed = 1;
nodes = (
"388 657 LINE",
"19 202 LINE",
"56 187 LINE",
"415 652 LINE"
);
}
);
width = 527;
}
);
unicode = 0034;
},
{
glyphname = five;
lastChange = "2016-11-11 17:29:21 +0000";
layers = (
{
background = {
paths = (
{
closed = 1;
nodes = (
"132 389 LINE",
"207 665 LINE",
"174 665 LINE",
"111 389 LINE"
);
},
{
closed = 1;
nodes = (
"433 611 LINE",
"445 665 LINE",
"174 665 LINE",
"169 611 LINE"
);
},
{
closed = 1;
nodes = (
"373 613 LINE",
"433 611 LINE",
"466 698 LINE",
"451 704 LINE",
"356 619 LINE",
"444 662 LINE",
"350 658 LINE"
);
},
{
closed = 1;
nodes = (
"27 32 OFFCURVE",
"62 -7 OFFCURVE",
"177 -7 CURVE SMOOTH",
"295 -7 OFFCURVE",
"373 91 OFFCURVE",
"392 203 CURVE SMOOTH",
"414 328 OFFCURVE",
"320 422 OFFCURVE",
"133 440 CURVE",
"111 389 LINE",
"256 372 OFFCURVE",
"353 298 OFFCURVE",
"331 172 CURVE SMOOTH",
"312 65 OFFCURVE",
"235 23 OFFCURVE",
"225 17 CURVE",
"267 32 LINE",
"181 22 OFFCURVE",
"97 52 OFFCURVE",
"52 82 CURVE",
"92 4 LINE",
"76 162 LINE",
"60 158 LINE",
"26 33 LINE"
);
}
);
};
layerId = "97AFB7C9-FE9A-4B33-96EF-7CD144DFB325";
paths = (
{
closed = 1;
nodes = (
"134 389 LINE",
"209 665 LINE",
"174 665 LINE",
"110 386 LINE"
);
},
{
closed = 1;
nodes = (
"433 611 LINE",
"445 665 LINE",
"174 665 LINE",
"169 611 LINE"
);
},
{
closed = 1;
nodes = (
"373 613 LINE",
"433 611 LINE",
"466 698 LINE",
"451 704 LINE",
"356 619 LINE",
"444 662 LINE",
"350 658 LINE"
);
},
{
closed = 1;
nodes = (
"27 32 OFFCURVE",
"62 -7 OFFCURVE",
"177 -7 CURVE SMOOTH",
"295 -7 OFFCURVE",
"373 91 OFFCURVE",
"392 203 CURVE SMOOTH",
"414 328 OFFCURVE",
"320 424 OFFCURVE",
"133 442 CURVE",
"110 386 LINE",
"255 369 OFFCURVE",
"353 298 OFFCURVE",
"331 172 CURVE SMOOTH",
"312 65 OFFCURVE",
"235 23 OFFCURVE",
"225 17 CURVE",
"267 32 LINE",
"181 22 OFFCURVE",
"97 52 OFFCURVE",
"52 82 CURVE",
"92 4 LINE",
"76 162 LINE",
"60 158 LINE",
"26 33 LINE"
);
}
);
width = 446;
}
);
unicode = 0035;
},
{
glyphname = seven;
lastChange = "2016-11-11 17:29:21 +0000";
layers = (
{
background = {
paths = (
{
closed = 1;
nodes = (
"142 101 LINE",
"115 16 LINE",
"438 623 LINE",
"445 665 LINE",
"407 625 LINE",
"105 95 LINE SMOOTH",
"77 46 OFFCURVE",
"61 7 OFFCURVE",
"62 -9 CURVE SMOOTH",
"63 -19 LINE",
"130 3 LINE"
);
},
{
closed = 1;
nodes = (
"79 543 LINE",
"143 651 LINE",
"97 611 LINE",
"412 611 LINE",
"445 665 LINE",
"151 665 LINE SMOOTH",
"140 665 OFFCURVE",
"108 665 OFFCURVE",
"95 666 CURVE",
"66 547 LINE"
);
}
);
};
layerId = "97AFB7C9-FE9A-4B33-96EF-7CD144DFB325";
paths = (
{
closed = 1;
nodes = (
"146 101 LINE",
"115 15 LINE",
"439 623 LINE",
"446 665 LINE",
"408 625 LINE",
"105 94 LINE SMOOTH",
"77 45 OFFCURVE",
"61 6 OFFCURVE",
"62 -10 CURVE SMOOTH",
"63 -20 LINE",
"134 3 LINE"
);
},
{
closed = 1;
nodes = (
"79 543 LINE",
"143 651 LINE",
"97 611 LINE",
"413 611 LINE",
"446 665 LINE",
"151 665 LINE SMOOTH",
"140 665 OFFCURVE",
"108 665 OFFCURVE",
"95 666 CURVE",
"66 547 LINE"
);
}
);
width = 389;
}
);
unicode = 0037;
},
{
glyphname = eight;
lastChange = "2016-11-11 17:29:21 +0000";
layers = (
{
background = {
paths = (
{
closed = 1;
nodes = (
"307 332 LINE",
"364 361 OFFCURVE",
"441 412 OFFCURVE",
"456 501 CURVE SMOOTH",
"472 601 OFFCURVE",
"399 672 OFFCURVE",
"297 672 CURVE SMOOTH",
"194 672 OFFCURVE",
"127 596 OFFCURVE",
"115 518 CURVE SMOOTH",
"87 337 OFFCURVE",
"387 292 OFFCURVE",
"360 127 CURVE SMOOTH",
"344 30 OFFCURVE",
"277 15 OFFCURVE",
"268 8 CURVE",
"336 28 LINE",
"175 11 OFFCURVE",
"77 91 OFFCURVE",
"94 199 CURVE SMOOTH",
"107 278 OFFCURVE",
"173 317 OFFCURVE",
"212 348 CURVE",
"206 360 LINE",
"145 337 OFFCURVE",
"50 277 OFFCURVE",
"33 173 CURVE SMOOTH",
"15 65 OFFCURVE",
"100 -7 OFFCURVE",
"219 -7 CURVE SMOOTH",
"328 -7 OFFCURVE",
"406 63 OFFCURVE",
"420 149 CURVE SMOOTH",
"449 331 OFFCURVE",
"149 374 OFFCURVE",
"176 543 CURVE SMOOTH",
"188 620 OFFCURVE",
"233 646 OFFCURVE",
"237 654 CURVE",
"219 638 LINE",
"322 650 OFFCURVE",
"412 585 OFFCURVE",
"395 487 CURVE SMOOTH",
"385 427 OFFCURVE",
"339 379 OFFCURVE",
"293 343 CURVE"
);
}
);
};
guideLines = (
{
angle = 80.594;
position = "{457, 505}";
},
{
angle = 80.594;
position = "{115, 518}";
}
);
layerId = "97AFB7C9-FE9A-4B33-96EF-7CD144DFB325";
paths = (
{
closed = 1;
nodes = (
"314 332 LINE",
"371 361 OFFCURVE",
"448 412 OFFCURVE",
"463 501 CURVE SMOOTH",
"479 601 OFFCURVE",
"406 672 OFFCURVE",
"304 672 CURVE SMOOTH",
"201 672 OFFCURVE",
"134 596 OFFCURVE",
"122 518 CURVE SMOOTH",
"94 337 OFFCURVE",
"397 292 OFFCURVE",
"370 127 CURVE SMOOTH",
"354 30 OFFCURVE",
"287 15 OFFCURVE",
"278 8 CURVE",
"346 28 LINE",
"185 11 OFFCURVE",
"87 91 OFFCURVE",
"104 199 CURVE SMOOTH",
"116 278 OFFCURVE",
"182 321 OFFCURVE",
"224 347 CURVE",
"216 361 LINE",
"157 342 OFFCURVE",
"61 279 OFFCURVE",
"43 173 CURVE SMOOTH",
"25 65 OFFCURVE",
"110 -7 OFFCURVE",
"229 -7 CURVE SMOOTH",
"338 -7 OFFCURVE",
"416 63 OFFCURVE",
"430 149 CURVE SMOOTH",
"459 331 OFFCURVE",
"156 374 OFFCURVE",
"183 543 CURVE SMOOTH",
"195 620 OFFCURVE",
"240 646 OFFCURVE",
"244 654 CURVE",
"226 638 LINE",
"329 650 OFFCURVE",
"419 585 OFFCURVE",
"402 487 CURVE SMOOTH",
"392 427 OFFCURVE",
"346 379 OFFCURVE",
"300 343 CURVE"
);
}
);
width = 495;
}
);
unicode = 0038;
},
{
glyphname = nine;
lastChange = "2016-11-11 17:29:21 +0000";
layers = (
{
background = {
paths = (
{
closed = 1;
nodes = (
"42 31 OFFCURVE",
"96 -7 OFFCURVE",
"182 -7 CURVE SMOOTH",
"296 -7 OFFCURVE",
"403 95 OFFCURVE",
"442 339 CURVE SMOOTH",
"476 549 OFFCURVE",
"427 672 OFFCURVE",
"285 672 CURVE SMOOTH",
"165 672 OFFCURVE",
"92 572 OFFCURVE",
"78 464 CURVE SMOOTH",
"63 346 OFFCURVE",
"127 265 OFFCURVE",
"244 265 CURVE SMOOTH",
"327 265 OFFCURVE",
"379 308 OFFCURVE",
"414 336 CURVE",
"411 355 LINE",
"400 347 OFFCURVE",
"355 307 OFFCURVE",
"277 307 CURVE SMOOTH",
"169 307 OFFCURVE",
"126 385 OFFCURVE",
"141 490 CURVE SMOOTH",
"154 587 OFFCURVE",
"206 642 OFFCURVE",
"245 659 CURVE",
"205 638 LINE",
"373 653 OFFCURVE",
"411 511 OFFCURVE",
"378 322 CURVE SMOOTH",
"339 101 OFFCURVE",
"274 42 OFFCURVE",
"224 12 CURVE",
"279 32 LINE",
"188 21 OFFCURVE",
"104 54 OFFCURVE",
"73 81 CURVE",
"106 19 LINE",
"91 162 LINE",
"75 158 LINE",
"41 33 LINE"
);
}
);
};
layerId = "97AFB7C9-FE9A-4B33-96EF-7CD144DFB325";
paths = (
{
closed = 1;
nodes = (
"42 31 OFFCURVE",
"101 -7 OFFCURVE",
"177 -7 CURVE SMOOTH",
"301 -7 OFFCURVE",
"405 95 OFFCURVE",
"444 339 CURVE SMOOTH",
"478 549 OFFCURVE",
"429 672 OFFCURVE",
"287 672 CURVE SMOOTH",
"167 672 OFFCURVE",
"94 572 OFFCURVE",
"80 464 CURVE SMOOTH",
"65 346 OFFCURVE",
"129 265 OFFCURVE",
"246 265 CURVE SMOOTH",
"329 265 OFFCURVE",
"381 308 OFFCURVE",
"416 336 CURVE",
"413 355 LINE",
"402 347 OFFCURVE",
"357 307 OFFCURVE",
"279 307 CURVE SMOOTH",
"171 307 OFFCURVE",
"128 385 OFFCURVE",
"143 490 CURVE SMOOTH",
"156 587 OFFCURVE",
"208 642 OFFCURVE",
"247 659 CURVE",
"220 655 LINE",
"207 638 LINE",
"375 653 OFFCURVE",
"413 511 OFFCURVE",
"380 322 CURVE SMOOTH",
"341 101 OFFCURVE",
"274 42 OFFCURVE",
"224 12 CURVE",
"279 32 LINE",
"188 21 OFFCURVE",
"104 54 OFFCURVE",
"73 81 CURVE",
"106 19 LINE",
"91 162 LINE",
"75 158 LINE",
"41 33 LINE"
);
}
);
width = 489;
}
);
unicode = 0039;
},
{
glyphname = zero.osf;
lastChange = "2016-11-11 17:29:21 +0000";
layers = (
{
background = {
paths = (
{
closed = 1;
nodes = (
"308 -7 OFFCURVE",
"389 160 OFFCURVE",
"389 293 CURVE SMOOTH",
"389 407 OFFCURVE",
"328 458 OFFCURVE",
"242 458 CURVE SMOOTH",
"125 458 OFFCURVE",
"44 291 OFFCURVE",
"44 158 CURVE SMOOTH",
"44 44 OFFCURVE",
"105 -7 OFFCURVE",
"196 -7 CURVE SMOOTH"
);
},
{
closed = 1;
nodes = (
"166 21 OFFCURVE",
"104 67 OFFCURVE",
"104 181 CURVE SMOOTH",
"104 341 OFFCURVE",
"186 447 OFFCURVE",
"232 447 CURVE",
"216 447 LINE",
"176 424 LINE",
"276 430 OFFCURVE",
"329 378 OFFCURVE",
"329 270 CURVE SMOOTH",
"329 111 OFFCURVE",
"248 4 OFFCURVE",
"201 4 CURVE",
"217 4 LINE",
"257 27 LINE"
);
}
);
};
layerId = "97AFB7C9-FE9A-4B33-96EF-7CD144DFB325";
paths = (
{
closed = 1;
nodes = (
"309 -7 OFFCURVE",
"391 162 OFFCURVE",
"391 296 CURVE SMOOTH",
"391 411 OFFCURVE",
"329 463 OFFCURVE",
"242 463 CURVE SMOOTH",
"124 463 OFFCURVE",
"42 294 OFFCURVE",
"42 160 CURVE SMOOTH",
"42 45 OFFCURVE",
"104 -7 OFFCURVE",
"196 -7 CURVE SMOOTH"
);
},
{
closed = 1;
nodes = (
"165 21 OFFCURVE",
"103 68 OFFCURVE",
"103 183 CURVE SMOOTH",
"103 345 OFFCURVE",
"186 452 OFFCURVE",
"232 452 CURVE",
"216 452 LINE",
"176 429 LINE",
"277 435 OFFCURVE",
"330 382 OFFCURVE",
"330 273 CURVE SMOOTH",
"330 112 OFFCURVE",
"248 4 OFFCURVE",
"201 4 CURVE",
"217 4 LINE",
"257 27 LINE"
);
}
);
width = 432;
}
);
},
{
glyphname = one.osf;
lastChange = "2016-11-11 17:29:21 +0000";
layers = (
{
background = {
paths = (
{
closed = 1;
nodes = (
"153 0 LINE",
"229 458 LINE",
"42 388 LINE",
"48 368 LINE",
"183 403 LINE",
"165 422 LINE",
"95 0 LINE"
);
},
{
closed = 1;
nodes = (
"118 0 LINE",
"243 -2 LINE",
"245 12 LINE",
"125 53 LINE"
);
},
{
closed = 1;
nodes = (
"4 12 LINE",
"6 -2 LINE",
"130 0 LINE",
"143 53 LINE"
);
}
);
};
guideLines = (
{
angle = 80.594;
position = "{229, 458}";
},
{
angle = 80.594;
position = "{165, 422}";
}
);
layerId = "97AFB7C9-FE9A-4B33-96EF-7CD144DFB325";
paths = (
{
closed = 1;
nodes = (
"153 0 LINE",
"229 458 LINE",
"52 392 LINE",
"58 374 LINE",
"183 393 LINE",
"165 422 LINE",
"95 0 LINE"
);
},
{
closed = 1;
nodes = (
"118 0 LINE",
"243 -2 LINE",
"245 12 LINE",
"125 53 LINE"
);
},
{
closed = 1;
nodes = (
"4 12 LINE",
"6 -2 LINE",
"130 0 LINE",
"143 53 LINE"
);
}
);
width = 313;
}
);
},
{
glyphname = two.osf;
lastChange = "2016-11-11 17:29:21 +0000";
layers = (
{
background = {
paths = (
{
closed = 1;
nodes = (
"237 0 LINE SMOOTH",
"260 0 OFFCURVE",
"292 -3 OFFCURVE",
"303 -5 CURVE",
"335 120 LINE",
"321 126 LINE",
"256 15 LINE",
"304 48 LINE",
"38 48 LINE",
"23 25 LINE",
"154 112 OFFCURVE",
"314 197 OFFCURVE",
"334 313 CURVE SMOOTH",
"350 404 OFFCURVE",
"289 458 OFFCURVE",
"204 458 CURVE SMOOTH",
"154 458 OFFCURVE",
"100 435 OFFCURVE",
"86 417 CURVE",
"70 316 LINE",
"83 312 LINE",
"152 440 LINE",
"122 428 LINE",
"112 403 LINE",
"139 424 LINE",
"221 427 OFFCURVE",
"286 390 OFFCURVE",
"273 305 CURVE SMOOTH",
"258 207 OFFCURVE",
"115 118 OFFCURVE",
"-3 29 CURVE",
"0 0 LINE"
);
}
);
};
layerId = "97AFB7C9-FE9A-4B33-96EF-7CD144DFB325";
paths = (
{
closed = 1;
nodes = (
"237 0 LINE SMOOTH",
"260 0 OFFCURVE",
"292 -3 OFFCURVE",
"303 -5 CURVE",
"335 120 LINE",
"321 126 LINE",
"256 15 LINE",
"304 48 LINE",
"38 48 LINE",
"23 25 LINE",
"154 112 OFFCURVE",
"311 202 OFFCURVE",
"331 318 CURVE SMOOTH",
"347 409 OFFCURVE",
"286 463 OFFCURVE",
"201 463 CURVE SMOOTH",
"151 463 OFFCURVE",
"97 440 OFFCURVE",
"83 422 CURVE",
"67 321 LINE",
"80 317 LINE",
"149 445 LINE",
"119 433 LINE",
"109 408 LINE",
"136 429 LINE",
"218 432 OFFCURVE",
"283 395 OFFCURVE",
"270 310 CURVE SMOOTH",
"255 212 OFFCURVE",
"115 118 OFFCURVE",
"-3 29 CURVE",
"0 0 LINE"
);
}
);
width = 382;
}
);
},
{
glyphname = three.osf;
lastChange = "2016-11-11 17:29:21 +0000";
layers = (
{
background = {
paths = (
{
closed = 1;
nodes = (
"9 -167 LINE",
"112 -157 OFFCURVE",
"272 -59 OFFCURVE",
"296 68 CURVE SMOOTH",
"318 187 OFFCURVE",
"213 231 OFFCURVE",
"144 253 CURVE",
"101 208 LINE",
"184 183 OFFCURVE",
"251 136 OFFCURVE",
"235 50 CURVE SMOOTH",
"218 -41 OFFCURVE",
"109 -125 OFFCURVE",
"5 -145 CURVE"
);
},
{
closed = 1;
nodes = (
"121 205 LINE",
"334 408 LINE",
"328 451 LINE",
"323 451 LINE",
"101 208 LINE"
);
},
{
closed = 1;
nodes = (
"77 334 LINE",
"130 437 LINE",
"85 403 LINE",
"319 403 LINE",
"328 451 LINE",
"118 451 LINE SMOOTH",
"106 451 OFFCURVE",
"90 451 OFFCURVE",
"82 452 CURVE",
"64 338 LINE"
);
}
);
};
layerId = "97AFB7C9-FE9A-4B33-96EF-7CD144DFB325";
paths = (
{
closed = 1;
nodes = (
"9 -167 LINE",
"112 -157 OFFCURVE",
"272 -59 OFFCURVE",
"296 68 CURVE SMOOTH",
"318 187 OFFCURVE",
"213 231 OFFCURVE",
"144 253 CURVE",
"101 208 LINE",
"184 183 OFFCURVE",
"251 136 OFFCURVE",
"235 50 CURVE SMOOTH",
"218 -41 OFFCURVE",
"109 -125 OFFCURVE",
"5 -145 CURVE"
);
},
{
closed = 1;
nodes = (
"121 205 LINE",
"331 408 LINE",
"338 451 LINE",
"320 451 LINE",
"101 208 LINE"
);
},
{
closed = 1;
nodes = (
"77 334 LINE",
"130 437 LINE",
"85 403 LINE",
"316 403 LINE",
"325 451 LINE",
"118 451 LINE SMOOTH",
"106 451 OFFCURVE",
"90 451 OFFCURVE",
"82 452 CURVE",
"64 338 LINE"
);
}
);
width = 363;
}
);
},
{
glyphname = four.osf;
lastChange = "2016-11-11 17:29:21 +0000";
layers = (
{
background = {
paths = (
{
closed = 1;
nodes = (
"282 -148 LINE",
"382 461 LINE",
"367 461 LINE",
"316 442 LINE",
"321 427 LINE",
"222 -167 LINE"
);
},
{
closed = 1;
nodes = (
"400 23 LINE",
"415 71 LINE",
"13 73 LINE",
"-6 50 LINE",
"5 23 LINE"
);
},
{
closed = 1;
nodes = (
"316 442 LINE",
"-6 50 LINE",
"39 46 LINE",
"339 437 LINE"
);
}
);
};
layerId = "97AFB7C9-FE9A-4B33-96EF-7CD144DFB325";
paths = (
{
closed = 1;
nodes = (
"282 -148 LINE",
"382 461 LINE",
"367 461 LINE",
"314 442 LINE",
"321 427 LINE",
"222 -167 LINE"
);
},
{
closed = 1;
nodes = (
"400 23 LINE",
"415 71 LINE",
"13 73 LINE",
"-6 50 LINE",
"5 23 LINE"
);
},
{
closed = 1;
nodes = (
"314 442 LINE",
"-6 50 LINE",
"39 46 LINE",
"341 437 LINE"
);
}
);
width = 461;
}
);
},
{
glyphname = five.osf;
lastChange = "2016-11-11 17:29:21 +0000";
layers = (
{
background = {
paths = (
{
closed = 1;
nodes = (
"-22 -147 LINE",
"90 -157 OFFCURVE",
"256 -87 OFFCURVE",
"280 70 CURVE SMOOTH",
"299 194 OFFCURVE",
"173 248 OFFCURVE",
"64 272 CURVE",
"36 220 LINE",
"142 193 OFFCURVE",
"230 143 OFFCURVE",
"220 63 CURVE SMOOTH",
"204 -69 OFFCURVE",
"57 -125 OFFCURVE",
"-17 -125 CURVE"
);
}
);
};
layerId = "97AFB7C9-FE9A-4B33-96EF-7CD144DFB325";
paths = (
{
closed = 1;
nodes = (
"61 220 LINE",
"129 451 LINE",
"94 451 LINE",
"39 220 LINE"
);
},
{
closed = 1;
nodes = (
"313 403 LINE",
"325 451 LINE",
"94 451 LINE",
"88 403 LINE"
);
},
{
closed = 1;
nodes = (
"257 408 LINE",
"313 403 LINE",
"348 488 LINE",
"334 494 LINE",
"248 414 LINE",
"324 448 LINE",
"235 444 LINE"
);
},
{
closed = 1;
nodes = (
"-14 -167 LINE",
"89 -157 OFFCURVE",
"244 -79 OFFCURVE",
"268 68 CURVE SMOOTH",
"288 192 OFFCURVE",
"168 250 OFFCURVE",
"62 272 CURVE",
"39 220 LINE",
"139 199 OFFCURVE",
"221 141 OFFCURVE",
"207 50 CURVE SMOOTH",
"190 -61 OFFCURVE",
"86 -125 OFFCURVE",
"-18 -145 CURVE"
);
}
);
width = 335;
}
);
},
{
glyphname = seven.osf;
lastChange = "2016-11-11 17:29:21 +0000";
layers = (
{
background = {
paths = (
{
closed = 1;
nodes = (
"126 -130 OFFCURVE",
"121 -110 OFFCURVE",
"130 -93 CURVE SMOOTH",
"383 409 LINE",
"390 451 LINE",
"376 451 LINE",
"131 0 LINE SMOOTH",
"69 -113 OFFCURVE",
"58 -136 OFFCURVE",
"58 -156 CURVE",
"59 -167 LINE",
"119 -148 LINE"
);
},
{
closed = 1;
nodes = (
"77 334 LINE",
"130 437 LINE",
"99 403 LINE",
"361 403 LINE",
"377 451 LINE",
"138 451 LINE SMOOTH",
"107 451 OFFCURVE",
"95 451 OFFCURVE",
"82 452 CURVE",
"64 338 LINE"
);
}
);
};
layerId = "97AFB7C9-FE9A-4B33-96EF-7CD144DFB325";
paths = (
{
closed = 1;
nodes = (
"133 -49 LINE",
"112 -123 LINE",
"375 409 LINE",
"382 451 LINE",
"360 441 LINE",
"96 -52 LINE SMOOTH",
"73 -94 OFFCURVE",
"53 -136 OFFCURVE",
"53 -156 CURVE",
"54 -167 LINE",
"121 -145 LINE"
);
},
{
closed = 1;
nodes = (
"77 334 LINE",
"130 437 LINE",
"99 403 LINE",
"353 403 LINE",
"382 451 LINE",
"138 451 LINE SMOOTH",
"107 451 OFFCURVE",
"95 451 OFFCURVE",
"82 452 CURVE",
"64 338 LINE"
);
}
);
width = 374;
},
{
associatedMasterId = "97AFB7C9-FE9A-4B33-96EF-7CD144DFB325";
background = {
paths = (
{
closed = 1;
nodes = (
"383 409 LINE",
"377 451 LINE",
"376 451 LINE",
"60 -159 LINE",
"100 -169 LINE"
);
},
{
closed = 1;
nodes = (
"77 334 LINE",
"130 437 LINE",
"99 403 LINE",
"361 403 LINE",
"377 451 LINE",
"138 451 LINE SMOOTH",
"107 451 OFFCURVE",
"95 451 OFFCURVE",
"82 452 CURVE",
"64 338 LINE"
);
}
);
};
layerId = "E729510B-CC6E-4192-8A76-34CA88DFAB52";
name = "Light Italic Oct 16 16, 15:19";
paths = (
{
closed = 1;
nodes = (
"383 409 LINE",
"377 451 LINE",
"376 451 LINE",
"58 -154 LINE",
"105 -166 LINE"
);
},
{
closed = 1;
nodes = (
"77 334 LINE",
"130 437 LINE",
"99 403 LINE",
"361 403 LINE",
"377 451 LINE",
"138 451 LINE SMOOTH",
"107 451 OFFCURVE",
"95 451 OFFCURVE",
"82 452 CURVE",
"64 338 LINE"
);
}
);
width = 374;
}
);
},
